<mxfile host="app.diagrams.net" modified="2020-12-10T20:42:44.158Z" agent="5.0 (X11; Linux x86_64) AppleWebKit/537.36 (KHTML, like Gecko) Chrome/87.0.4280.88 Safari/537.36" etag="lX296EqbR-j33fvuWrKa" version="14.0.0" type="github" pages="2">
  <diagram id="eddRSXdbXzqdwhoQDh6k" name="Zilgraph 2.0">
    <mxGraphModel dx="1478" dy="1112" grid="1" gridSize="10" guides="1" tooltips="1" connect="1" arrows="1" fold="1" page="1" pageScale="1" pageWidth="850" pageHeight="1100" math="0" shadow="0">
      <root>
        <mxCell id="0" />
        <mxCell id="1" parent="0" />
        <mxCell id="PppDZVDBbZMyRl5L9W1J-1" value="Zilgraph&lt;br&gt;&lt;br&gt;&lt;br&gt;&lt;br&gt;&lt;br&gt;&lt;br&gt;&lt;br&gt;&lt;br&gt;&lt;br&gt;&lt;br&gt;" style="rounded=0;whiteSpace=wrap;html=1;" parent="1" vertex="1">
          <mxGeometry x="200" y="720" width="360" height="160" as="geometry" />
        </mxCell>
        <mxCell id="PppDZVDBbZMyRl5L9W1J-2" value="" style="shape=image;verticalLabelPosition=bottom;labelBackgroundColor=#ffffff;verticalAlign=top;aspect=fixed;imageAspect=0;image=data:image/png,iVBORw0KGgoAAAANSUhEUgAAASYAAAB5CAIAAAAbCRsbAAAAA3NCSVQICAjb4U/gAAAAGXRFWHRTb2Z0d2FyZQBnbm9tZS1zY3JlZW5zaG907wO/PgAAEmxJREFUeJzt3X1QFHeaB/Cne7p73oeZYQBFBBFQg9HTIGcOYta8Vqribd5us5VkkzIm5kyssq6ia0xiKrqluCqY00QtScpNbXTXXC6oSZm3MzHerej5lngLQkBCUDIDCMMwrz3Tb/dHj6PB4WUG6GHg+RQlPd093T9wvvTL76UJSZIADY7dbs/MzEx0KdCQEASR2M88mcB9IzQOYeQQUhRGDo07xDXr169Xfu+U8rtEKLHwWg6hcQQjh5CiMHIIKQojh5CiMHIIKQojh5CiMHIIKQojh5CiMHJo3MHWJwgpClufIDSOjNRR7vf/9fsmZxMA1NTU+Hw+q9VaUFAAAKXZpSv/aeUI7RSh0W8ETywP1h8M7yEF7IK9pr4GAEqzS0dujwiNfnhiiZCiMHIIKQrvWCLU28WLF3fv3s1xnCRJL7zwQlFRkcvl2rJlS1dXF0VRq1evzsnJiXvjSkeutdV94UK7Wq2iaRXDyF+kWk0xjIra+ba8zvHjxwEgOzs7NzcXAKC4GEpKFC4nGs/279+/YsWKgoKCurq6rVu37t27t7KysqSkZNGiRWfOnNm1a9fmzZvj3ngCjnI8L/K8CMD1mj/jT/v1F84AwK96LThxQqGSIQQAABs3bpQn2tvb09LSAOD06dMrVqwAgOLi4s2bN7Msq9Fo4tv4iEROFCWXi431XTi8Hxo9Ll68uH79ep1Ot2nTJp7nBUGIZMxisTidzriHV6Tsdvvg1/7888/Xrl07d+7c9957r691eF5sbnZ3d3uiLjUaJZtNCIUEjhNDIfHahMBxIs/zUd/S2dkZiqWQIyqmXxcaVbZt21ZRUQEABEHcOH/dunVvvvlmr5ULCws//PDDEydOvPHGGzt37rxxkSiKvbYQEyqmsFqt1ra2No1G09e7WJZvbHQaDBadThd1hZSUlJycrKiLpJTob7HZbDA6BmzFoWOTWnl5eXl5+YBDx4qiePz48bvuugsASktL33rrLa/XyzBMIBDQarWiKLpcLqvVGncxhrOSwOsN1dd3hkJCfG/v6w9HT08w/jIhFCOSJD/44INz584BwI8//ggAZrN5/vz5R48eBYDq6urCwkK1Wh339gd1Lefn/PJEUAwCDQIpRObo6PChyekM/PSTS/7zQZKExaKRF3Ecx3EcTdM0TcdXxLY2L+EOmkzx/5AIxeTVV199++23KysrSZJ8/fXXSZJcvHhxWVnZoUOH9Hr9mjVrhrLxQY3PfrDu4KP/8ejN8x+Z8UjVb6sAwOHw2u3hizeaJqdNS9VoYr8xU1oK1dU3z/5h7yf+OcUzZti02gTXIuKJ5RiQ9M8kkCSpudkVyZtWS91yiy2evPVLFKXGRifHicO7WYSUN6TISZLU0OB0OgPyS5NJPWOGjaZVw1Gw60iSAACOExoaugQBU4eS25Ai5/GEvN6QPG2z6QoKrHI8hldWllG+s8Ky/KVL3Vh9h5LakCIniuFPf1aWKScnZTjKE4VWS+fmWuRprzfU3OwaoR0hpIChXsuRJJGfb83I0A9LafpisWgmTjTI093dbOTSEaGkM6TIEQQxfXpqSooSt+8zM40WS7jFjcPh7e6OuUEZQrIkHm7IaGR0ujhr2+IwdaqlsdHpdgcB4Mcfu6dNSzUaGcX2jsaMxN4OGFLkRuJmSf+mTjXX13exLA8ATU3dt/7lLYoiAeDbb78FgIULF4bXKytTuGAIDdLAkRMEqb3dq0BRBkOlIgsKrHV1nTwvCoJIbQ13W1oofzt5MrweRg6NVgNcy3k8odraq15v775tI0WjAY0mRJIsgMgw8steqzCMatq0VOUPsK2trQ6Ho7W1VeH9ojGmz8iJonTliruhoYvj4mymHLMTJyAQgECAEQSNJJHBoPzy5i7hWi2Vl2cZSgeKOBw4cGDevHnbt29Xcqdo7KH+npIya9as8Ku//U3+HgjwTU3OYDAcNuUPKQMymdQjVxOI0MihZrnd4ZEOMjLkWW1t3p9/vl7xZTQy2WoTnElI8fqTmqpNdBEQitkvbp+EQkJzsyvShgsAJk82pafra+uSbOy9mpoOmlZRFEnTJEWRNK2iKCIyR6Uiq6urA4EAANxzzz3Dv/s//1n+fuLECQDQaDRFRUUAAEYjPPLI8O8OJZXrkRNF6eLFzki7YZ2Ozs01D3ufgGF2990A4Pdzp079DwAUF98hzw4GhchZcVRNTd3PPLNo3rz5hw//IwAQBEFRZORLpSIYJtw4u7y6/J3T7wCA2++Gf4NKXeVH//4RAPxm5m+23rc1+tYPHYKDBwGg98DUVVXx/6RorLieKEGQInmbMMEwaZIxQUWKxddfA4BakO6hSAC48N5/DrKDD8+LABAKCQ5Hn/UfJElQFNnR4WvpaQnPMoMb3O4e99ALjhIocuMt6qgnI633QYxhVLm5ZoMhmVp1qFTh3+Ds2RkAwPMixwk8L3KcKA/gx3HX5wx+nAhRlEIhoa/1fT7O5wvp9cn0i0KyUdT6xGrVZmebVKoku3IDgGPHjkWm5ZPDflYWBMnjMQOARkPl5KTIsRQESZ6IfPW/R683VF/fRVGkyaROSVGbTOr+d4qQ7HrkKIrIzTUnsChDcb2pV/+qq6G5WQUwqbHxKYCC7i7blwfDi556qte6giDyvJju0UNdn9vjedHpDMiddPV6xmRiTCa1IZ6fAI0X1yOncM1ywvzudwBQALAPABob5ZdQUnJz5FQqUqUiX1v4ymsLXwGAioqKVatWrVq16g9/KHO7Qz09rMcTunF9ny/k84UcDm9+D4s1hqgvo/uG5Eg4fBgA6uvrv/nmGwB46aWXYt2AVktrtXRGhl4UJY8n1NPD9vQEb7zkw27rqB/jLHLX2o7N+PWvZ6xeHeu7e52+kiSRkqKWuwuyLO92B3t6gnLfoqg8npBelEZhU54k9dVXX8k9SMqSqhX7OIvcEKxcufKJJ57oa1A9jYbSaKj0dL0oSoI+eh/Cjg6f+0K72ayx2XQJ6On3wQfw5ZcA0NzcfPnyZZqmS+Q/QCQZqbtPOps2bbr//vsTXYrYYOSGGUkSZN9jnImiJN9uYRhVaqo2NVWrVsfzX9DkbNp8YjMAuN3uCxcuAMCCBQvkRZX/XNnn2/bvB4BcgFz5ZXMzAMDTT8dRgNFJFCW5evnmf+Wb0i0tzYkuI0ZOQTc25ZFr4R0Or8HAWK1aq1UTa93Mu+ffDU/pAQDqz9cDQJ4lb7hKO/oFAjwA+HxcTU2HXMcz4Fv++tf9I1+uAWDkRsZddwFATU0Nx3FZWVnyM8omTTKmzUrv7PQ7nWwwGH7MkNcb8npD3VWfGY1MSormhx9qAGDKlCkWiwUAoLAw0twcRXCc0NrqaW11A4AgiP037gOAyoaKA83vAUBwQhAS3vqk8eDBgoKC/lfKTsk+u/QsANTVhauobrnllhEvWvK61pby1puWMACZmcbMTKPXG+rqCjidAXlgwtzXXqKdVwFg7i/X7/mhhTZyNE0O+4C8yau93edwePsaRFhuIqtSkZEJlYowOtQ6RgcAYkgMApvg1icFDz884EpFmUW9JtAQGQyMwcBMnmxyudjOTn9fq7W0uDhP+GYMTZMME37g81V/n2+Rz68kCSRJkiRJfuyEJIEqJCR74zSPJ3j5slse+SZCr6dnzkxTqYh+/iqVZ20sXxR+MCqxPsF3jPHEMpFIkrBatVarFuiBL+Q4TuS48AOf233RW2MHg8KFC+1RF6XaPVOGUNTE4jjxypUeeSTF/+3875ru8xRFOumf4U5oyfmp/PQf5dXW3rk2ocUcFIzcqGYwqAMaiuMEQRipc6FAgGcEcTQ3rG1r8zoc3sjQ4AQBeiOl19PdPZIt3SYREi9Gf/7u6ISRGzVIEgBEUQQAkgwHYOpUM2SkAYAoShwnhkK8fKwLdOpIgoTwCeQv3hIrv5/74e8d6en69HS98i2zvSHv923fA0AgEGhsbASA2bNny4vuyL7D7Q5eufKLM0mLRfP87H+h6d8CACwEeE7h8g4DjNzo0NYWnhBFABBvihBJEmq1Sq0OX65kZPyDMFMAgKampvz8/Ly8vEuXLg2wi4t9tlkXBMnh8La3+9LSdBkZeoVv1Sz404JfvD4HAGBgDN8/ftnluj4mN8Oopkwxj4HBgjFyo0scB6vDhw8PZY+R3oaiKLW3+zo6fKmpugkT9PHV0Q8XUZQieSMImDDBMHGicWw0vMfIJbe8vLy8vCFVf5vNmilTzG1tXvn8TZKgs9Pf1RWQH72S8JE4jEZmyhRzZFyMMQAjh0BuetbdzTocHrlJhySFG6aZzZoJE/QJ6fxO02RWlslqHWvjuGHkxo2MDLlZ87lz5+QZ4XHHrrFYNBaLpqcn6HB4fD4OALL/+Kq69ScB4P9+uhQI+CZOnDh5chZBEPDww/Dii3EXhGV5luUDAZ5leae3J+o6BAG33po+JntdYOTGjWst7ov6bXovd0fyekPyQEymU8cBIHwPsccF9XUA8HPx3e66TnmEwqiDFwLAnDlzamtrz5w5M336TJYVAgGOZXmWFViWu7Hth5+PPvY+QRAjl7fRNdwQQgBgMDAFBVbeohHS0kURfD4Pywb0eqNGowUAQZD8/uhRobs6AEClIg1e1sbzzScbyY7w55tLTVes/P1LbIMvAh+9PXh2u72v/nJjGMvyS5f+6759e9eu3fzoo89EqqSjKnzyXm3DxZvnX/zL0cC0Qnlap6O1WkqrpbVaSlCx1vIotRcGxuB5dUSelUsQCf7M41EODUCjofLzs9etW5eebpw7d4IkAccJN45TKI9iKE8ARD8btNm09FSLVkup1aobR9nxhpR6qNOogZFDA7vxgocggGFUDKMCiNb5XRv9E5WergdL7+eWjU8YOTSsDh2Sv7e0hIe4zsnJ6f8d7avaAcDn88lPibDZbCNZvsTDa7kYjM9ruTFmMNdydru9oqLC6/USBLF8+fJZs2a5XK4tW7Z0dXVRFLV69eoB/470Y/S2H0coUbZv3/7ggw/u2bNn2bJlO3bsAIDKysqSkpI9e/YsXrx4165dQ9k4Rg6h3l555RV5AMX09HT5dPf06dP33nsvABQXFzc1NbEs2/8W+oGRQ6g3q9Uqty8/cODAokWLeJ4XBEFz7bH1FovF6XTGvXHKbrcPTzHHB/x1Ja9t27ZVVFTATc8CiNoGRRTFHTt2CILw+OOPy50Yb1w0lKcJUHg/YPDw9klSKy8vLy8vH8ztE1EUN2zYkJmZ+fzzzwMASZIMwwQCAa1WK4qiy+WyWq1xFwNPLBHq7cCBA6mpqXLeZPPnzz969CgAVFdXFxYWqtXquDeOlQQxwKPcGDCYo9xjjz1mMBgYJtxlafv27SzLlpWVdXd36/X6NWvWDOVjgJGLAUZuDEh4G0s8sURIURg5hBSFkUNIURg5hBSFkYvBtm3bEl0ElPQwcjGQ2y6gZEdcs379+kSXBaGxrrS0VEoorJeLQcKrdNAYgCeWCCkKI4eQojByCCkKI4eQojByMVi3bl2ii4CSHt6CQ0hReJRDSFEYOYQUhZFDSFEYOYQUhZELq6+vf/rpp/fv3y+/DAaDmzZtWrp06ZIlSz799FN5piiKS5YskSTps88+e/HFF5csWbJ37155Ec/zu3fvfuCBBxJTepQ88DEgAAB2u/3999+fP39+ZM7HH3+s0Wjeffddt9v97LPP3nnnnSkpKQ0NDfn5+e3t7R999NGuXbvUavXLL79cW1s7c+bM3bt3T58+XR5vFKF+4EcEACA1NbWsrMxisUTmPPTQQ8uWLQMAk8mkVqvlAbHPnj07b96806dPl5SUaLVakiQXLlxYXV0NAM8999z9/T4QGCEZRg4AQK1W9zpA6fV6rVYLAF9//XVOTk5GRgYAnD9//rbbbuvs7Iw8kMlqtXZ1dQGATqdTvNQoKeGJZX+++OKLI0eObNy4EQD8fr/f77fZbDd24ZEkaShjZaNxCCPXp6qqqlOnTm3ZskU+3H333Xdz5swBAJvN5nA45HWuXr2alpaWyFKiZIMnltHV1NQcO3Zsw4YNct4A4OzZs0VFRQBw++23nzx50u/38zx/7NixBQsWJLSkKMlgG0sAgOPHj+/bt8/lcgGA2WxetmzZkSNHamtrTSaTvMLy5cvfeeednTt3yoPRf/LJJ1VVVQRB3HfffU8++SQArFy50u12t7S05OTkTJo0CRtAo75g5BBSFJ5YIqQojBxCisLIIaQojBxCisLIIaQojBxCisLIIaQojBxCisLIIaQojBxCisLIIaQojBxCisLIIaQoytHhTHQZEBpH/h+6ssaVdG3tRAAAAABJRU5ErkJggg==;" parent="1" vertex="1">
          <mxGeometry x="220" y="790" width="145.79" height="60" as="geometry" />
        </mxCell>
        <mxCell id="PppDZVDBbZMyRl5L9W1J-3" value="" style="shape=image;verticalLabelPosition=bottom;labelBackgroundColor=#ffffff;verticalAlign=top;aspect=fixed;imageAspect=0;image=data:image/png,iVBORw0KGgoAAAANSUhEUgAAAjEAAAF/CAIAAAA3tw8iAAAAA3NCSVQICAjb4U/gAAAAGXRFWHRTb2Z0d2FyZQBnbm9tZS1zY3JlZW5zaG907wO/PgAAIABJREFUeJzs3XlcE2f+B/BnkskNBAiE+xAEQW4VUKvUKh61ntXqrtpqXbVqD7e/tlut1h722LW2XZXqWrW2tmsXj1oPQK1n8UKoIsotyH3fAXLOzO+PUMQQIUDCDOH7/sNXMnky8x2N+WRmnnkejKIoBAAAADAAi+4CAAAAgDaQSQAAAJgCMgkAAABTQCYBAABgCsgkAAAATAGZBAAAgCkgkwAAADAFZBIAAACmgEwCAADAFJBJAAAAmAIyCQAAAFNAJgEAAGAKyCQAAABMAZkEAACAKcwnk0rPH337n8d/b6S7DoMNuIIBAMDUcINaafL2brucPWT85wt9OZ1ebMr47eu4uoCF8+a7G7a2J6qK+zb+hkXk/y3yt0UINZf/nlIi8AkOd+Fpi8iKO/Z9vnTJymcC+X3bTjvtfv35DOcJpM6uo8aMinIXtjfpwd7pFtzZ4zvYJ7L7N7IKxV7PDZf0uE4AAGAqIxwncXAen88V9H1FiC3gCwQ8dtuzlsLEm2k3ylSPNsTjWvLYxv/GtfWaPily1qRR44OcBHX5Jw8d23G5St6+UcP3rlPBnTy+g33SeP9m2qV7teo/nxvvXwEAAGhjhG94gW/Uu759Xw1CSDLxpYUTn/gq7h09d6NRtqND7D4+3Lvt+C9adudY/H9vnj/mPG+JLw8Zc+9QdzvYJ0atEwAA6MH+8MMPu29F1t++XlBr4xEdKOn8I19+L27DgZQ696BAMUIIIUXtjbPnD8bdOHn1XnJhswAV/3Tgt0zb4JH2LKTI2b3t1/hGpwm+lm1vrrz5aczZVJ5PpAsPoaoTu/+3L5M7OoQ4vvPw97eqFQg1Pkw/dzW3aUjgcCtN1on//vPXcvvRQ51YCCGkbsw7/cvFn87cOHcrN6OObY0q0ivYw8L9PVrufrUjLq5WMt7Puq3axvs7/n3qVMclj+2XZ3Sg7Z/LeU5ellX3clIruKPCHAWd966xJC7uws9x108npt3IqGgU2Hnb89mo/H+dCxbm7d16/HQtm5V+4/u461canCb4yv/cQSkPIVl+xs0ylrM7uh138X/nks7dys9t5Hl42opYCCFUeCb2k6P5lqHD3LjawjR3Yg98+Vuj+xi34tgDX57OKyMQaii6cPXOfbbXGDe+bp1IWXjn+s+nrh27eOv87fyH9bijq8RK+wtEk7d36/EzzVKP+j8Onrx6/MKdyxkVMhtnP5vO52UBAKBfGb2Pg+zGL/HH7tXh7n6zosNCxbXxZ7Kqe7wS24nPRS+b5G6JkL3/2GXPR0VJOjVRFMYevJxYSrgMD54y2sO28k5sanPbSxKPUClS5OfnadoWNOUXliGun7+LQV+6fJdR7lxUVZLd3OklRcn/Dp29VMYeNi5y3iQ/b1SdePLUT/dauyhYlplyrtEiNHzUFH8LfRurSzxxp0rsMXFc8CgHojD18u64Qrm+dh3g3hOmLns+2JuNkNRv8fNT5w3vvGZl1plTu8/mN4m9pkePneIjqLqXuPNQcqHmUQtZ5qW9Ka1S/+ApozxsW0oTj11K7ry/AADQv4x8dUadf+dckcomaPobzzkJEEJhgWOkJ7de6Gkq8aReHlJR+QmEBM6uge0HVR2U3kxObeEGzJr58nAhQgiN8XM/9OvJIu2L1qH+tvFXSlKLNH5eOELKvJxqDc8j1MvAncWlUguU2VzViNDj3/bqotz7jexhz039SxAPITQmyAntPp96p7ApyF9PwdoAsA1e81K4S9uWO8cN1yN65powS4QQGhPgfezYfzNv3xjnMbFzBndg5eAa6IDu42lIZB/o66onaEvvHEtttAya+sZzrgKEEPIf5XJma1zaiWSfN8ZYa5tocNdlLz/jx0cIoTHOyo9OVqQ+VIYHPal3BgAA9AcjHyeV5ZfLkDh0lFP7xXZbiaUJ+oHJ8vIbkcgjyre9g5y1t/RRgNgO93FHquzMCjVCSFOSWkTwvbyGGVwHjrMRItSE7nIOn8tBRFVRSZ02b/geS97827aX/K2evCq+g5NLV9u1CPBqT1xhYJiHJarLLmo1tNAnKMwsrEfiMaNd2/8VrIJGhItRUWZJXXth7j5+f3ZfFEisbRAhV3TROwMAAPqDcTNJI2uUI7aFc5c/842huaoFIbGt/ZO+7sUeoc5Ilp9fpEHq/KI8wuATdwghhDQaAiE2p/OlM/ewhaNs5fcuf/b1oa8OXTqRXFil6OUO6MWRiC0Ramrs7uxdNzR1tXLEFkvFHReKnW0Raqmr1/8WNkJIo9H/GgAA9BtT3DPL7qdr5XgXnaotQ/3t8ZaSO2XKvNxyBc/V4BN3CCFNVVUzQhaPf6drCf2i536wZvriCV5SdkPq5fNbdx8/UaTsRe2m12l/CYQ0SK2vKQAAMIRxMwm3EQsQ0Vz15LEJcIQQ6nRSrMcspGKEGhtlT25h5e/jwZan30tLzZf36MQdUpSm5KuQ1HVYp64D6uaGqtpWJHYKCx+9ZOHcD1aND0B1ieez6vStphfUtXV1CFmJBQi1/U31KkJwW4kAEQ2P/ys0FjYiJBZL+14lAACYjJGPk6S+Tpao7kZyefuXaVWl7NE5Ib7QkodktQ3tX+JVRVVd5AredhqtM0s/dzFqLLxR2r7u1iqdU14WHqEubFlGempLT07caWTJcddSlYLQcX6dh1oouhq/de/ZxNo/n4ulHmKENPL2DT+54CdpTs9vaN+F+8klCmQ7zF2IELIUCxBqLqv6cwcVFdlVnd5NIL3n2zz8PWxQ3Y2bJe2FNWXcTW9Ezv4efR4/AgAATKgn/Q8aSxOTVR3fwBE7jfJ97NoRxz1s+pDC2NTzO5V+o9wFsrL8lHvVHb43HUO9BCmZKXuPNYc7s+vKClNzG594FUNsa8tG2ak3TyDXYcMD/R4/kyYdPXpU5tmbv5zljAscJtaU3btzLlfnEr0wIMj+RFGFhufSzYm7xqIbd1QcDSFvrM7OLcxrZLuPjp7nq6cHmnd4sPu9pPhDcVWjvDz4RFVO1o0qtvNoHxe9BYu62uafiMLzp77K9wl1Zlc9zE8tUln6h4+RIISQrZeX++WklLh4FOQh1dRl5xbmtSD0qCixsxih0rRjl+XeXj5jOgyGhBBCLmHzggq/v3d+R7PfGF+xprLwxr1SuW3AsnBrQ2oCAAC69CST6vLjL+Q/tsQ5MsBX8vghiGX4vOmas9cu5qSdzOHauHhNf1pw4kpR++b8pkbPQtcu5aTH53NtHFynPOeaEpeuf3N8r+kT8quult64KcfddTMJ8V3nLYoWnElOPn8+EQmcvQLmjcqPTXmsiZWPjze7otDdt5sTd3X5J8/mo7bx7rxmPRcW5a6n9zlCCEkC17zEjb+cnnozKUWJ+GLbwElTZ4X/mco6BRuSSWzH2Ys8Ci+kXbzarMEtPEInLIz+s7OcJHDJ7ObYC7mpN1OQSOztP35W4/WT7X+RyDI8Ojj9RHpqcppM5KGbSYjn99zMNdKkEym58WcJXGThETR+2QTfLnsAAgAA/TCKoky7hfxLmw7ne8xaunJ4v38j1t79am+a9Pm/LvGFL2MAABgAzGeuik40eclZZTzXUT3ocQcAAIBOZvl9rSm8dyc1vyQ1U+48OtjPLHcRAADMkenP3QEAAACGMeNzdwAAAAYYyCQAAABMAZkEAACAKSCTAAAAMAVkEgAAAKaATAIAAMAUkEkAAACYAjIJAAAAU0AmAQAAYArIJAAAAEwBmQQAAIAp9A9QWl5lrOm8AQAAAEPBcRIAAACmgHHBAQAAMAUcJwEAAGAKyCQAAABMAZkEAACAKSCTAAAAMAVkEgAAAKaATAIAAMAUkEkAAACYAjIJAAAAU0AmAQAAYArIJAAAAEwBmQQAAIApIJMAAAAwBWQSAAAApoBMAgAAwBSQSQAAAJgCMgkAAABTQCYBAABgCsgkAAAATAGZBAAAgCkgkwAAADAFZBIAAACmgEwCAADAFJBJAAAAmAIyCQAAAFPgdBcAAADMQhCEQqEgSZLuQswKm80WCoXdNoNMAgAAXSwWSyQS0V2FWZHJZIY0g3N3AAAAmAIyCQAAAFNAJgEAAGAKyCQAAABMAZkEAACAKSCTAAAAMAVkEgAAAKaATAIAAMAUkEkAAACYAjIJAAAAU0AmAQBAb8gJdY/aN6kVJqrEnMB4d6D/tDQrCQ3FYmM4zsI5bBYLUyk1SoVGqf1T+0BJqJQatZogNCSOszhcNpeH83hsHo/DE+A8Hs7j4Vw+m8vFKYrSqEmCINlsFo8Pn2TQ3ypbmz5PPWtgY38bx1V+4/S+VFxcvHz58o5LeDyek5NTRETEwoULraysdNqnpqbGx8enp6fX19fz+XypVDpmzJjp06fb29t3bLZgwQKCII4dO6bz9ldeeSU/P7+LUnfs2OHv72/gfhkd/E8GpqJWEwghFoY11MsrK2QlhQ01Vc31ta31dfLGenlTo0Ih79nPTB18AcdKzBfbCGxsBRJ7kbunjYOzlcReZGnFQxTCWBiLhRlpVwAwOTc3t7Fjx2ofNzU13b179/Dhwzdu3Ni9ezePx9Mu12g0X3/99blz5zgcTnBwcEREhFqtzs3N/emnn3755Zd33nln3Dj9sdfRpEmTQkJCtI8bGhouXbrk6ekZFhbW3sDW1tbYO9cDkEnAOAgNSZIUi4XV1rSUFDbkZlUX5NWWlzbV17aaaIsKuVohV1dV6Bls2EYidHKx8va18/K1c3GzltiLSIJk4yw2G05WA4by9PRcsWJF+1OSJN97770//vgjKSkpKipKu/Dbb789d+5cSEjIu+++2/Go6NatW59//vmnn366Y8cOHx+frje0YMGC9sc5OTmXLl3y9/dfu3atUfem9yCTQO+pVQTOYVeUNeVkVGXeq9CGEN1FIYRQfW1rfW1rRlpF+xInFytPb0louMtQP6mdvUgbnzRWCEDXWCzW6NGj//jjj4aGBu2SkpKSX3/91cnJ6ZNPPuHz+R0bR0REvPfee++9915MTMz27dvpqNdoIJNAzxAEiWFYWUnj/Ttlt2+VPMiqIgiK7qK6V17aVF7adOP3hwghFgvz8Zc+NWGIf6CjvaMFRSHIJ8BARUVFCCFvb2/t04sXL1IU9cILL+gEklZ4eLifn19GRkZ5ebmTk1O/FmpUkEnAIBoNKWtUZN6rSLyYl3mvghoAMfREJEllp1dmp1dqnwaFOY+f5D1suIOFFQ9DiI3D+T1AA4VCUVZWpn3c0NCQlJR0+vTpqVOnBgQEaBdmZWUhhDpe+NExcuTIrKys7OxsyCRgnuStaoGQU5BXl3S1IOlqQW11C90VmcS9O2X37pQhhCT2ooixHmMneLkPsdF256O7NDCIJCcnL126tP0phmHTp09ftWpV+xLtSTw7O7snrUH7Ul1dnSnLNDnIJKBLpSK4XHZ2RuXlsw9u3yruY++4AaS2uiXhREbCiQy+gDPuGa/xk4Z6etvClSfQP/z9/efPn699rFAoSkpKzp49e/PmzQ8//NDPzw8hxOFwEEIkST5pDdqXWKyB/VsKMgk8otGQVeWyi2dyrl7Kk7cOlijqTCFXn4/PPh+fLRByJkz1jZrkLXW0ZLMxDINwAqZiZ2fX3r9Oa9asWatWrfr8888PHDjAYrG0XbSrqqo8PT31rqGmpgYhJJFITF+sCUEmAaRSEWoVcetaQcKvGZXlerpWD1ryVnXC8fSE4+kOTpaTpg8bGzWExWYJRVzIJtAP7OzsgoODr127VlZW5urqOnz48KtXryYnJz8pk+7cuYNhWPv1pwEKMmnwoihEEmRBft2po/fu3CqhuxxGqyyXHdqfcmh/Sugo18nPDRsW4EAQJF/AobsuYOaUSiVCSKVSIYSefvrp/fv3Hzt2bNq0aZaWljotU1JSsrKyRo0aRe8dr30HmTQYtbaocA77+uX8uF/S9d5zCp4kNaUkNaVE6mg5ZYbf01N8KJKCYY2AieTk5KSmplpaWrq7uyOEpFLpokWLfvzxx40bN27atEkqlba3/OOPPz777DMej/fqq6/SV69xwH+nwaVZplQpibjj9y8m5JDkQO7QTauqCtlP+5IPfZfy7Ozh0+YM5/M5XB6b7qLAwFZQULBv3z7tY5VKVVZWlpycTFHUa6+9huNtX9RLlixpbm4+fvz4smXLQkNDnZ2dtWML5ebmisXiTz75xNXVteM6FQrFrl27dDbk6ek5ffr0ftij3oFMGiwUcnVjg+KXQ6k3EwvorsVMkCQVdzw97nh6VPTQ2QuCraz5XC4kE+il4uLi2NhY7WMWi2VtbT127Nj58+d3vD7EYrHWrl07bty4+Pj4zMzMtLQ0Ho/n4ODw8ssvT58+3draWmedKpXq+PHjOgsjIyOZnEkYNaDvfgQGUCk19XXy2B9u/3GziO5azFnkOM/5S8KsbfhcHvzUG9gIglCpVAKBoOtmBbLano4LLsS5fa5uoJLJZJ0vg3UGmWTOVCqiqUER+8Mft64V0l3LYBH+lMfCl0ZYivl8uM40YBmYST3VpFZYcfQMCzRIQCYNamo1oZCrj/337qWzOXTXMhg9NcHrLy+PFAg5HA6czRt4TJRJgxxk0iBFECRJUHHH04//fJfuWga7eYtDp88ZjkMsDTSQSaYAmTQYadRk0tWCH/feGsyjMDCKQMhZ8frYsAhXGD1vAIFMMgXIpMFFIVeXFjce3JNUkDewR2A0S57etivXPeXgaMmBjnkDAWSSKUAmDSJKheanfcm/n39AdyGgK9HThy14aQTcY8t8kEmmAJk0KGg0ZMbd8m+2JQ6e0bsHNL6As3Ld2KBQZ0gmJoNMMgXIJPPX0qz6fnfSrWsFdBcCeiZ4hMvy10ZzOGwLSx7dtQA9IJNMATLJnBEEmZ5a/uWWi3QXAnpv2ZrRY54eArcxMRBkkilAJpkthVz9077kxAt5dBcC+ip0lOvKdWOFIi5MG8gokEmmAJlkhggN+TCv9osPL8DVI7PBF3Be+0eUj78UDpiYAzLJFCCTzNCJ2LRf4E5YczRlpv/iv42iuwrQBjLJFCCTzEp9Xeu/P70E9x6ZMU9v2zfWTxDbCHAc7q6lmYGZRClaML7I8NVSsnrM0qZvpQ1gkElmgiSp3Myqzzaeo7sQ0B/+vvEZvwAHgRBmsKWTgZlEFmXLtxk6hx7bbyTv5fcxgUUXbVJTU0+fPp2RkVFfXy8SiaRS6bhx4/ROQoEQOn78+K5du3g83uHDh4VCYceXiouLly9frtMex3GJRDJy5MjFixd3nA9wwYIF9fX17U85HI6trW1gYOBf/vKXJ02y3jsGZhKcwmY0kqQunc09uCeJ7kJAP/n3p5emzRk+f3EoDN46qJAkuX379vj4eBzHg4ODIyMjW1paMjIyDhw4cOLEiS1btvj6+uq8JSEhAcMwpVJ58eLFGTNmdF6nm5vb2LFj25+2tLRkZ2fHx8dfvXp1586dzs7O7S/xeLw5c+ZoH8vl8gcPHly4cEHbbMiQISbY3a5AJjEXoSF3fZmYcgMmPRpczvyaUVrU8No7URwuG0bJGyS+//77+Pj4YcOGvf/++w4ODtqFJEmeOnVq165dmzdv/v777/n8R/NcZGVlPXz4cNq0aRcvXjxz5ozeTPL09FyxYoXOwkOHDh04cODgwYPr169vX8jj8XRa/ve///3+++9Pnz79+uuvG2sfDQSfeIaSNSk2vH4SAmlwune7bPP/xVWVN6tUBN21AJOrqak5cuSItbX1Z5991h5ICCEWizV79uyFCxe6u7uXl5d3fEt8fDxCaOrUqeHh4dnZ2QUFBQZua968eSwWKysrq+tm2gOshoaGHu2IUUAmMVFpUcMby45WlsvoLgTQprJc9t4bJ3Mzq5RKDd21ANO6cuWKRqOZPXu2lZVV51eXL1++devWjufQ5HL55cuXHRwcAgICJk6ciBBKSEgwcFskSVIUpXP9qbOioiKEkLe3t6H7YDyQSYzzx82i9944RZLQ92SwI0lq6wfnkxILIJbMW3Z2NkIoLCzMwPaXL1+Wy+XR0dEYho0ZM8bCwuLChQsajUEfksOHD1MUFRIS0nEhSZJlf8rNzT19+vTOnTu9vb3bLzL1J7iexCAkQZ04nPZrbBrdhQAG2R9zo7amdcbzATDPhbnSniKzs7MzsL32xN3kyZMRQhwOZ8KECadPn75+/XpUVFTHZgUFBQcOHGh/2trampmZmZ2d7ebmtmjRoo4tm5ubly5d2nFJUFDQW2+91e3hlClAJjEFQZA//Cfpym8w3wTQ9ev/7tbXtix9JZINty6ZIxzHEUIG3pZTUFCQlZUVEBDg4uKiXTJ58uTTp0+fOXNGJ5OKi4sPHTrUcYmNjc2yZcvmzJkjEj12W5VAIHj77be1jzUaTVVV1aVLl1auXPn6668/++yzvd6v3oFMYgSKov7z1dVb1wrpLgQw1JXfHshb1WvfHo9hMDKeuZFIJAihiooKR0fHbhtrD5LCwsLKysq0S6ytre3s7FJSUqqrq+3t7dtbjh8/fvPmzdrHGo1m1apVNTU1U6ZM0QkkhBCHw9HJsxdeeOGtt97asWNHSEhIx17j/QB+dtGPJKmvtlyCQAJdu3Wt8Kstl+Amd/MzfPhwhNDNmzf1vkqSZHFxsfaxWq0+f/48Quinn35a2kFNTQ1FUefOPfHOehzHV69eLZfLd+/ebUhJbDb76aef1mg0d+7c6fH+9A0cJ9GM0JDbPr6QkVZBdyFgAEi7Xbr1g/NvfzAJ7lsyJ+PGjYuJiYmPj589e7aTk5POq0ePHt23b9+mTZuioqKuXr0qk8nCw8OnTZvWsY1Kpfriiy/Onj27aNGiJx1JR0REREREJCYmJicnh4eHd1uVUqnUrrm3u9VL8Mmmk0ZD/uuD8xBIwHAZaRX/2nxeoyHpLgQYjaWl5csvvyyXy9evX5+fn9++nCTJ48eP79+/39XVdcyYMejPE3dLliyJelx0dPSYMWPKy8vv3u1qjOY1a9bgOB4TE9Nt0shkMm3/8sDAQCPsYU/AcRJtCA259YPz2emVdBcCBpjs9MqtH5x/9+NoOFoyG88//3xdXd2RI0dWr14dGBjo7u6uUCjS09MrKiqGDBny6aefcjgcbeT4+Phoz/XpmDVr1rVr186cORMaGvqkrbi6us6dO/fIkSM///xzx452SqVy37592scEQdTW1t66daulpWXGjBk+Pj5G39muQSbRgySpbR9fgEACvZOdXrntowv/+CgaujyYBxaLtWrVqrFjx54+fTozMzMnJ4fP57u4uCxcuHDy5Mk8Hg8hlJCQQFHU7Nmz9a4hLCzMzc3t6tWrLS0tXWxoyZIl58+fj42NjY6Obu+5p1QqY2NjtY8xDBMKhd7e3tOnT580aZJR99IgMC44DSiK+mrLpbTbpXQXAga24BEu//f+REglo6NrXHDzBnNVMJRaRXy7/Rr0sgNGEfGUx5q3xsPU6cZlojn9YP4kQzIJzkf3K3mr+se9tyCQgLHculb4/e6bBHR5GAgGcyAZDjKp/8iaFKeO3oORGoBxXfntQdzxdI0aYgmYA8ikfpJd3pSXXRP3SzrdhQAzdOy/qck3CjVqmNgCDHiQSf1BptSIBJxhoU6zXgiiuxZgnv7z1dW8nBo4iQcGOsik/mDJw5d8n7zpVMa8xaErXh/b/RsA6Ll/vv9bdVUzBbOcgIEMMsnkKAq9c/yeTKm5nFu95Ifk4LHu73w8me6iBgDo4txTJEl9teUiTLYEBjToC25aTQp1Qkbl1t9y2pfYCrl7/hrGalV/8MYpGgujEYYhBycrqaOlnVRkayeytRPa2YssxXyBgMPj4ziHjbNZGAvDMERRiKIogiA1alKpULe2qptlysZ6RV1NS2WFrLqiuapCVlneBB/hjoJGOK/bMIHDgcmWes9EfcEHObg/iX5NCnVuVfOqn/UMrBuzINRLzP9iw7nqSvOf4NzCkjdkqMTD29bHz97Nw8bWTihvVWvUJMZCXB7O4/VyMBGVUkNRiMtj19W0Fj2se5BTU5hX9/BBbbNMadz6B5xpc4bPWRAsEHLoLmSggkwyBcgkmpEUapCrZuy+rnzCZecNk4dFD7P/Ycf120nF/VxbP7CRCP0CHQJDnPwCHaxthfJWNZfH7nX8GEKlItQqgs/H6+vl6allmfcrs+5X1te2mm6LTPb3jc8EhTnjMAdgr0AmmQJkEv3WHb17Na+2iwZ/Hen62tPep2PTTh29329VmZSPv3REpGv4GA8bW4FSSYgsuLSUQVGUTKbk8zk1lc1/JBXf/aM0N7OKlkpo9NXe5yX2urO3AUNAJpkCZBKdCJL65vf8H5K6H69hgo/9tueDEs8/2B9zox8KM5FhAQ7hY9wjx3uyWBiOs/kCBo3t29KspCiEKHTreuHNxILBM+6tp7ftR18+R3cVAxJkkilAJtGmVaU5l1m15UyWge39HS2/WRBaklOz9YPzJi3M6BycLMc8PSRq0lAOl41hyNKKT3dFXZG3qjUaQqUkfr/w4MaVh5Xl5n8lb8pM/3mLQ/l8Bv1EGBAMzCR5q7pHF+2aGhRW1oz+P2JSkEn0UGnIB9XNS3/8g+zJX6y2Mx67Vb15gHTGGxHp9sxUX78AB7lcJbYeYD8n62pbLSy42RlVF8/kmOXFvI7e/mBSQIgTDNLaIwZmUn5u7UfvxBu4zsBQp1ffiRKKujqbfffu3bi4uIyMjPr6eg6HY2trGxISMmPGDG9v7/Y2eXl5q1evftIa1q9fr51gYubMmWKx+KefftIu//TTTy9fvrx3715PT08DCzY6AzMJfkAZGYXQJ2eyehRICKG6VtUL+5O+WRC67bt5n//jTG1NVzOg0AjDsEnP+k6d6c/hsfl8DpfH5vIGWCAhhGwlQoTQsOFSDy/bxX8LT/g1/UJCjrn+OIvZ+vuX3861sOTRXQjoCkEQ27dvT0hI4HA4QUFB4eHhKpXq4cNU3yKyAAAgAElEQVSHp0+fTkhIeO2112bMmKFtKRaL586d23kNZ86cUSgUjo6O/Vu48UEmGZNCQ+y5+jC7qrl3b3/1cOp7U4d9uGPGd/++dudWiXFr6yMulz1llv/0OQFKhdrWzhyunHN5OJeHI4RmvRA0b3Fo3PH0cyczVSpzGzJOIVfv3X59zdvj4Qwek3333XcJCQlBQUEbNmywt7dvX56env7xxx/v2LHDx8dn2LBhCCE7O7u1a9fqvP3kyZNyuXzBggUBAQH9WrcJQFdRo9GQVG5Vy8Gkor6s5LOz2ftuFq555+nnng80VmF9hGHYc88HxBxcMHWmv8iCax6B1JHYRiAUcac857fzhxeeez7A/MaPSE0puXHlIdy2xVjV1dXHjh2zt7f/5JNPOgYSQiggIGDjxo3PPvtsF8fx+fn5e/bs8ff3X758uemLNTn46WQ0OAvbcdkI81D8N7m4tEGx7cUwB2fL7+jujPfMVN95i0MoEvH4OM+sf2iLbQQIoWfnBEyfG3D0p9RLZ3O6fcsA8v3um6HhLnRXAfS7cuUKQRCzZ88WCoWdXw0ODg4ODn7Se+Vy+ZYtW7hc7saNG9lscxi8A46TjKNVRey/UXC7uMEoa7ucW/3iweTQpzze+SjaKCvshaARzp/tmDn3r8GWVvzB01nI0opnYclbuHTEv3bNDgpzprscY/ou5qZSAUPhMVFOTg5CKCwsrBfv3b59e0lJyVtvveXg4GDsuugBmWQc1c3KfdcKjLjCzArZ/H1JIherT3bMNOJqDWFtK3h9/dOvvh3l4m494PrUGYVAyHF0tnr1nahX3x5vbWMmfwNpt0vvpZbRXQXQo6GhASEkkUh6+sYzZ85cuHBh1qxZ48aNM0Fd9IBMMgIKoa8vPlARRp66pq5VNX9/UilBfnlgvo1Ez0G9KTwz1XfbnrkhI1xgtDSBkBMY5vzFnrnPTPWluxbj2Lv9OhwqMRCO4wghknzsC2TDhg2TO5g+fbrOu4qKimJiYry9vbvoGj4QQSb1lUJDnkwrT8yrMdH6Xz2c+nth3ZaYWSEjTXs9wN7BYsMnU154MYzDYXO45nBiuu+EIi6Xy35+Uci7H0+2k1rQXU5fKeTqwwdvq82ub+FAZ2dnhxCqrHxshJHIyMgZf9Lp+IAQUiqVW7ZsYbFYmzZt4nDM6ucjZFJfNSs1O68YoWtDFz49m73vZsFrGyY8O3e4iTYxfqL35zGzvH3t6BqhjsmsxHxvX7t/fjNr3ETv7lsz2/n47MoK8x/AYmAZPnw4QujWrVsdF86ZM2fdnzw8PHTe8s033xQUFKxbt87V1bX/Cu0XkEl9otKQX1/MrW9Vm3pDP90q3nAyfcFLI19eO9q4a8YwbPWb4/66fBQcHnWBx8c5HPai5aNWvDF2oHcW37v9GmHs88ygL8aNG8fj8U6dOlVTY9DplkuXLiUkJEydOlU7ZIOZgUzqPZJCSYV1ZzL6aUzPy7nVLx1MDhvv+c6HRvsgenjZfvGfOaHhLnB4ZAiRBTd0pMvnO2d7eNnSXUvvFeTVMe2O7EHOwsLilVdeaW5uXr9+fVHRYzc4KpXK2NjY1NRUKysr7ZKysrKvv/7a3d399ddfp6NYkzPnO05MDcPQfxIf9ucWtZ3xvv1r2Gc7Zr7X55Hxxjw9ZNW6p2AktB6xFPMFQu6H26Z/u/3ajSv9+q9vRPt2Xg8d5YLDXLSMMXPmzMbGxoMHD65cuTIwMFA7Kl1FRcX9+/dbW1v9/Pw2btyobblt2za5XO7g4LB///7O65FKpfPnz3/SVv73v/+1Z5sWh8NZuXKlMfekzyCTekmuJs5nVWX1+yyx2s543ywI/frA/I/fju/1nHVz/hL87OzhEEi9gHNYCKGlr0Q6OVv98vNdusvpDXmrOv7XjGfnDIcp0pljyZIlo0ePjouLu3v3bm5uLkmSEonkqaeeioqKGj360Rn7qqoqhFBycnJycnLnlfj4+HSRSRcuXNBZwufzmZZJMC54LxEktej75AfVvRzaru82Th02dZh099bf793p8U0nf3ttzMjR7nC+ro9amlVZ9yt2/PMK3YX00s4fXrASD5a7oXuErnHBzRvMVWFCcjURn17x2dlsest4McL91SivowfvnDmRYeBb+Hz8jQ0TvH3tGTXt3sDV2qIqLmz46uMLigF4389TE7xeWh0JY7N2ZqI5/WD+JEMyCfo49AbOwn5Oof8q8Y+3itafuL9w2YilqyMNaW9tK9j4+bThwY4QSMYiFHHdPKw3/XOate3AG+7h2uV8WaOC7ioGkcEcSIaDTOqxVhXxS2rZw1pGTHF0ObfmpYMpo54e8tbmbjrjSR0tN30+zX2IDTbQ+zIzjFDEdXSx2vDJFKlj978BmSb24G2VcuAd4QEzBpnUY2wW9vMfDJqcNLNCNm9fkqWH+JPtM57UxtHZ6t0tk+0dBvxIBMzE4bAdna3e/Xiyo7NV962ZJPlaYUM9HCoBBoFM6pkWlebI7ZLiejndhTymrlU1f19SGUX9W9/IeFJHy3c+jLazN7d5j5jGTip658PoAXe0dPSnO+Y3kyEYuCCTeoaFYbG36b+SpNfa2NTLhfWffTMrIOTR/Mc2EuHbH0yyk0Ig9Qc7qeidDycNrGtLSVcLmhrgUAkwBfvDDz+ku4YBo0VJxN4uuZBdTXchT/R7Xg1BoXUvjVK0qvJyavh8fP2WyY4uVnANqd+ILHgBwU43ruRrNANm/B6FXB0Y4szG4RdqG4qiCIIws7FNaadSqXg8XrfNoC94DzQrNS/sT6pi/BzSTw+12/Z80KUzOa4eNp5etuY9PywDURRKu1361ZaLdBfSA3CvUkcm6gs+yEFfcCNrlKuP3y1jfiAhhK48qHnxh5TwCV5DvCGQaIBhyMfP/m+vjaG7kB4482sGTK0EmAAyyVAiHn4us5+GW+27p7wkGIZxeRBI9BCKuKHhrnP+Ekx3IYZKOJGBwUBTgAEgkwyi1JAphfUZA2TimXAPm5VPeVrCERKtrMT8qTP9xzw9hO5CDEKS1JVzuQq5yWddAaBrkEkG0Q4mRHcVBpGIuP+cHchhw78s/YQi7qo3nhooE1ucO53Fho8NoBt8BA2iJsjfsqrorsIg/5wdKIKp+RhDoyFW/984uqswSFWFLDu9Evo8GU7d1LPBXOSV9SaqxJzA6Z3uNSrUp+6VqwbC1JyvP+09zMECDpKYg8vDRSLuy6+OPvDNTbpr6d5vcdlDfOxgwHgDNWaXnIpca2Bj58kjn4ndrPel4uLi5cuX6yzEcVwikYwcOXLx4sVSqbSLlh3FxcVxuVydZmw229LS0tPTMzIycvr06UKh7m31CKHS0tJjx46lpqZWV1djGGZvbx8aGjpz5kztTE79CTKpe5Y8fEAcJE0aZr8o3I0LgcQwYhvBiAi33Mzqqxfz6K6lG6kpJeRA+O1lltzc3MaOHdv+tKWlJTs7Oz4+/urVqzt37nR2dm5/ydnZOTJS/7DLbPajcyTtKyQIor6+/t69e3v27Dl8+PD7778fFBTU8V0JCQk7duzQaDS+vr7PPPMMSZL5+fknT56Mj49ft27dtGnTjLyrXYJM6gZJUbcK63OqaJsnyUBDJKL3n/WHQGImKzF/6SsRWfcraxj/Qbr++8MpM/zgJuv+5+npuWLFCp2Fhw4dOnDgwMGDB9evX9++0Nvbe+3a7o/PdFZIkuRvv/22c+fOjRs37tixo/0AKCUl5euvv7aysnr//fdDQkLa29+9e3fLli1fffWVt7e3j49PX3atR+ArrButKuJkWjndVXRv07RhHOjLy2BKhcbAKUXodSE+myDgmhJTzJs3j8ViZWVl9X1VLBZr6tSpb731llwu//bbb7ULKYr6z3/+Q1HUBx980DGQEEIhISH/+Mc/hgwZUl7er1+AkEndaFURzD9xtyTC3cNWxId5rBnMUsz38LJ5Zqov3YV0o7JcVjVA7nkYDEiSpChK7xWg3nnmmWeGDBmSkpLS2NiIEMrLyyssLAwNDdU5m6cVERGxZ8+eqKgoY23dEJBJXWlVESfvlZHM7orkaMVfMcbTRghjczGd2Fqw6G+jrG2YPmLN7xfySJLRn/nB4/DhwxRF6RzB9NHIkSMpitIee2n/DAsLM+L6+wiuJ3VFyGWfy2T6QdKKsZ4ITtoNEBRJvfRK5I5/Xqa7kK5cPpvzl6Uj6K5i0CkoKDhw4ED709bW1szMzOzsbDc3t0WLFnVsmZiYOHny5M5rWLVq1QsvvNDthiQSCUJIe5yk/dPOzq6PxRsRZFJXMiqa8moYMZ/sk4S6Ws8KcmLDlaQBgsfHA0OdgsKc790po7uWJ5K3qgvy6jy9B8atvmajuLj40KFDHZfY2NgsW7Zszpw5ItFjc83o9NBr5+fnZ8iGlEolQojL5SKEcBxHCDFqJG7IpCeqkimv5NbQXUU33nxmKATSwMLj44tXhK9/9QTdhXQl8cIDN89RMKxDfxo/fvzmzW03MGk0mlWrVtXU1EyZMkUnkNATeugZrrKyEv15tKT9s6KCQYPUwGfuifgcVnIRo++7fna4o5cdTNY38FhY8hje2eHqpXwIJBrhOL569Wq5XL57927jrpkkyaSkJIFA4OvrixAaPnw4QujmzSfe0F1QUGDcAroFH7snUmrIuyWNdFfRldcneAthGKEByNKKN29xCJPvAVLI1UUPGf2DzOxFREREREQkJiYmJycbcbW//PJLXV1dVFSUdno9Z2dnPz+/Bw8eXLlypXPjrKysVatWxcTEGLGAbkEm6des1DD8xN3Loz04bOZ+qYGuaTTk9LnD6a6iK9cvD6Spcs3SmjVrcByPiYlRqVR9XxtJkidPnty3b59YLO546u/VV19lsVhffPHF77//3rF9amrqxo0bcRyfPXt237duOLiepJ9SQzL5xJ1ExF09zguHTBqwbGyFM+cH/XY6S6Ui6K5Fv1vXC+e/yKAuwoOQq6vr3Llzjxw58vPPPy9durR9eV5e3q5du/S+JSoqKjAwUPu4oKBg3759CCGKourr69PS0iorK+3t7T/66CNra+v2t/j5+b333ntffPHFli1bPDw8/Pz8WCxWfn5+dna2hYXFZ5995ubmZsq91AWZpJ+NkJNSyNxMmhnkVNuqcrDsfnJ7wFhyuXrKLP/TR+/TXYh+tdUtsiaFja3R7tYEvbBkyZLz58/HxsZGR0e7uLhoF5aVlR0/flxvexcXl/ZMKi4ujo2N1T62sLBwcnKaOXPm9OnTO09A/vTTT/v4+Jw+fTo5OTkxMREh5OjouHjx4lmzZtna9nf3S4xRvQCZI6208eWf/qC7iic6tXqss5hPdxWgr1qaVa++GMvY/4Kr/2/cmKiBMSehcREEoVKpBIJu7m6uSc7u6bjgXGuLPlc3UMlkss5x2BkcJ+nRKNdcyKmmu4onmuwntRbAqA3mQK0mJj077Hx8Nt2F6HftUn7kU54sOEX8BHbhw14mLxjeHuZPMgT0cdCDxUJJD+voruKJFo1yg+525sHaRjBtNnN7Oty7U8bgvoEDj8DBhu4SBgDIJD0IksqtZuicAj72FgFOVnRXAYyGy2WPiOzXa8g9UlEO47GCfgWZpIui0OVc5p64+8soV7pLAMbEF3ImTmPu/bOZ9xh0hz8YDCCTdDXI1dfyaumuQj82C5vsJ4XBhMwJj4cPC3BwcOr+2i8tbiYWwBjhoD9BJunisLH08ia6q9BvZqAT3SUA41PK1WOeZmj3ttzMKhb8BgL9CDJJj0qZku4S9FsU7ibiQldJc2Mp5k+Y0n9zS/cISVI1lQy9tgrMEmSSrmym/g8McRHDPUnmis/nDAtwoLsK/XKymHt5FZgfyKTHNMjVWZUM7WgUNdSOA0M1mymBkDPp2WF0V6Ff2h+lBAx8B/oLfMc9Rqkhc6oYmknjve1wOLNvvgJDGXqxsCCvliAgk0A/gUx6DI/Nyqli4rk7IZftKYGRx8wZhiEffyndVehRXtrEggN00F/go/YYayGHmZkU6WkLHXLNGxtnhYx0obsK/WqrW+guAQwWkEmPKaxrpbsE/Z4LdIQTd+aNx8NHjWbogA6lxQ10l8BIZA876BIM/XphFOhY/AiF0L0yhk4sG+IiprsEYHISqYW1raChTk53Ibryc2pGRDA0L+mkqafKfzK0Md8Ds5/VxetJSUlxcXHZ2dlNTU0YhkkkkqCgoIULF3p4eGgbFBcXL1++vIs1xMXFcblcvc1wHJdIJCNHjly8eLFUqnuK+O7du3FxcRkZGfX19RwOx9bWNiQkZMaMGd7e3jotCwoKjh49eu/evZqaGoIgxGKxt7f3nDlzIiIiDPpLMABk0iNNcjUzT9w5WvFhIPDBQN6i8g9yvHHlId2F6MrLqSFJCm6eNZ1Dhw4dOHBALBaPHz9eKpWq1eq8vLyLFy9ev35969atvr6PRp9ydnaOjIzUuxI2+9HQzG5ubmPHjm1/2tLSkp2dHR8ff/Xq1Z07dzo7O2uXEwSxffv2hIQEDocTFBQUHh6uUqkePnx4+vTphISE1157bcaMGe0rSU1Nfe+99zAMGzt2bHR0NJvNLisru3r1akpKyhtvvNGxZV9AJj1CIcTMTJo4zJ4F4zMPApZW/GHDpQzMpPLSJoqkEGSSachksh9//NHZ2TkmJqbjDENJSUmbNm369ttvt23b1r7Q29t77druJ23y9PTsOMG5ljb5Dh48uH79eu2S7777LiEhISgoaMOGDfb29u0t09PTP/744x07dvj4+Awb1naXwt69e0mSjImJGTp0aHvLF1988dVXX927d+/EiROFQiP0w4JMesSShzMzk6b4MbE7FjA6FhsLDHWmuwo96mtbEeSRyZSXl2s0mlGjRulMeRcZGfnuu+/a2dkZa0Pz5s374YcfsrKytE+rq6uPHTtmb2//ySef6MRJQEDAxo0bL1y40HHS16KiIjc3t46BhBBycHDYsGGDSqXCjPS7GTLpEZlS0yhX012FHj5Shg7QCYzORiK0sOQ1M290K1mT0tqmm3lXQe84OjoihNLT05VKJY/H6/hSdHS0ETdEkiRFUe3xc+XKFYIgZs+erff4Jjg4ODg4uOMSJyensrKy8vJyJ6fH7qUbOXKkEYuEfnePFNQysVeMr9QC/pEGj9YW1ZChErqr0AO6g5uOlZXVtGnT8vLyVq9effTo0fz8fJI0yU3Khw8fpigqJCRE+zQnJwchFBYWZuDbFyxYoFQq165du2/fvrS0NJVKZYoi4TipDUlRVTIF3VXo4WUngjuTBg8WC/Pwtr13p4zuQnRVljV5+xrtJBLQsW7dOjs7u19//XXPnj0IIQsLi5CQkMjIyIkTJ+ocOSUmJk6ePLnzGlatWvXCCy+0Py0oKDhw4ED709bW1szMzOzsbDc3t0WLFmkXNjQ0IIQkEkN/A0VHR2MYdvDgwdjY2NjYWA6H4+/vHx4eHh0dbcQTjJBJbZQaslGhobsKPTwlQh4OR0qDhYUlz82DiTNkFxXUj+2+FeglHMeXLl26ePHi+/fvp6ampqWlJSUlXbt27bvvvtu0aVP7kQ3q1KGunZ+fX8enxcXFhw4d6rjExsZm2bJlc+bMEYlE7RtFCOkck23YsCElJaX9KYfDiY+Pb386adKkSZMm5eXl3blz5+7du/fv309LS/vhhx9WrVo1d+7c3u9/B5BJbTQkxcyLSb72cDFpcGHsuTulQsPjwzeGCeE4HhoaGhoaihBqaWlJSEjYv3//li1bDh482H7JR2+Hus7Gjx+/efNm7WONRrNq1aqampopU6a0BxJCSHtwU1lZ2bHHXWRkpPb6FkIoKSlJeyylw9vb29vbe/78+RqN5tatW//+97937drl6+sbEBDQyz3vAH6AtyFIqoGRmeRuCxeWBxepowUDe/7X18lhJNb+JBKJ5s+fP3v27MbGxvaecr2D4/jq1avlcvnu3bs7Lh8+fDhC6NatWx0XzpkzZ92f2m/X7WLNY8eOffPNNzuvp9cgk9pQFEOPk+wteN03AmaktUXt4GRFdxW6GuvlbBiJ1TSOHDny9ttvNzbqGUSGw+EghBSKvl7qjoiIiIiISExMTE5Obl84btw4Ho936tSpmpqabtdw8+bN9957r+NpPaMXqQUfskcYmElsFmbBg7Mlg4tGQ0gdGXfCtqlRgXPg68Ik5HL53bt3t2/frlY/9hVUXl7+22+/4TiuPaDpozVr1uA4HhMT095fzsLC4pVXXmlubl6/fn1RUVHHxkqlMjY2NjU11cqq7eeRUChMTk7etWtXdXV155YIoY4XvfoCvu/asDCMgefuXK0FKoLkwu/TwYSDs+2kou7b9S+FXG2smyKBjoULF6ampiYmJqalpUVGRkokEoIgSktLk5KSCIJYt26dtbV1e+O8vLxdu3bpXU9UVFRgYOCTtuLq6jp37twjR478/PPPS5cu1S6cOXNmY2PjwYMHV65cGRgY6OnpiRCqqKi4f/9+a2urn5/fxo0btS2Dg4MXLFhw+PDhZcuWhYeHu7i4sNnsmpqamzdvymSySZMm6e150QuQSW1wFsbA4yQXawGCnuCDjNCCa2vHuExCCKmUGj6Mu2gCPB7viy++OHv27KVLl5KSkmQyGY7jdnZ2EydOnDNnjo+PT8fGZWVlx48f17seFxeXLjIJIbRkyZLz58/HxsZGR0e7uLi0Lxw9enRcXNzdu3dzc3NJkpRIJE899VRUVNTo0aM7vn3lypUjRoyIi4vLyspKSkpCCInF4oCAgClTpowfP75PfwUdYB2HjhjMVAQ5ZedVmZJZ3cFfCHP5x2RfGOxusLl+5eGer6/SXYWund+/YGXNp7uK/kAQhEqlEgi6616kqujxuOCswXt5WCaT6QyepBccJ7XhsFlMCySEkJedCAJpELJhZGdLJfP+g9CM64h5vN2D9jB/kgHgQkUbuYqguwQ9PGyZeA4HmJqFFRN/TSsZeVP5QMI2wrDZZg8yqU2rion/36yFcPp+MBKJuHSXoIdCwbgLrsD8QCa1YeCJO4QQB2asGZR4fCb+FoHjJNAPIJPaECQT+3pw2JBJgxGHy+6+Ub+DTAL9ADKpDZuRRyRsFvwDDUY4I0fdVTHymiswM0z86NMCZ+S3Pwk99QclZt6dqmLkNVdgZqAveBuckcdJEEmDE4ahH359ke4qAKABZFIbFiMzCY6TBidCoToofJbuKnSN/PRvwRsW0V0FMHNMPGFFCzhOAsyhamLiROO4aFAM4gDoBZnUhs3IM/hwnDQ4qRsgk8AgBZnUhpFdHCCTBilFrZ6pdGiHCyGTgMkx8puYDszsCw6RNDjJK+rpLkEPXMDEEY/opJb3rL2yyTR1mBXo49CGmUOdKjRwR8hg1FrW/byf/Y8thEx6XHMFeXmLgW0xaQAWsaaLBklJSXFxcdnZ2U1NTRiGSSSSoKCghQsXtk9AXlxcvHz58vHjx2/evFnnvY2NjfPnzw8ODv7yyy/bW+q0wXFcIpGMHDly8eLFUqm0ffmCBQsIgjh27FjHxsXFxW+++SaGYV9//bWrq6uB+2gUkEltmHk9qbCuNchZTHcVoL+1lFR336jfwXGS6Rw6dOjAgQNisXj8+PFSqVStVufl5V28ePH69etbt2719fXtxTrd3Nw6zrPX0tKSnZ0dHx9/9erVnTt3Ojs7P+mN1dXV69evJwjiyy+/7OdAQpBJ7ZjZF/xBdQtJUcw8hgMmQqo1yhomXk9iC5g4MqwZkMlkP/74o7Ozc0xMTMcZhpKSkjZt2vTtt99u27atF6v19PRcsWKFzkJt+B08eHD9+vV639XU1LR+/fqmpqZ//etfXl5evdhuH8H1pDaMjCRU1ihXaEi6qwD9ilRrFDVMvPDAs7WiuwTzVF5ertFoRo0apTPlXWRk5LvvvrtkyRIjbmvevHksFisrK0vvq3K5fOPGjeXl5R999NHw4cONuF3DwXFSG2Yei5Q2KGDu88GGIkhrf3dcxG8prmoprm4prqIIRvwuEUit6S7BPDk6OiKE0tPTlUolj/fYCdLo6GjjboskSYqihEI9MzlpNJoPP/wwNzf3/fffHzFihHG3azjIpDatKsJZzC9rVNBdyGPKGuVcRg7HCUyHhSi/ZdEskZAtFOAWAk2zorW8prmwqim3RPawXJtSLcXV8oq6/qwKY2EsLnxdmISVldW0adPOnDmzevXq5557bsSIEZ6enizT3J5y+PBhiqJCQkJ0lpMk+fnnn9+5c+fdd9996qmnTLFpA8GHrI2GJJ3FAqZlUpNCQ5AUM8eYACZCadQCVwdVWYU8I1Oe9YBobuY5O1q5u1hP8Gc9F84SidgiPi7iK6oaWktrZA/LG7NLWkqq2rNK1dBsiqpE7g4auYrLZeLETmZg3bp1dnZ2v/766549exBCFhYWISEhkZGREydO1DlySkxMnDx5siHrLCgoOHDgQPvT1tbWzMzM7OxsNze3RYt0x4jasWPH77//zuVy27v50QUyqQ2GYc5iJt4SWNeicmJkYcBEWIQcU6k5rBaOHRKMcMbsXFh2zixLK4ogVGWVynv3FA8eqqtqEaIEfkPt3F2lgaMxkYjF5+MWQoSo1or6luIqWV6Z7GF5+9m/luJqQqHqS1UW7lKGnEI0SziOL126dPHixffv309NTU1LS0tKSrp27dp33323adOmjoc1Tk5OI0eO1Hm7SqU6d+6czsLi4uJDhw51XGJjY7Ns2bI5c+aIRKKOy5uams6dO/fSSy8dPnx48+bNu3btsram7TwtZFIbPs5ysRbQXYUe5U0KyKRBBZPYkZSSZTkUo4aylSqK1CCcgyESKWQcqpFjQ4hCHCnbEZidE9tSTFGkqrRClZ+vzC9UlVYQTTLc1kbg620Z4sp6JhDjCVgCHsdSqJa1tpbXNhdUNOWUtpRUtZRUt2eVgVWJ3OxZOBNnGjQnOI6HhoaGhqZwA7YAACAASURBVIYihFpaWhISEvbv379ly5aDBw+2XwEaOnTounXrdN7Y2NjYOZM63smk0WhWrVpVU1MzZcoUnUBCCHE4nK+++srPz8/Nze3TTz/96KOPvvjiCxynJx0gk9pw2Cx3WyZmUlalbIQbXFseRFRkVZ3ydNsTDBPwfHgsNw5LwrKyZFuJEUFSSgWiCExgSakUqLWJQzbgwlahvy01LhizkbIsrRCFNNU1qtIK5cMiVWm5qryKUih53p4i3yGSicMxm7EYX8AW8NgCrqKqoaWkuvlhhSy//NEJwJIaRXWDTlVWPq5wz2x/EolE8+fPr6mpOXbsWFZWVh87HeA4vnr16o0bN+7evbvzLbcCgcDPzw8hNGHChJycnCNHjuzcufPNN9/syxZ7DTLpEXcbPX1RaFdY19qkUFvx4Tz+YKEkijo8o+SaHDnK6diAx3XhsT25LIrNF2I8O5bEEalUlEKGOHxMaEU11VKyenZzI5/dwPcSotETMSs7TGSJsdmaunp1WYUi+baqrFJVXqGuqMI4HGGgv43PEMe54ZilGBPwcRGfIkh5ZX1LUWWj9qCquLq1pFrs5w7HSSZy5MiRpKSk999/XyzWvUGew+EghBQKI1znjoiIiIiISExMTE5ODg8Pf1KzFStWPHjwID4+3tvbe9asWX3fbk9BJj3iaMXEU2RljQoVAf3BBwsKkWqysus2SqJUSZR2XMLGxAKRD4/lyKZYLJGQZWGFXLmouZ4iCcQTYQhRTTVkYw3WIuOqW7nObGxUFLKwxgQijMPR1NarK6sUOfmqiip1ZZW6rFJdW891kgoC/ByHenKfCcBEIpZQwLFk4i828yCXy+/evbt9+/YNGzZoQ0irvLz8t99+w3HcWLcKrVmz5vbt2zExMXv37uVy9d8BzWKxNm7c+Oqrr+7atcvd3V17IrE/QSY9YsXHcRamIZkVAKklDXYiuH9+sNCQMjF3IoU0BNWkIkpVZKWa7P6SD0E1NqtTHu9vh4u4w7hsVxzjsAkcs5Gw7ZwQqaGa6xAuxPhCStFK1ZaSdZWYooVLEFwpCwsdjYlskEDE4nE1dQ3qikplUans8jV1ZbW6ospl81u4xMZUuz24LVy4MDU1NTExMS0tLTIyUiKREARRWlqalJREEMS6deuM1ePA1dV17ty5R44c+fnnn5cuXfqkZmKx+IMPPvj73/++ZcuWb775Rnv7VL+BTHqkWalxFguK6lvpLuQxrSriQXXzUHsLugsB/aFRpbxc9hsLY3laejsLXax5fhwWj6RUarJaRZSoyWoNZeCwQ5oWTXqLJr3jIj57CF/kwWFxWKSCxcMxZw/k5I5aGykKQxwBxuFRsjqq/IGmugypFDhFcuxErODRlFCMCYSknFm3SZgTHo/3xRdfnD179tKlS0lJSTKZDMdxOzu7iRMnzpkzx8fHx4jbWrJkyfnz52NjY6Ojo11cXJ7UzMfH5+9///vWrVs3b968fft2gaD/rrVjFEyH8KfqZuWH8Zk3H/brrYiGWBvltXiUG58DZ/PNX2ptyoPGbJ2FYo7YzXKIk9BGiAtZGJugWlVEuYosV5M1JNWnn1AcloMA9+KwHHBKiJEsjMVBLDZSNFEaNWLzMS4fkSTZWEvVlLGGBGD8wXL6jiAIlUrV/Rdx/cMejwvOGSx/h53JZDKdwZP0guOkxzDzFqWkgvq/jnSjuwpgcmpSXS3XczGpUd3YWJd6/88fS85CNxeRq73A1YrLxxClIeuVRImarFGTNRRS93CLlWrVY1tksywE+FAuzwVHAhahwlgclr0zshBSHBhPpBObIay53/WgPcyfZADIpEe4bJazmIndwf8oqmfmlIPAuEiKaFTpdsLurKy1uKy1WPuYy+J6WHo5Cz2suMP/PMtXqT2EUpO9mYSJIJubyVSkTm1fwlLhVtzxAvbQXqwNPIYHg9h2DzLpEREPZ+ZxEkIoo7wpDO5SMne1yh6niIpU5TZm5Ta2DfMs4dm5Wng4CAKtuTwWhmuoJjVRoSar1GSNwReidJFIQyES5hAA/QMy6RGchQ2Tdn+6kxaXcqu97S2s+PDvZbbUpKqitbT7dl2qVdZ0DDZ3iyHOIhcJ38OSxcUQpiarVWSF9hCqRxeiOCy7PhYGgIHgO+4xrjYCHs5SMm/KouTC+teivOmuApgQhrFqFEae8ryo+WFR80PtYyFu4WHp6SjwtOIOx1lckpKryWoVUWnIhSgcg8mOQT+BTHqMTKEOdhEnF9bTXYiunKrmmhYVY08tgr5TE6omAy4m9Vqrpjmz/n5m/X3tUweBk4uFu5QfYM3jsTGemqxT/3kIpXMhio3pDo8GgOlAJj2Gy2aFMDKTEELX82uj/aTWAhhkyAypSXVJS1H37YynUl5eKS/XPtbeDuUkdLHlDbHkcDCE1FSNiqjUkDVqsobNsqCQBkPwwQP9ATLpMSIeHulpu+96Ad2F6PFHccMzvvZ0VwFMAkOoqLmArq2TFJnflJvflKt9KubauFt4OAjdLTj+OItLUHIMg3vjQD+BTNI13JGh3Rwu51S/+Qz0xzVPLZqWemUt3VW0aVTV36urv1fX1h18oss0W56E3pLA4AH9O3VpSMqHkQP5qAjy+N2yZqWG7kKAkalIVW5jJt1V6MfCWDZcW7qrAIMIZJIukkJBLgy9te1MRqUARhgyO2yMXdLcrxeTDOcodCYogu4qwCACmaTLio+HuzP0h2FRfeuF7CoV87qqg14jKKK0uUhDMfTw10HghLPgDD/oP5BJeoS5MvdujON3y0gYNte85Mlyum9EEyfhE4eOBj09kV7XojJRJeYEfgHpIRZwHCx5lTIl3YXocauwPq+mJcCJoWcXQU8pCEWtsW+VNRYBLuSwYO6uJyqsa33pYIqBjSM9bf81O1DvSzExMSdOnFi7du3cuXM7LlepVKtXr66qqtqzZ0/7vBJJSUlxcXHZ2dlNTU0YhkkkkqCgoIULF3p4eOis9u7du3FxcRkZGfX19RwOx9bWNiQkZMaMGd7ej919v2DBgvr6trtfMAwTiUROTk5hYWGzZs1ycHAwcO+MCDJJD4WGCHS2qszufi41Why9U+puI7SEcYYGvmZNKwuhSOm4rIb7hoy+2s88LLwQgoNyk1u5cuWdO3f2798fERHRcU6jH374obi4+PXXX29feOjQoQMHDojF4vHjx0ulUrVanZeXd/HixevXr2/dutXX11fbjCCI7du3JyQkcDicoKCg8PBwlUr18OHD06dPJyQkvPbaazNmzOhYAI/HmzNnDkKIoiiZTJaTk3P48OFffvllzZo1/T/9OXyv6SHg4KPcbS4wNZPOZFS+GuVlCf92A59Mpf7wj7jZnsHjHKJUpDyz/n77faxM4Ch0huOkfsDj8TZs2PD6669v3br166+/ZrFYCKGsrKyjR4+OHDly5syZ2mYymezHH390dnaOiYnpOBFRUlLSpk2bvv32223btmmXfPfddwkJCUFBQRs2bLC3f3RTY3p6+scff7xjxw4fH59hw4Z1LGDFihUdS0pPT//888937twpEAgmT55sun3vDK4n6cFhY+EezJ3mWUWQx1LLmhQMvSoODCTXqI/k30YInShIeyfp1MnCB8NtR0xzm+VuMYTu0tpI+DD0aj8ZOnTo0qVLMzIyjh49ihBSq9Xbtm0TCoVvvfUWhrXNU1NeXq7RaEaNGqUzM15kZOS77767ZMkS7dPq6upjx47Z29t/8sknHQMJIRQQELBx48Znn32226lcAwICtm7dyufz9+zZo1D06xTDkEn6eUpEQyTMHebrTEalkAudwge2staG9PpHR0VJVQXv3Yr/T2aSq2jYLM8XhlkP57DoHM7Hmmcj18hpLGCwWbBgQVBQ0Pfff19YWHjw4MHCwsLXXnutY6g4OjoihNLT05VK3Uvd0dHRoaGh2sdXrlwhCGL27NlCoZ45bYODg998800/P79u63F2dp42bVpjY+OtW7d6v1c9B5mkH/H/7d15XFT13gfw31lmY4Z9YNh3EBFZZEdBUVGsCJXq+qhFj95Mvd1cMruldu1Gy+3e7CoEdks0S5+0xBYQEZ+MNDc0lkCRNWQTBGWbfTnPH/SYF1AGmJlzhvm+X/3B6/Cbw7ca+Mw5v9/5/jRUUgAN83taunlX8lVpa9cAE1dhAG3I1MqvGkqHH6/t7Xzj58KdVws4hMMit8WhwggBi57GInZcEQtWgRsQjuOvvPIKi8XauXPn0aNH4+Pj582bd/8ACwuLpKSk+vr6tWvXfvXVVw0NDRrNCI+F1NTUIIRCQ0MnXtKMGTMQQtXV1RM/lfbgPTcyEscW+Ntnn22gu5AH+vRSU6K/Pd1VgPFQaFQ1vZ0N/Q9cbtctE79fcYaNk2lTIuc4Lrir6L7RU9UlM+gEZ4D1dJhMMjCRSLR69eqMjAySJF988cXhAzZs2CAUCr/++uuPPvoIISQQCIKDg6OioubOncvhcAbH9PT0IIRsbXXQDkooFCKEenvHuRvk+EAmPZCTFW+ao0VVex/dhYyss1/+0bnGdXFe1mbQsNnIUBQ61jjCRdIQCo3q4+vnEUJLPUNmimYqNfLqnspWcbP+C0QERqopNbyxDIyiqHPnzmEYplKpTp8+nZqaOmQASZJpaWkrVqyorKwsKyurqKi4dOnSTz/9lJOTs3379uDg4MExCKEhl1CvvvrqlSu/L1tnsVgnTpwYtZ7Bm4RstkE/mkAmPRCG0KIAEWMzCSF0rKx10TSRFc/y3iwoYD6xUl5+p/WWZAzvq9zGstzGsjlOvkkuocG2YTd6qpr6G/Xa+sGOZ6+hoF2IoR07dqy0tHTjxo1FRUU5OTmRkZGurq7Dh5EkGRISMjiBJBaLCwoK9u3b9+abbx48eNDMzGzw4qajo+P+uaioqKjB6SiE0KVLlwavpUbV0dGBdHTJpT2YT3ogAsfmMn5viMziBhm0GjIqHII8/mvZOF74Q1vtXy5/t6+6xJHv+5h7aqBNCJ/UV7Ngbws/M5K5a3wmpcbGxpycnPDw8EcfffSll15CCL333nsjzhjdj8/nP/HEEykpKb29vYMTPwEBAQihIQsTFi9evOH/DX+69kHOnz+PELq3esIwIJMexsqMHcngReEIobKWnhNVtyCWjEWPQvp9W02fYvyLayvvtv31SsEbPxewCbsFro9F2sfacHS8YptP8kU8R92eEzycUql855132Gz25s2bEUKurq7PPPNMdXX1kSNH7o358ssvt2zZMuLsDovFQggNLtqeNWsWh8P57rvvurom1B/kxo0b586dc3R0nDZt2kTOM1aQSQ/DIvCkAAe6qxhFxg/1YtjAwkhYsrnfNlVM/Dyd0v6/l53ecP6rbjkxyzEh3nG+E99l4qcd5CJw1yD4lGNQ+/bta2xsXLdu3b0bbk8++aS/v//BgwcbGxsHj0il0vLy8t27dyuVyvtf297eXlRURJLk4BWSQCB4/vnnBwYG/vKXv9y8+R/95uVy+ZEjR8rKyiwsRmlOVl5evn37doqiNm3aZOCpAZhPehgcQ7N9hfhJjMltT/vlqn+dqduY4GPLh1VSjCZTKw/XlSg1Otv6QalR7712DiH0lNeMGFFUoHVIbW9100DDBKeCvMx9SQz+MhhOaWlpbm5uZGTkwoUL7x3Ecfyll15at27de++9N7gS7w9/+ENZWdnZs2crKiqioqJsbW3VanVra+ulS5fUavWGDRusrKwGX5ucnNzb23vw4MHnnnsuMDDQw8MDIXTr1q3KykqJROLv779t27b7C5DL5Z988sng1wMDA7W1tTU1NWw2e8uWLTpZUz4m2KgP9Jo4iUK9I+/aD7UM7TN0z4dPhYS4WHFZcOHLUP0K2aXbvw42btCTROepiS6+HIKs76tp6m+QqMTjOImDmVOMKI4w7UxSq9UKhYLH4z18WFV731h7sA5vU9nf379mzRqZTPbJJ58MX01w6NChAwcOrFy5Mi0tbbCwwsLCM2fONDY29vf3kyQpFAoDAwMXL17s6+s75LV1dXX5+fnl5eVdXV0ajcbW1nbatGnx8fHR0dH3D7u/BytCiMvl2tvbh4WFPf744y4uOrv4Hvw3HdKBYkSQSaM7Xd35yjeVdFcxCl87wScrZgg4Jv2nhLEUGlWruPfdskID/Kwwoetij+lCrvnNgV/r+2rHuqV6rGi2Dm8DGilDZpLpgEzSGalSvejDn/oZP2eTFCB6baE/H3oOMY9crXqnrLBdYrhnD1351it8w90Ftp3SW/V9Ne2SVm1excLZj7unYpipX21rmUljdUessDHhG+xaZpKpv/m0gWPYfGPomHDyWsfJqlsqDXzIYJZehexg7SVDBhJCqFl8992yog0XvrwlVUfaz5zv8oiHufeok9We5t5qeCxJb0w5kLQH10lauXlHsuTji3RXoZXP0yKmOtDTIQ0Md0cuKe26eVSf00jaWOETEWHnipBmcKpJqh65ueoitxT9PfNkRPR0nWTi4DpJl+wtuPOmMP352UErPy25K1GOPg7on1yt7FfKaA8khNChupKNF3JPtdS5CXwXuiaHCiOsOEMfvLPl2nFwLi3lAXAPZJJWuCT+dKS2Dz/TLk3reVegVxjCPqn+ie4qfneiufLlS998XnvFgiWa57woRhR//7OxPhZ+BA6TkYBmkEnamiISMHmjv/u19kr/dLQMbsrSq1smPlh7qVPaT3chQ13obNx+Jf+fFadVFC/OcW6C0wI3gQdCyJnvhiFonAhoBvNJ2qIQOlvXtemYDh7CN4z18V7PRLqzCPgrQ4O2gf7a/luH60roLmQUFixuml/0VGuRRCXmElzYnGIQzCfpA8wn6RiGUJyP0F9kNMsHsn5sYHJT80lMrFAjDT7b0XeqNdMbU/UpZRlVP6w/dwQhDgQSYALIpDGQKdVLQ5zormIMVh+6WtkGsWRQSrWmrVeanH3pu8r2jYFzo+096a5odLMdfTkEzCQBRoBMGgMei3gs0NHZ0piu6NM+u3Kjc4DuKkxIfZd4Wc5lhNDO/OtZP9Y/7Ru10CWA7qIehsDwJNdpbNjmHDADZNLYyFXqx6Yz/YbMEMv3X4ZYMoyq9r4VB36fQ9p3oen1vOsLXQKe9JpBY1UPF+/owyfhrh1gCsiksbHgsp4MdbEwtqZVg7EEq1n0qqyld3j3s8LrHWsOlYfZuv/RfyYtVT0cCycWuU7jEEb2fgaTGGTSmBE4eizQ+HY8W77/ck3ngAJ2/9OPspbe1Yeujvit6o7+lL0lrmbCLUHzDVzVqOY6TeESLLqrMFYasWRM41V3tdpx3MTBWvDxuNUnezT7PN1VjMfhZyOcrXjQPly3Sprurv2idNRhx56P4HOxt0tPSlQKA1Q1Ki7BeivicQGLQ3chjKPlWnBpdW3j8y9reU5+eIjLGy8TghF2lM/Nzc3Ozn7QCw8fPmxnZ9fc3Lxq1aq4uLjXX399xGF5eXm7d+9+0Ek+//xzkUikZal6ouVacPjbNB5WPNaz0e4HLjbRXciYLT9Q8llahMicAxsA6oRUqb7YeGfL8V+0GZz6UcmnaaHvRi5+q7SggwHP0i5wmcqGu3YM4OPjs2TJkiEHJRJJYWGhpaUlnz9CjD1IcHCwl5fX8ONmZmYTKtGA4B05HlwW8d/R7ieqbnX2y+muZcye/rRkR5J/gp+dJQ9u2kyITKk+crUlo7he+5ekfVr6Qer0v4Un/7PidG1vp/5qGxWfxUlw8mNDMyEGCAoKCgoKGnIwPT0dw7CtW7eOKU7i4uJSUlJ0Wp2hwXzSOLFJfO2sET6PGIU3T1bvPHGd7iqMm0ypTj95Y0yBNGjTsV++uNqyJWh+mNBNH4Vp6RFY2sBgeXl5xcXFqampkZGRdNdiaJBJ48Qm8MeDHKc5WtBdyDj9WNe19OOLfTKlQg2rHsbs5h1J2mdXC67dGt/L/3G65oMzdc9NnZng5KfbwrRkwebOcvAhTH7vPmZqaGjIzs729/dfvXo13bXQAN6U44ch9OfZ3nRXMX5NdyTzM85dvdnTL2P6FrrModJQ5+q7lnx8se72hB75+vzyzZePVy72CFnsEayr2rSX7DYdLpKYSSaTpaens1isbdu2kaQp/j+CTJqQ6c4WCX7Gsa/SiNQa6oWjZd9UtEkUarprMQIKtSazuH7DV7rpw3um5vbK/Vdj7X1WTYnVyQm1NM3aMcLeA1rzMtOePXuam5s3b97s4GBkz+briinmsA5xSeKFeO8zNbfpLmRCPjhTd6NzYEeSv0pDmbFh0nsEUqW6a0CxI6/qF532D2zsFs/ffT7vT1EvBc1/v+K0Ds/8EKumxPLgmSRGOnXqVFFRUXJycnx8/PjOkJmZmZmZOeSgtbX10aNHJ1ydgUAmTZSdOXtZmMsXV1voLmRCTlTdaumRvrZwii2fbWMGy8T/g1ih+qWtb0vuL1Kl7q8mNRT1SObFL5+L+Ft48tulJ2Vq/e4RvMw7nMDgGomJmpubMzIyvLy81q5dO+6TjLgWfEyryWkHmTRRfDa5ZqbnqeuddySMeBBy3Cpae5flXH5qhsu6OE8Sx+GCaVCPVPnGies/1nXp9ac8+XHJxytC34lMeaesUH/bAHpbCGNFXjCTxEAKhSI9PR0htH37djZ7/B8KYS04QAghNok/H2cEWxJo4+jPLY9mn/+ush1mmCgKfftL+7w9Z/UdSIOeO1R6trbnzfBkHwt9zVCm+UVDIDFTVlZWQ0PDiy++6OrqSnctNINM0gEei1ga7DTFeLb7eziJQv1eUU3aZ1dKmu6qNKbYekqh0pS29Cz9+OIbhn2K67VvKz+/fPPl4MRQoe7/MC10CTAjoY0QExUXF+fn5ycmJiYmJtJdC/3gQ5Nu4Bj20bLQObt/pLsQnWnoEq/9ojTWy/aFeG83Gx6PZRK38qRK9R2xIqO4vqianiYLH5ypa+2VvZIYd7iupLi9Vlen9TC3TfEIggeSGGhgYGDXrl0IIZIks7Kyhg8IDQ2NiYkZ/Lq+vn74mNjY2JCQEH3XaTCQSToj4JKZT4W8cLSM7kJ06XxD9/mG7scCHd54NKBHqrSavO2IlGqNTKn57PLNfRd+pbeSoz+3tPRId6XOsOHwj/+qm7fTE56haooiYHED84jFYolEghAqKCgYcQBBEPcyqa2t7fjx40MG2NnZTaZMgr7guiRWqDJ+qP+ytJXuQvTiyVDnNbM8eSxikl0zKdWaW33yY2Wtx8pamTOL5mTJPbI6orKnbV/1TxM81Xxn/4UuARZsrk4KMwUG7gtuIrTsCw6ZpGMailq+v6R2Yg/5M9lML9v18V5etnyCwCbBquKSprs5F3693HSX7kJGVvTn2C5l30QeXXIVWL8ashDu2o2Jlpk0Vqq7PaS1lW7PaUQgk2jT2iN9/KMLdFehX+42Zqti3BdOFcmUGnNj23VXraFkKnXhtc4DF5tae6V0lzOK42ui2Bz1O2WF43t06YVpczzNbWGTpDHRUyaZOMgk2shVmlPXO0yh8TaJY0+EOi8LcxVZcBCF2CSjP4yrNZRSQ3X0yY7+3GJczzjnrAzztuf+vfzUWB9detJrRpjQzZpjNHvnMARkkj5AJtFJolC/e+pGftU4+0YbHX+ReZyPbYKvnZ+9uVSpZtTztoPL2Ws7B87Vd11ovFPe2kt3RePxbkrg3CnC9ytO1/dp+7BUvKNvinsQXCGNA2SSPkAm0Uyp1jz96ZVJPLE0IiseK8rDJtHfPtzNmsQxHn3hpKGoHonyanNPQdWty0139dEWyMBenOOdFuW+99rZ0u7mUQf7W4k2TZ9ngKomJcgkfYBMol91R/+KAyV0V0GbIGfLmV62C6baO1nyeiRKNolZcPW4lFyloRQqDYahqva+72/c/r7m9u0B49sF+OGWhjhvWzjlWGPpqZaH3RkmMDw9IplPcqBrw/hAJukDZBL9xArVyWsdbxfeoLsQmgkF7OlOls5WPDdrnq+dwNmKZ2PGVlOUWkPhGMYa+1MzSrUGIcQicKlS3SdVtvfJbnQMVLT11t8WT/oL0zA3q73LQovba7+ov/KgMS8GznHhW1uy4U/qOEEm6QNkEiNIleq9Zxs/L7lJdyGM42DBdbbiuVhx3azNPGzNROZcFoGxCJzEMYQQRSENojQUoihKQyENRVEU6pUqm+5I6m4PtPbKWnukLT1StUm2PhLyOd+ui6662/bR9bPDv7vMOzxU6GoFgTQBkEn6AJnEFEq1Jv3kjbzKdroLAZPKmY1xnfLef5Sfuv9guJ3bcp8IPvS1mxjIJH3QMpMYvXh3cmAR+M5HpsZ5C+kuBEwqCf86K0CCv4Ul35s0smTznvOfBYEEjBpkkiFgGHorOcDZEj52AV16NPv8nT70VniKkCtACG0LTdLAbQ9g5ODeneG098oe23ue7irAZPOvJ4JjPK1Lu5unWjkKWLBHsA7AvTt9gHt3jONoyT34TDjdVYDJZuNX5bllbU48KwgkA1NqxtbtSaaW6amSyQQeXzAobyH/g9SgTccq6C4ETB5LQ5wemeYg4MDvsqENKPv+t/WkloNFPMdo0awRv5Wbm5udnf2gFx4+fNjOzq65uXnVqlVxcXGvv/76iMPy8vJ27959/xGCIIRCYVhY2IoVK+zt7bWsk3bwPjYoLouI9rD582zvjOJ6umsBk8HSEKeNc3z4EEjGzMfHZ8mSJUMOSiSSwsJCS0tLPn8M21uEhYX5+PgMfi0Wi+vq6k6cOHHu3Lk9e/Y4OzvrrGJ9greyobFJ/Nlo97rb4oJrptIND+gJBNLkEBQUFBQUNORgeno6hmFbt241MxtDC92YmJiUlJT7jxw7dmzv3r05OTk7duzQQa36B/NJ9EhPDohwt6a7CmDEUoIcNyZAIE1OeXl5xcXFqampkZGREzzV0qVLORxOeXm5TgozAMgk2uxdFjrTy5buKoBRSgoQvbpgCp8NJi1+3wAACy5JREFUgTQJNTQ0ZGdn+/v7r169euJnwzBMIBDI5UbT+xEyiU57ngye42tHdxXAyMz1s3sreRqLgF/eSUgmk6Wnp7NYrG3btpGkDj5zdHR0dHd3u7q6TvxUhgFva5q9v3T6ogAHuqsARmOWt+0/lkynuwqgL3v27Glubt68ebODw0T/LEil0oqKip07dyKEFi9erIPiDAKu/en3xqNT+Rziq9JWugsBTBfpbr37iWC6qwD6curUqaKiouTk5Pj4+PGdITMzMzMz8/4jOI6vXLlywYIFuijQECCT6Efg2Oa5vgIOeeBiE921AOZK9Ld/NyWQ7iqAvjQ3N2dkZHh5ea1du3bcJwkPD/fz8xv8miAIGxubiIgIkUikoxoNATKJETgkvirGXcAhM+G5JTCSVTEef4r3orsKoC8KhSI9PR0htH37djZ7/P04oqOjh6wFNzqQSUzBZ5NLg534bOLvRTV01wKY5a+PTH1kGkw6TmZZWVkNDQ1bt241osUIegKZxCCWPNa8KfYCDrkj7xrdtQBG4HPID58K9heZD251CCal4uLi/Pz8xMTExMREumuhH2QSs9jy2eFu1nuXhb53uqahS0x3OYBOU+wFWctCrXgsugsBejQwMLBr1y6EEEmSWVlZwweEhobGxMQMfl1fXz98TGxsbEhIiL7rNBjIJMaxN+eQBPbv/wp9t6jmdHUn3eUAeiT42f0T1nybALFYLJFIEEIFBQUjDiAI4l4mtbW1HT9+fMgAOzu7yZRJsH8SQ2koSqWm9l9s+vdPjXTXAgxtZYTbprk+dFdhurTcP+muvHusfcFZuOnuJ6Ll/kmQSYx2R6wob+199dsqpVpDdy3AQF5J9EsNcSZgAok+etrTT6aWcQmubs9pRCCTJok7EoVUoX7lm8rrt/rprgXo11QH85fm+fqLzHksgu5aTBrsM6sPkEmTh0KtITAs/WT1t7+0010L0JfUEOdNc33UGgp256MdZJI+aJlJ8O43AmwCRwhtTPDxtRe8/7+1dJcDdMySx9qU4LNomgMs+AYArpOMyR2Joq1X9uejZX0yFd21AN2I9rR5dcEUazM2nw3365gCrpP0Ae7dTU5Spbpfptr1fW0RLBM3fs/N9Fw7y5PuKsBQkEn6AJk0mclVmnP1XR98X9feJ6O7FjAebtZmf31kqr9IwIXlDMwDmaQPkEmTnEKtkSk1u3+o+7q8je5awNgsCnD4ywI/WMvAWJBJ+gCZZBJkSnVle98/TtfW3R6guxYwOldr3sYE31netrCcgckgk/QBMsmEyFWaf59rPHAJtl9iLg6J/3eMx9MRrnCzjvkgk/QBMsm0SJXqpjuS907XlLf00l0LGOqxQMf18V6WXBICyShAJukDZJIpoih0qOTmwcs3u8UKumsBCCEU5WHzwmwvL1s+pJERgUzSB8gkEyVTqhVq6lDJzS9LW3ulSrrLMV2etvz18V6zfYTQuc7oaJlJFKXAsDH0VNVQUhwz3ZyDTDJpYoVKpaY+L2k++nPLgBwesDUoPof8Y4zHsjAXksAhj4yRlpmk1NzukuVqeU4O4WLFTsRHyrDc3Nzs7OwHvfDw4cMsFmvVqlUEQezfv18gEAwfsH///pUrV6alpTU3N69atepBp3r55ZcXLFigZcE6B72FTBqfTSKEVkW7Lw93PVRy83+utsiUarqLmvzYJP74dMfnZnqac0g2idNdDjAOPj4+S5YsGXJQIpEUFhZaWlry+XwzM7M1a9a8//77+/bt27Bhw/3DOjo6Dh8+7OLisnz58nsHnZycoqKihv8gNzc3fdSvW5BJkxmPTfDYxB9nei4Pd/2spPl/rjTDnhd6IhSwHwt0XBbmwmeTZtAlCIxFUFBQUFDQkIPp6ekYhm3dutXMzAwhlJSUdPr06fz8/IULF/r7+98blpmZKZfLN27cyGL9vh+xt7f3+vXrDVO8zsFHucmPS+I2fPa6WZ5562KfiXKDm0m65WnL3zDH59gfo5+OdLMTcCCQwMTl5eUVFxenpqZGRkbeO7hx40aSJHfv3q3R/PbJ8sKFCxcvXkxKSgoODqapUt2DTDIVbBIX8tnr47wK/jTz+VmeInMO3RUZvWBny/TkgCOrI5eGOAk4pBWPNfprABhNQ0NDdna2v7//6tWr7z8+eIOurq7um2++QQjJ5fIPP/zQyspqzZo1NFWqF3DvzrSwCNxOwEmLcn822v18Q/fhKy1Xb96luyjjM8vbdmWE2wxXKw1FERgGXYKArshksvT0dBaLtW3bNpIc+r5atmzZmTNnDhw4MHv27K+//rqjo+O1117TZuGAEYHfJVPEIXGE0Bxfu1hP27Y+2fGytuMVbWJYnqeFRQEOaVFubjZmg/8NCQS3QoEu7dmzp7m5eceOHQ4ODsO/S5Lkpk2bNm/e/Pbbb1dVVUVERCQkJBi+SL2CTDJpbBL3sDF7YbbX87M8zzd277/QVN0BO6yPINDJIsHXLilAZGXG4pIwYwT04tSpU0VFRcnJyfHx8Q8aExgYuGjRohMnTnA4nCFr8O45e/ZsYmLi8OM5OTmurq46K1c/IJMAYhE4i0Dzp9jP9bNr7JbklrV+cbWF7qIYIdDJYqaX7cKpIgcLLkVR0IsB6E9zc3NGRoaXl9fatWsfPnLJkiUnTpyIjY0ViUQjDnjQWnCjuMsHmQR+h2OYt5C/ZZ7f+njvAbnq6M8tRdc7W3uldNdlaIFOFnHewkR/ewcLrlpDwVI6oG8KhSI9PR0htH37djZ7lN4QBEEghHD8gSvUjHotOGQSGArDEJ9N8NnEs9HuKyPcuCz81PWOk9c6LjdN8tUQgU4Ws32E8/1FDuYcNUXx4KoIGEpWVlZDQ8PWrVuZf29N3yCTwAOZ//9yspQgpwQ/OwGHLGvpza+6daHxTsdk2d/Whs8OcrKY7mQ5b4q9yIJDUb8tAAHAYIqLi/Pz8xMTE0ecBDI1kElAKxZcFkJohqvVdCcLikJ3JIpz9d2nqjtrOvr7jW3BnpeQH+hoEeFuHeJiZW/O6ZepzNgERBGgxcDAwK5duxBCJElmZWUNHxAaGhoTE2PwumgDmQTGhkXgCCEHC+4Toc7J0x3ZBN4rU9bdHiht7rl+q/9G58At5l1CkTgW6GQZ4mIZ62k7RSQgcUyloe49VGRtBs+6AtqIxWKJRIIQKigoGHEAQRAmlUnQFxzojEypJnBcQ1EtPdJr7X0lTXerO/vrb4sNXIa1GUtkzhWZc+zNOYFOFsHOVq7WPJlSw2FBk26gFQP3BTcRsFcFoBlFIZVGQ+L47QF5Z7+8W6zoEstvDyi6BuR9MmWPVNUrVQ7+oxh7Z9j7g8fFiudmY+ZowRUKOBZcUkNRKg2FIcQmcRyDGAJjpqc9/WD/JNirAtAJw3670WdvzrG/r72eWkOpNJRGQyEM4RjGIjC1hpIq1QNytVihIjCMwDESxwj8ty9w7LevcQzDMYTjGIFhcpVGqdZgCLFInE38x1QQgTBYMQcYyJQDSXuQScDQBgPm/iM4gbEIfHAZhZY4JA6rEgCYfOC3GgAAAFNAJgEAAGAKyCQAAABMAZkEAACAKSCTAAAAMAVkEgAAAKaATAIAAMAUkEkAAACYAjIJAAAAU0AmAQAAYArIJAAAAEwBmQQAAIApoAcrAAAM1d/fr1IZ2QbKDEcQWrXrh/2TAAAAMAXcuwMAAMAUkEkAAACYAjIJAAAAU0AmAQAAYArIJAAAAEwBmQQAAIApIJMAAAAwBWQSAAAApoBMAgAAwBSQSQAAAJgCMgkAAABTQCYBAABgCsgkAAAATAGZBAAAgCkgkwAAADDF/wGRXOwW6GMk/gAAAABJRU5ErkJggg==;" parent="1" vertex="1">
          <mxGeometry x="399" y="760" width="146.48" height="100" as="geometry" />
        </mxCell>
        <mxCell id="PppDZVDBbZMyRl5L9W1J-4" value="Local Seed Node" style="rounded=0;whiteSpace=wrap;html=1;" parent="1" vertex="1">
          <mxGeometry x="320" y="160" width="120" height="40" as="geometry" />
        </mxCell>
        <mxCell id="PppDZVDBbZMyRl5L9W1J-7" style="edgeStyle=orthogonalEdgeStyle;rounded=0;orthogonalLoop=1;jettySize=auto;html=1;entryX=0.5;entryY=0;entryDx=0;entryDy=0;" parent="1" source="PppDZVDBbZMyRl5L9W1J-5" target="PppDZVDBbZMyRl5L9W1J-6" edge="1">
          <mxGeometry relative="1" as="geometry" />
        </mxCell>
        <mxCell id="PppDZVDBbZMyRl5L9W1J-5" value="Zilliqa API" style="rounded=0;whiteSpace=wrap;html=1;" parent="1" vertex="1">
          <mxGeometry x="320" y="200" width="120" height="20" as="geometry" />
        </mxCell>
        <mxCell id="PppDZVDBbZMyRl5L9W1J-9" style="edgeStyle=orthogonalEdgeStyle;rounded=0;orthogonalLoop=1;jettySize=auto;html=1;entryX=0.5;entryY=0;entryDx=0;entryDy=0;" parent="1" source="PppDZVDBbZMyRl5L9W1J-6" target="wEiYYj2e1pjWQEtUVJ0r-15" edge="1">
          <mxGeometry relative="1" as="geometry">
            <mxPoint x="380" y="320" as="targetPoint" />
          </mxGeometry>
        </mxCell>
        <mxCell id="PppDZVDBbZMyRl5L9W1J-6" value="Zilcrawler" style="rounded=0;whiteSpace=wrap;html=1;" parent="1" vertex="1">
          <mxGeometry x="320" y="240" width="120" height="40" as="geometry" />
        </mxCell>
        <mxCell id="wEiYYj2e1pjWQEtUVJ0r-14" style="edgeStyle=orthogonalEdgeStyle;rounded=0;orthogonalLoop=1;jettySize=auto;html=1;entryX=0.5;entryY=0;entryDx=0;entryDy=0;exitX=0.5;exitY=1;exitDx=0;exitDy=0;" parent="1" source="wEiYYj2e1pjWQEtUVJ0r-15" target="wEiYYj2e1pjWQEtUVJ0r-10" edge="1">
          <mxGeometry relative="1" as="geometry">
            <mxPoint x="380" y="420" as="sourcePoint" />
          </mxGeometry>
        </mxCell>
        <mxCell id="wEiYYj2e1pjWQEtUVJ0r-10" value="&lt;b&gt;Aggregators&lt;/b&gt;" style="rounded=0;whiteSpace=wrap;html=1;" parent="1" vertex="1">
          <mxGeometry x="200" y="470" width="360" height="40" as="geometry" />
        </mxCell>
        <mxCell id="wEiYYj2e1pjWQEtUVJ0r-22" style="edgeStyle=orthogonalEdgeStyle;rounded=0;orthogonalLoop=1;jettySize=auto;html=1;" parent="1" source="wEiYYj2e1pjWQEtUVJ0r-11" target="wEiYYj2e1pjWQEtUVJ0r-21" edge="1">
          <mxGeometry relative="1" as="geometry" />
        </mxCell>
        <mxCell id="wEiYYj2e1pjWQEtUVJ0r-11" value="Zilswap Contract Aggregator" style="rounded=0;whiteSpace=wrap;html=1;" parent="1" vertex="1">
          <mxGeometry x="200" y="510" width="120" height="40" as="geometry" />
        </mxCell>
        <mxCell id="wEiYYj2e1pjWQEtUVJ0r-23" style="edgeStyle=orthogonalEdgeStyle;rounded=0;orthogonalLoop=1;jettySize=auto;html=1;" parent="1" source="wEiYYj2e1pjWQEtUVJ0r-12" target="wEiYYj2e1pjWQEtUVJ0r-20" edge="1">
          <mxGeometry relative="1" as="geometry" />
        </mxCell>
        <mxCell id="wEiYYj2e1pjWQEtUVJ0r-12" value="Staking Contract Aggregator" style="rounded=0;whiteSpace=wrap;html=1;" parent="1" vertex="1">
          <mxGeometry x="320" y="510" width="120" height="40" as="geometry" />
        </mxCell>
        <mxCell id="wEiYYj2e1pjWQEtUVJ0r-24" style="edgeStyle=orthogonalEdgeStyle;rounded=0;orthogonalLoop=1;jettySize=auto;html=1;" parent="1" source="wEiYYj2e1pjWQEtUVJ0r-13" target="wEiYYj2e1pjWQEtUVJ0r-19" edge="1">
          <mxGeometry relative="1" as="geometry" />
        </mxCell>
        <mxCell id="wEiYYj2e1pjWQEtUVJ0r-13" value="..." style="rounded=0;whiteSpace=wrap;html=1;" parent="1" vertex="1">
          <mxGeometry x="440" y="510" width="120" height="40" as="geometry" />
        </mxCell>
        <mxCell id="wEiYYj2e1pjWQEtUVJ0r-15" value="Elasticsearch" style="shape=datastore;whiteSpace=wrap;html=1;" parent="1" vertex="1">
          <mxGeometry x="330" y="320" width="100" height="100" as="geometry" />
        </mxCell>
        <mxCell id="wEiYYj2e1pjWQEtUVJ0r-27" style="edgeStyle=orthogonalEdgeStyle;rounded=0;orthogonalLoop=1;jettySize=auto;html=1;entryX=0.75;entryY=0;entryDx=0;entryDy=0;" parent="1" source="wEiYYj2e1pjWQEtUVJ0r-19" target="PppDZVDBbZMyRl5L9W1J-1" edge="1">
          <mxGeometry relative="1" as="geometry" />
        </mxCell>
        <mxCell id="wEiYYj2e1pjWQEtUVJ0r-19" value="MongoDB" style="strokeWidth=2;html=1;shape=mxgraph.flowchart.database;whiteSpace=wrap;" parent="1" vertex="1">
          <mxGeometry x="460" y="580" width="80" height="80" as="geometry" />
        </mxCell>
        <mxCell id="wEiYYj2e1pjWQEtUVJ0r-26" style="edgeStyle=orthogonalEdgeStyle;rounded=0;orthogonalLoop=1;jettySize=auto;html=1;entryX=0.5;entryY=0;entryDx=0;entryDy=0;" parent="1" source="wEiYYj2e1pjWQEtUVJ0r-20" target="PppDZVDBbZMyRl5L9W1J-1" edge="1">
          <mxGeometry relative="1" as="geometry" />
        </mxCell>
        <mxCell id="wEiYYj2e1pjWQEtUVJ0r-20" value="MongoDB" style="strokeWidth=2;html=1;shape=mxgraph.flowchart.database;whiteSpace=wrap;" parent="1" vertex="1">
          <mxGeometry x="340" y="580" width="80" height="80" as="geometry" />
        </mxCell>
        <mxCell id="wEiYYj2e1pjWQEtUVJ0r-25" style="edgeStyle=orthogonalEdgeStyle;rounded=0;orthogonalLoop=1;jettySize=auto;html=1;entryX=0.25;entryY=0;entryDx=0;entryDy=0;" parent="1" source="wEiYYj2e1pjWQEtUVJ0r-21" target="PppDZVDBbZMyRl5L9W1J-1" edge="1">
          <mxGeometry relative="1" as="geometry" />
        </mxCell>
        <mxCell id="wEiYYj2e1pjWQEtUVJ0r-21" value="MongoDB" style="strokeWidth=2;html=1;shape=mxgraph.flowchart.database;whiteSpace=wrap;" parent="1" vertex="1">
          <mxGeometry x="220" y="580" width="80" height="80" as="geometry" />
        </mxCell>
      </root>
    </mxGraphModel>
  </diagram>
  <diagram id="AWY5QDD9b8wqqQOVPNck" name="Legacy 1.0">
    <mxGraphModel dx="1478" dy="1112" grid="1" gridSize="10" guides="1" tooltips="1" connect="1" arrows="1" fold="1" page="1" pageScale="1" pageWidth="850" pageHeight="1100" math="0" shadow="0">
      <root>
        <mxCell id="eF5o-A4pd1vjj2XsfFBk-0" />
        <mxCell id="eF5o-A4pd1vjj2XsfFBk-1" parent="eF5o-A4pd1vjj2XsfFBk-0" />
        <mxCell id="eF5o-A4pd1vjj2XsfFBk-6" value="swap rates and liquidity (live)" style="edgeStyle=orthogonalEdgeStyle;rounded=0;orthogonalLoop=1;jettySize=auto;html=1;exitX=0.5;exitY=1;exitDx=0;exitDy=0;entryX=0.5;entryY=0;entryDx=0;entryDy=0;" parent="eF5o-A4pd1vjj2XsfFBk-1" source="eF5o-A4pd1vjj2XsfFBk-2" target="eF5o-A4pd1vjj2XsfFBk-4" edge="1">
          <mxGeometry relative="1" as="geometry" />
        </mxCell>
        <mxCell id="eF5o-A4pd1vjj2XsfFBk-2" value="Zilliqa API" style="rounded=0;whiteSpace=wrap;html=1;" parent="eF5o-A4pd1vjj2XsfFBk-1" vertex="1">
          <mxGeometry x="440" y="280" width="120" height="40" as="geometry" />
        </mxCell>
        <mxCell id="eF5o-A4pd1vjj2XsfFBk-7" value="swap rates (liquidity)" style="edgeStyle=orthogonalEdgeStyle;rounded=0;orthogonalLoop=1;jettySize=auto;html=1;exitX=0.5;exitY=1;exitDx=0;exitDy=0;entryX=0.5;entryY=0;entryDx=0;entryDy=0;" parent="eF5o-A4pd1vjj2XsfFBk-1" source="eF5o-A4pd1vjj2XsfFBk-3" target="eF5o-A4pd1vjj2XsfFBk-5" edge="1">
          <mxGeometry relative="1" as="geometry" />
        </mxCell>
        <mxCell id="eF5o-A4pd1vjj2XsfFBk-3" value="Viewblock API" style="rounded=0;whiteSpace=wrap;html=1;" parent="eF5o-A4pd1vjj2XsfFBk-1" vertex="1">
          <mxGeometry x="200" y="280" width="120" height="40" as="geometry" />
        </mxCell>
        <mxCell id="eF5o-A4pd1vjj2XsfFBk-11" style="edgeStyle=orthogonalEdgeStyle;rounded=0;orthogonalLoop=1;jettySize=auto;html=1;" parent="eF5o-A4pd1vjj2XsfFBk-1" source="eF5o-A4pd1vjj2XsfFBk-4" target="eF5o-A4pd1vjj2XsfFBk-8" edge="1">
          <mxGeometry relative="1" as="geometry" />
        </mxCell>
        <mxCell id="eF5o-A4pd1vjj2XsfFBk-4" value="zilswap.py" style="rounded=0;whiteSpace=wrap;html=1;" parent="eF5o-A4pd1vjj2XsfFBk-1" vertex="1">
          <mxGeometry x="440" y="360" width="120" height="40" as="geometry" />
        </mxCell>
        <mxCell id="eF5o-A4pd1vjj2XsfFBk-10" style="edgeStyle=orthogonalEdgeStyle;rounded=0;orthogonalLoop=1;jettySize=auto;html=1;entryX=0.5;entryY=0;entryDx=0;entryDy=0;entryPerimeter=0;" parent="eF5o-A4pd1vjj2XsfFBk-1" source="eF5o-A4pd1vjj2XsfFBk-5" target="eF5o-A4pd1vjj2XsfFBk-12" edge="1">
          <mxGeometry relative="1" as="geometry">
            <mxPoint x="221" y="690" as="targetPoint" />
          </mxGeometry>
        </mxCell>
        <mxCell id="eF5o-A4pd1vjj2XsfFBk-5" value="Zilcrawler" style="rounded=0;whiteSpace=wrap;html=1;" parent="eF5o-A4pd1vjj2XsfFBk-1" vertex="1">
          <mxGeometry x="200" y="360" width="120" height="40" as="geometry" />
        </mxCell>
        <mxCell id="eF5o-A4pd1vjj2XsfFBk-19" style="edgeStyle=orthogonalEdgeStyle;rounded=0;orthogonalLoop=1;jettySize=auto;html=1;entryX=0.75;entryY=0;entryDx=0;entryDy=0;" parent="eF5o-A4pd1vjj2XsfFBk-1" source="eF5o-A4pd1vjj2XsfFBk-8" target="eF5o-A4pd1vjj2XsfFBk-17" edge="1">
          <mxGeometry relative="1" as="geometry" />
        </mxCell>
        <mxCell id="eF5o-A4pd1vjj2XsfFBk-8" value="MongoDB" style="strokeWidth=2;html=1;shape=mxgraph.flowchart.database;whiteSpace=wrap;" parent="eF5o-A4pd1vjj2XsfFBk-1" vertex="1">
          <mxGeometry x="470" y="420" width="60" height="60" as="geometry" />
        </mxCell>
        <mxCell id="eF5o-A4pd1vjj2XsfFBk-14" style="edgeStyle=orthogonalEdgeStyle;rounded=0;orthogonalLoop=1;jettySize=auto;html=1;entryX=0.5;entryY=0;entryDx=0;entryDy=0;" parent="eF5o-A4pd1vjj2XsfFBk-1" source="eF5o-A4pd1vjj2XsfFBk-12" target="eF5o-A4pd1vjj2XsfFBk-13" edge="1">
          <mxGeometry relative="1" as="geometry" />
        </mxCell>
        <mxCell id="eF5o-A4pd1vjj2XsfFBk-12" value="MongoDB" style="strokeWidth=2;html=1;shape=mxgraph.flowchart.database;whiteSpace=wrap;" parent="eF5o-A4pd1vjj2XsfFBk-1" vertex="1">
          <mxGeometry x="230" y="430" width="60" height="60" as="geometry" />
        </mxCell>
        <mxCell id="eF5o-A4pd1vjj2XsfFBk-16" value="aggregated data" style="edgeStyle=orthogonalEdgeStyle;rounded=0;orthogonalLoop=1;jettySize=auto;html=1;entryX=0.5;entryY=0;entryDx=0;entryDy=0;entryPerimeter=0;" parent="eF5o-A4pd1vjj2XsfFBk-1" source="eF5o-A4pd1vjj2XsfFBk-13" target="eF5o-A4pd1vjj2XsfFBk-15" edge="1">
          <mxGeometry relative="1" as="geometry" />
        </mxCell>
        <mxCell id="eF5o-A4pd1vjj2XsfFBk-13" value="Data Analyzer" style="rounded=0;whiteSpace=wrap;html=1;" parent="eF5o-A4pd1vjj2XsfFBk-1" vertex="1">
          <mxGeometry x="200" y="520" width="120" height="40" as="geometry" />
        </mxCell>
        <mxCell id="eF5o-A4pd1vjj2XsfFBk-18" style="edgeStyle=orthogonalEdgeStyle;rounded=0;orthogonalLoop=1;jettySize=auto;html=1;entryX=0.25;entryY=0;entryDx=0;entryDy=0;" parent="eF5o-A4pd1vjj2XsfFBk-1" source="eF5o-A4pd1vjj2XsfFBk-15" target="eF5o-A4pd1vjj2XsfFBk-17" edge="1">
          <mxGeometry relative="1" as="geometry" />
        </mxCell>
        <mxCell id="eF5o-A4pd1vjj2XsfFBk-15" value="MongoDB" style="strokeWidth=2;html=1;shape=mxgraph.flowchart.database;whiteSpace=wrap;" parent="eF5o-A4pd1vjj2XsfFBk-1" vertex="1">
          <mxGeometry x="230" y="600" width="60" height="60" as="geometry" />
        </mxCell>
        <mxCell id="eF5o-A4pd1vjj2XsfFBk-17" value="Zilgraph&lt;br&gt;&lt;br&gt;&lt;br&gt;&lt;br&gt;&lt;br&gt;&lt;br&gt;&lt;br&gt;&lt;br&gt;&lt;br&gt;&lt;br&gt;" style="rounded=0;whiteSpace=wrap;html=1;" parent="eF5o-A4pd1vjj2XsfFBk-1" vertex="1">
          <mxGeometry x="200" y="720" width="360" height="160" as="geometry" />
        </mxCell>
        <mxCell id="eF5o-A4pd1vjj2XsfFBk-21" value="" style="shape=image;verticalLabelPosition=bottom;labelBackgroundColor=#ffffff;verticalAlign=top;aspect=fixed;imageAspect=0;image=data:image/png,iVBORw0KGgoAAAANSUhEUgAAASYAAAB5CAIAAAAbCRsbAAAAA3NCSVQICAjb4U/gAAAAGXRFWHRTb2Z0d2FyZQBnbm9tZS1zY3JlZW5zaG907wO/PgAAEmxJREFUeJzt3X1QFHeaB/Cne7p73oeZYQBFBBFQg9HTIGcOYta8Vqribd5us5VkkzIm5kyssq6ia0xiKrqluCqY00QtScpNbXTXXC6oSZm3MzHerej5lngLQkBCUDIDCMMwrz3Tb/dHj6PB4WUG6GHg+RQlPd093T9wvvTL76UJSZIADY7dbs/MzEx0KdCQEASR2M88mcB9IzQOYeQQUhRGDo07xDXr169Xfu+U8rtEKLHwWg6hcQQjh5CiMHIIKQojh5CiMHIIKQojh5CiMHIIKQojh5CiMHJo3MHWJwgpClufIDSOjNRR7vf/9fsmZxMA1NTU+Hw+q9VaUFAAAKXZpSv/aeUI7RSh0W8ETywP1h8M7yEF7IK9pr4GAEqzS0dujwiNfnhiiZCiMHIIKQrvWCLU28WLF3fv3s1xnCRJL7zwQlFRkcvl2rJlS1dXF0VRq1evzsnJiXvjSkeutdV94UK7Wq2iaRXDyF+kWk0xjIra+ba8zvHjxwEgOzs7NzcXAKC4GEpKFC4nGs/279+/YsWKgoKCurq6rVu37t27t7KysqSkZNGiRWfOnNm1a9fmzZvj3ngCjnI8L/K8CMD1mj/jT/v1F84AwK96LThxQqGSIQQAABs3bpQn2tvb09LSAOD06dMrVqwAgOLi4s2bN7Msq9Fo4tv4iEROFCWXi431XTi8Hxo9Ll68uH79ep1Ot2nTJp7nBUGIZMxisTidzriHV6Tsdvvg1/7888/Xrl07d+7c9957r691eF5sbnZ3d3uiLjUaJZtNCIUEjhNDIfHahMBxIs/zUd/S2dkZiqWQIyqmXxcaVbZt21ZRUQEABEHcOH/dunVvvvlmr5ULCws//PDDEydOvPHGGzt37rxxkSiKvbYQEyqmsFqt1ra2No1G09e7WJZvbHQaDBadThd1hZSUlJycrKiLpJTob7HZbDA6BmzFoWOTWnl5eXl5+YBDx4qiePz48bvuugsASktL33rrLa/XyzBMIBDQarWiKLpcLqvVGncxhrOSwOsN1dd3hkJCfG/v6w9HT08w/jIhFCOSJD/44INz584BwI8//ggAZrN5/vz5R48eBYDq6urCwkK1Wh339gd1Lefn/PJEUAwCDQIpRObo6PChyekM/PSTS/7zQZKExaKRF3Ecx3EcTdM0TcdXxLY2L+EOmkzx/5AIxeTVV199++23KysrSZJ8/fXXSZJcvHhxWVnZoUOH9Hr9mjVrhrLxQY3PfrDu4KP/8ejN8x+Z8UjVb6sAwOHw2u3hizeaJqdNS9VoYr8xU1oK1dU3z/5h7yf+OcUzZti02gTXIuKJ5RiQ9M8kkCSpudkVyZtWS91yiy2evPVLFKXGRifHicO7WYSUN6TISZLU0OB0OgPyS5NJPWOGjaZVw1Gw60iSAACOExoaugQBU4eS25Ai5/GEvN6QPG2z6QoKrHI8hldWllG+s8Ky/KVL3Vh9h5LakCIniuFPf1aWKScnZTjKE4VWS+fmWuRprzfU3OwaoR0hpIChXsuRJJGfb83I0A9LafpisWgmTjTI093dbOTSEaGkM6TIEQQxfXpqSooSt+8zM40WS7jFjcPh7e6OuUEZQrIkHm7IaGR0ujhr2+IwdaqlsdHpdgcB4Mcfu6dNSzUaGcX2jsaMxN4OGFLkRuJmSf+mTjXX13exLA8ATU3dt/7lLYoiAeDbb78FgIULF4bXKytTuGAIDdLAkRMEqb3dq0BRBkOlIgsKrHV1nTwvCoJIbQ13W1oofzt5MrweRg6NVgNcy3k8odraq15v775tI0WjAY0mRJIsgMgw8steqzCMatq0VOUPsK2trQ6Ho7W1VeH9ojGmz8iJonTliruhoYvj4mymHLMTJyAQgECAEQSNJJHBoPzy5i7hWi2Vl2cZSgeKOBw4cGDevHnbt29Xcqdo7KH+npIya9as8Ku//U3+HgjwTU3OYDAcNuUPKQMymdQjVxOI0MihZrnd4ZEOMjLkWW1t3p9/vl7xZTQy2WoTnElI8fqTmqpNdBEQitkvbp+EQkJzsyvShgsAJk82pafra+uSbOy9mpoOmlZRFEnTJEWRNK2iKCIyR6Uiq6urA4EAANxzzz3Dv/s//1n+fuLECQDQaDRFRUUAAEYjPPLI8O8OJZXrkRNF6eLFzki7YZ2Ozs01D3ufgGF2990A4Pdzp079DwAUF98hzw4GhchZcVRNTd3PPLNo3rz5hw//IwAQBEFRZORLpSIYJtw4u7y6/J3T7wCA2++Gf4NKXeVH//4RAPxm5m+23rc1+tYPHYKDBwGg98DUVVXx/6RorLieKEGQInmbMMEwaZIxQUWKxddfA4BakO6hSAC48N5/DrKDD8+LABAKCQ5Hn/UfJElQFNnR4WvpaQnPMoMb3O4e99ALjhIocuMt6qgnI633QYxhVLm5ZoMhmVp1qFTh3+Ds2RkAwPMixwk8L3KcKA/gx3HX5wx+nAhRlEIhoa/1fT7O5wvp9cn0i0KyUdT6xGrVZmebVKoku3IDgGPHjkWm5ZPDflYWBMnjMQOARkPl5KTIsRQESZ6IfPW/R683VF/fRVGkyaROSVGbTOr+d4qQ7HrkKIrIzTUnsChDcb2pV/+qq6G5WQUwqbHxKYCC7i7blwfDi556qte6giDyvJju0UNdn9vjedHpDMiddPV6xmRiTCa1IZ6fAI0X1yOncM1ywvzudwBQALAPABob5ZdQUnJz5FQqUqUiX1v4ymsLXwGAioqKVatWrVq16g9/KHO7Qz09rMcTunF9ny/k84UcDm9+D4s1hqgvo/uG5Eg4fBgA6uvrv/nmGwB46aWXYt2AVktrtXRGhl4UJY8n1NPD9vQEb7zkw27rqB/jLHLX2o7N+PWvZ6xeHeu7e52+kiSRkqKWuwuyLO92B3t6gnLfoqg8npBelEZhU54k9dVXX8k9SMqSqhX7OIvcEKxcufKJJ57oa1A9jYbSaKj0dL0oSoI+eh/Cjg6f+0K72ayx2XQJ6On3wQfw5ZcA0NzcfPnyZZqmS+Q/QCQZqbtPOps2bbr//vsTXYrYYOSGGUkSZN9jnImiJN9uYRhVaqo2NVWrVsfzX9DkbNp8YjMAuN3uCxcuAMCCBQvkRZX/XNnn2/bvB4BcgFz5ZXMzAMDTT8dRgNFJFCW5evnmf+Wb0i0tzYkuI0ZOQTc25ZFr4R0Or8HAWK1aq1UTa93Mu+ffDU/pAQDqz9cDQJ4lb7hKO/oFAjwA+HxcTU2HXMcz4Fv++tf9I1+uAWDkRsZddwFATU0Nx3FZWVnyM8omTTKmzUrv7PQ7nWwwGH7MkNcb8npD3VWfGY1MSormhx9qAGDKlCkWiwUAoLAw0twcRXCc0NrqaW11A4AgiP037gOAyoaKA83vAUBwQhAS3vqk8eDBgoKC/lfKTsk+u/QsANTVhauobrnllhEvWvK61pby1puWMACZmcbMTKPXG+rqCjidAXlgwtzXXqKdVwFg7i/X7/mhhTZyNE0O+4C8yau93edwePsaRFhuIqtSkZEJlYowOtQ6RgcAYkgMApvg1icFDz884EpFmUW9JtAQGQyMwcBMnmxyudjOTn9fq7W0uDhP+GYMTZMME37g81V/n2+Rz68kCSRJkiRJfuyEJIEqJCR74zSPJ3j5slse+SZCr6dnzkxTqYh+/iqVZ20sXxR+MCqxPsF3jPHEMpFIkrBatVarFuiBL+Q4TuS48AOf233RW2MHg8KFC+1RF6XaPVOGUNTE4jjxypUeeSTF/+3875ru8xRFOumf4U5oyfmp/PQf5dXW3rk2ocUcFIzcqGYwqAMaiuMEQRipc6FAgGcEcTQ3rG1r8zoc3sjQ4AQBeiOl19PdPZIt3SYREi9Gf/7u6ISRGzVIEgBEUQQAkgwHYOpUM2SkAYAoShwnhkK8fKwLdOpIgoTwCeQv3hIrv5/74e8d6en69HS98i2zvSHv923fA0AgEGhsbASA2bNny4vuyL7D7Q5eufKLM0mLRfP87H+h6d8CACwEeE7h8g4DjNzo0NYWnhBFABBvihBJEmq1Sq0OX65kZPyDMFMAgKampvz8/Ly8vEuXLg2wi4t9tlkXBMnh8La3+9LSdBkZeoVv1Sz404JfvD4HAGBgDN8/ftnluj4mN8Oopkwxj4HBgjFyo0scB6vDhw8PZY+R3oaiKLW3+zo6fKmpugkT9PHV0Q8XUZQieSMImDDBMHGicWw0vMfIJbe8vLy8vCFVf5vNmilTzG1tXvn8TZKgs9Pf1RWQH72S8JE4jEZmyhRzZFyMMQAjh0BuetbdzTocHrlJhySFG6aZzZoJE/QJ6fxO02RWlslqHWvjuGHkxo2MDLlZ87lz5+QZ4XHHrrFYNBaLpqcn6HB4fD4OALL/+Kq69ScB4P9+uhQI+CZOnDh5chZBEPDww/Dii3EXhGV5luUDAZ5leae3J+o6BAG33po+JntdYOTGjWst7ov6bXovd0fyekPyQEymU8cBIHwPsccF9XUA8HPx3e66TnmEwqiDFwLAnDlzamtrz5w5M336TJYVAgGOZXmWFViWu7Hth5+PPvY+QRAjl7fRNdwQQgBgMDAFBVbeohHS0kURfD4Pywb0eqNGowUAQZD8/uhRobs6AEClIg1e1sbzzScbyY7w55tLTVes/P1LbIMvAh+9PXh2u72v/nJjGMvyS5f+6759e9eu3fzoo89EqqSjKnzyXm3DxZvnX/zL0cC0Qnlap6O1WkqrpbVaSlCx1vIotRcGxuB5dUSelUsQCf7M41EODUCjofLzs9etW5eebpw7d4IkAccJN45TKI9iKE8ARD8btNm09FSLVkup1aobR9nxhpR6qNOogZFDA7vxgocggGFUDKMCiNb5XRv9E5WergdL7+eWjU8YOTSsDh2Sv7e0hIe4zsnJ6f8d7avaAcDn88lPibDZbCNZvsTDa7kYjM9ruTFmMNdydru9oqLC6/USBLF8+fJZs2a5XK4tW7Z0dXVRFLV69eoB/470Y/S2H0coUbZv3/7ggw/u2bNn2bJlO3bsAIDKysqSkpI9e/YsXrx4165dQ9k4Rg6h3l555RV5AMX09HT5dPf06dP33nsvABQXFzc1NbEs2/8W+oGRQ6g3q9Uqty8/cODAokWLeJ4XBEFz7bH1FovF6XTGvXHKbrcPTzHHB/x1Ja9t27ZVVFTATc8CiNoGRRTFHTt2CILw+OOPy50Yb1w0lKcJUHg/YPDw9klSKy8vLy8vH8ztE1EUN2zYkJmZ+fzzzwMASZIMwwQCAa1WK4qiy+WyWq1xFwNPLBHq7cCBA6mpqXLeZPPnzz969CgAVFdXFxYWqtXquDeOlQQxwKPcGDCYo9xjjz1mMBgYJtxlafv27SzLlpWVdXd36/X6NWvWDOVjgJGLAUZuDEh4G0s8sURIURg5hBSFkUNIURg5hBSFkYvBtm3bEl0ElPQwcjGQ2y6gZEdcs379+kSXBaGxrrS0VEoorJeLQcKrdNAYgCeWCCkKI4eQojByCCkKI4eQojByMVi3bl2ii4CSHt6CQ0hReJRDSFEYOYQUhZFDSFEYOYQUhZELq6+vf/rpp/fv3y+/DAaDmzZtWrp06ZIlSz799FN5piiKS5YskSTps88+e/HFF5csWbJ37155Ec/zu3fvfuCBBxJTepQ88DEgAAB2u/3999+fP39+ZM7HH3+s0Wjeffddt9v97LPP3nnnnSkpKQ0NDfn5+e3t7R999NGuXbvUavXLL79cW1s7c+bM3bt3T58+XR5vFKF+4EcEACA1NbWsrMxisUTmPPTQQ8uWLQMAk8mkVqvlAbHPnj07b96806dPl5SUaLVakiQXLlxYXV0NAM8999z9/T4QGCEZRg4AQK1W9zpA6fV6rVYLAF9//XVOTk5GRgYAnD9//rbbbuvs7Iw8kMlqtXZ1dQGATqdTvNQoKeGJZX+++OKLI0eObNy4EQD8fr/f77fZbDd24ZEkaShjZaNxCCPXp6qqqlOnTm3ZskU+3H333Xdz5swBAJvN5nA45HWuXr2alpaWyFKiZIMnltHV1NQcO3Zsw4YNct4A4OzZs0VFRQBw++23nzx50u/38zx/7NixBQsWJLSkKMlgG0sAgOPHj+/bt8/lcgGA2WxetmzZkSNHamtrTSaTvMLy5cvfeeednTt3yoPRf/LJJ1VVVQRB3HfffU8++SQArFy50u12t7S05OTkTJo0CRtAo75g5BBSFJ5YIqQojBxCisLIIaQojBxCisLIIaQojBxCisLIIaQojBxCisLIIaQojBxCisLIIaQojBxCisLIIaQoytHhTHQZEBpH/h+6ssaVdG3tRAAAAABJRU5ErkJggg==;" parent="eF5o-A4pd1vjj2XsfFBk-1" vertex="1">
          <mxGeometry x="220" y="790" width="145.79" height="60" as="geometry" />
        </mxCell>
        <mxCell id="eF5o-A4pd1vjj2XsfFBk-23" value="" style="shape=image;verticalLabelPosition=bottom;labelBackgroundColor=#ffffff;verticalAlign=top;aspect=fixed;imageAspect=0;image=data:image/png,iVBORw0KGgoAAAANSUhEUgAAAjEAAAF/CAIAAAA3tw8iAAAAA3NCSVQICAjb4U/gAAAAGXRFWHRTb2Z0d2FyZQBnbm9tZS1zY3JlZW5zaG907wO/PgAAIABJREFUeJzs3XlcE2f+B/BnkskNBAiE+xAEQW4VUKvUKh61ntXqrtpqXbVqD7e/tlut1h722LW2XZXqWrW2tmsXj1oPQK1n8UKoIsotyH3fAXLOzO+PUMQQIUDCDOH7/sNXMnky8x2N+WRmnnkejKIoBAAAADAAi+4CAAAAgDaQSQAAAJgCMgkAAABTQCYBAABgCsgkAAAATAGZBAAAgCkgkwAAADAFZBIAAACmgEwCAADAFJBJAAAAmAIyCQAAAFNAJgEAAGAKyCQAAABMAZkEAACAKcwnk0rPH337n8d/b6S7DoMNuIIBAMDUcINaafL2brucPWT85wt9OZ1ebMr47eu4uoCF8+a7G7a2J6qK+zb+hkXk/y3yt0UINZf/nlIi8AkOd+Fpi8iKO/Z9vnTJymcC+X3bTjvtfv35DOcJpM6uo8aMinIXtjfpwd7pFtzZ4zvYJ7L7N7IKxV7PDZf0uE4AAGAqIxwncXAen88V9H1FiC3gCwQ8dtuzlsLEm2k3ylSPNsTjWvLYxv/GtfWaPily1qRR44OcBHX5Jw8d23G5St6+UcP3rlPBnTy+g33SeP9m2qV7teo/nxvvXwEAAGhjhG94gW/Uu759Xw1CSDLxpYUTn/gq7h09d6NRtqND7D4+3Lvt+C9adudY/H9vnj/mPG+JLw8Zc+9QdzvYJ0atEwAA6MH+8MMPu29F1t++XlBr4xEdKOn8I19+L27DgZQ696BAMUIIIUXtjbPnD8bdOHn1XnJhswAV/3Tgt0zb4JH2LKTI2b3t1/hGpwm+lm1vrrz5aczZVJ5PpAsPoaoTu/+3L5M7OoQ4vvPw97eqFQg1Pkw/dzW3aUjgcCtN1on//vPXcvvRQ51YCCGkbsw7/cvFn87cOHcrN6OObY0q0ivYw8L9PVrufrUjLq5WMt7Puq3axvs7/n3qVMclj+2XZ3Sg7Z/LeU5ellX3clIruKPCHAWd966xJC7uws9x108npt3IqGgU2Hnb89mo/H+dCxbm7d16/HQtm5V+4/u461canCb4yv/cQSkPIVl+xs0ylrM7uh138X/nks7dys9t5Hl42opYCCFUeCb2k6P5lqHD3LjawjR3Yg98+Vuj+xi34tgDX57OKyMQaii6cPXOfbbXGDe+bp1IWXjn+s+nrh27eOv87fyH9bijq8RK+wtEk7d36/EzzVKP+j8Onrx6/MKdyxkVMhtnP5vO52UBAKBfGb2Pg+zGL/HH7tXh7n6zosNCxbXxZ7Kqe7wS24nPRS+b5G6JkL3/2GXPR0VJOjVRFMYevJxYSrgMD54y2sO28k5sanPbSxKPUClS5OfnadoWNOUXliGun7+LQV+6fJdR7lxUVZLd3OklRcn/Dp29VMYeNi5y3iQ/b1SdePLUT/dauyhYlplyrtEiNHzUFH8LfRurSzxxp0rsMXFc8CgHojD18u64Qrm+dh3g3hOmLns+2JuNkNRv8fNT5w3vvGZl1plTu8/mN4m9pkePneIjqLqXuPNQcqHmUQtZ5qW9Ka1S/+ApozxsW0oTj11K7ry/AADQv4x8dUadf+dckcomaPobzzkJEEJhgWOkJ7de6Gkq8aReHlJR+QmEBM6uge0HVR2U3kxObeEGzJr58nAhQgiN8XM/9OvJIu2L1qH+tvFXSlKLNH5eOELKvJxqDc8j1MvAncWlUguU2VzViNDj3/bqotz7jexhz039SxAPITQmyAntPp96p7ApyF9PwdoAsA1e81K4S9uWO8cN1yN65powS4QQGhPgfezYfzNv3xjnMbFzBndg5eAa6IDu42lIZB/o66onaEvvHEtttAya+sZzrgKEEPIf5XJma1zaiWSfN8ZYa5tocNdlLz/jx0cIoTHOyo9OVqQ+VIYHPal3BgAA9AcjHyeV5ZfLkDh0lFP7xXZbiaUJ+oHJ8vIbkcgjyre9g5y1t/RRgNgO93FHquzMCjVCSFOSWkTwvbyGGVwHjrMRItSE7nIOn8tBRFVRSZ02b/geS97827aX/K2evCq+g5NLV9u1CPBqT1xhYJiHJarLLmo1tNAnKMwsrEfiMaNd2/8VrIJGhItRUWZJXXth7j5+f3ZfFEisbRAhV3TROwMAAPqDcTNJI2uUI7aFc5c/842huaoFIbGt/ZO+7sUeoc5Ilp9fpEHq/KI8wuATdwghhDQaAiE2p/OlM/ewhaNs5fcuf/b1oa8OXTqRXFil6OUO6MWRiC0Ramrs7uxdNzR1tXLEFkvFHReKnW0Raqmr1/8WNkJIo9H/GgAA9BtT3DPL7qdr5XgXnaotQ/3t8ZaSO2XKvNxyBc/V4BN3CCFNVVUzQhaPf6drCf2i536wZvriCV5SdkPq5fNbdx8/UaTsRe2m12l/CYQ0SK2vKQAAMIRxMwm3EQsQ0Vz15LEJcIQQ6nRSrMcspGKEGhtlT25h5e/jwZan30tLzZf36MQdUpSm5KuQ1HVYp64D6uaGqtpWJHYKCx+9ZOHcD1aND0B1ieez6vStphfUtXV1CFmJBQi1/U31KkJwW4kAEQ2P/ys0FjYiJBZL+14lAACYjJGPk6S+Tpao7kZyefuXaVWl7NE5Ib7QkodktQ3tX+JVRVVd5AredhqtM0s/dzFqLLxR2r7u1iqdU14WHqEubFlGempLT07caWTJcddSlYLQcX6dh1oouhq/de/ZxNo/n4ulHmKENPL2DT+54CdpTs9vaN+F+8klCmQ7zF2IELIUCxBqLqv6cwcVFdlVnd5NIL3n2zz8PWxQ3Y2bJe2FNWXcTW9Ezv4efR4/AgAATKgn/Q8aSxOTVR3fwBE7jfJ97NoRxz1s+pDC2NTzO5V+o9wFsrL8lHvVHb43HUO9BCmZKXuPNYc7s+vKClNzG594FUNsa8tG2ak3TyDXYcMD/R4/kyYdPXpU5tmbv5zljAscJtaU3btzLlfnEr0wIMj+RFGFhufSzYm7xqIbd1QcDSFvrM7OLcxrZLuPjp7nq6cHmnd4sPu9pPhDcVWjvDz4RFVO1o0qtvNoHxe9BYu62uafiMLzp77K9wl1Zlc9zE8tUln6h4+RIISQrZeX++WklLh4FOQh1dRl5xbmtSD0qCixsxih0rRjl+XeXj5jOgyGhBBCLmHzggq/v3d+R7PfGF+xprLwxr1SuW3AsnBrQ2oCAAC69CST6vLjL+Q/tsQ5MsBX8vghiGX4vOmas9cu5qSdzOHauHhNf1pw4kpR++b8pkbPQtcu5aTH53NtHFynPOeaEpeuf3N8r+kT8quult64KcfddTMJ8V3nLYoWnElOPn8+EQmcvQLmjcqPTXmsiZWPjze7otDdt5sTd3X5J8/mo7bx7rxmPRcW5a6n9zlCCEkC17zEjb+cnnozKUWJ+GLbwElTZ4X/mco6BRuSSWzH2Ys8Ci+kXbzarMEtPEInLIz+s7OcJHDJ7ObYC7mpN1OQSOztP35W4/WT7X+RyDI8Ojj9RHpqcppM5KGbSYjn99zMNdKkEym58WcJXGThETR+2QTfLnsAAgAA/TCKoky7hfxLmw7ne8xaunJ4v38j1t79am+a9Pm/LvGFL2MAABgAzGeuik40eclZZTzXUT3ocQcAAIBOZvl9rSm8dyc1vyQ1U+48OtjPLHcRAADMkenP3QEAAACGMeNzdwAAAAYYyCQAAABMAZkEAACAKSCTAAAAMAVkEgAAAKaATAIAAMAUkEkAAACYAjIJAAAAU0AmAQAAYArIJAAAAEwBmQQAAIAp9A9QWl5lrOm8AQAAAEPBcRIAAACmgHHBAQAAMAUcJwEAAGAKyCQAAABMAZkEAACAKSCTAAAAMAVkEgAAAKaATAIAAMAUkEkAAACYAjIJAAAAU0AmAQAAYArIJAAAAEwBmQQAAIApIJMAAAAwBWQSAAAApoBMAgAAwBSQSQAAAJgCMgkAAABTQCYBAABgCsgkAAAATAGZBAAAgCkgkwAAADAFZBIAAACmgEwCAADAFJBJAAAAmAIyCQAAAFPgdBcAAADMQhCEQqEgSZLuQswKm80WCoXdNoNMAgAAXSwWSyQS0V2FWZHJZIY0g3N3AAAAmAIyCQAAAFNAJgEAAGAKyCQAAABMAZkEAACAKSCTAAAAMAVkEgAAAKaATAIAAMAUkEkAAACYAjIJAAAAU0AmAQBAb8gJdY/aN6kVJqrEnMB4d6D/tDQrCQ3FYmM4zsI5bBYLUyk1SoVGqf1T+0BJqJQatZogNCSOszhcNpeH83hsHo/DE+A8Hs7j4Vw+m8vFKYrSqEmCINlsFo8Pn2TQ3ypbmz5PPWtgY38bx1V+4/S+VFxcvHz58o5LeDyek5NTRETEwoULraysdNqnpqbGx8enp6fX19fz+XypVDpmzJjp06fb29t3bLZgwQKCII4dO6bz9ldeeSU/P7+LUnfs2OHv72/gfhkd/E8GpqJWEwghFoY11MsrK2QlhQ01Vc31ta31dfLGenlTo0Ih79nPTB18AcdKzBfbCGxsBRJ7kbunjYOzlcReZGnFQxTCWBiLhRlpVwAwOTc3t7Fjx2ofNzU13b179/Dhwzdu3Ni9ezePx9Mu12g0X3/99blz5zgcTnBwcEREhFqtzs3N/emnn3755Zd33nln3Dj9sdfRpEmTQkJCtI8bGhouXbrk6ekZFhbW3sDW1tbYO9cDkEnAOAgNSZIUi4XV1rSUFDbkZlUX5NWWlzbV17aaaIsKuVohV1dV6Bls2EYidHKx8va18/K1c3GzltiLSIJk4yw2G05WA4by9PRcsWJF+1OSJN97770//vgjKSkpKipKu/Dbb789d+5cSEjIu+++2/Go6NatW59//vmnn366Y8cOHx+frje0YMGC9sc5OTmXLl3y9/dfu3atUfem9yCTQO+pVQTOYVeUNeVkVGXeq9CGEN1FIYRQfW1rfW1rRlpF+xInFytPb0louMtQP6mdvUgbnzRWCEDXWCzW6NGj//jjj4aGBu2SkpKSX3/91cnJ6ZNPPuHz+R0bR0REvPfee++9915MTMz27dvpqNdoIJNAzxAEiWFYWUnj/Ttlt2+VPMiqIgiK7qK6V17aVF7adOP3hwghFgvz8Zc+NWGIf6CjvaMFRSHIJ8BARUVFCCFvb2/t04sXL1IU9cILL+gEklZ4eLifn19GRkZ5ebmTk1O/FmpUkEnAIBoNKWtUZN6rSLyYl3mvghoAMfREJEllp1dmp1dqnwaFOY+f5D1suIOFFQ9DiI3D+T1AA4VCUVZWpn3c0NCQlJR0+vTpqVOnBgQEaBdmZWUhhDpe+NExcuTIrKys7OxsyCRgnuStaoGQU5BXl3S1IOlqQW11C90VmcS9O2X37pQhhCT2ooixHmMneLkPsdF256O7NDCIJCcnL126tP0phmHTp09ftWpV+xLtSTw7O7snrUH7Ul1dnSnLNDnIJKBLpSK4XHZ2RuXlsw9u3yruY++4AaS2uiXhREbCiQy+gDPuGa/xk4Z6etvClSfQP/z9/efPn699rFAoSkpKzp49e/PmzQ8//NDPzw8hxOFwEEIkST5pDdqXWKyB/VsKMgk8otGQVeWyi2dyrl7Kk7cOlijqTCFXn4/PPh+fLRByJkz1jZrkLXW0ZLMxDINwAqZiZ2fX3r9Oa9asWatWrfr8888PHDjAYrG0XbSrqqo8PT31rqGmpgYhJJFITF+sCUEmAaRSEWoVcetaQcKvGZXlerpWD1ryVnXC8fSE4+kOTpaTpg8bGzWExWYJRVzIJtAP7OzsgoODr127VlZW5urqOnz48KtXryYnJz8pk+7cuYNhWPv1pwEKMmnwoihEEmRBft2po/fu3CqhuxxGqyyXHdqfcmh/Sugo18nPDRsW4EAQJF/AobsuYOaUSiVCSKVSIYSefvrp/fv3Hzt2bNq0aZaWljotU1JSsrKyRo0aRe8dr30HmTQYtbaocA77+uX8uF/S9d5zCp4kNaUkNaVE6mg5ZYbf01N8KJKCYY2AieTk5KSmplpaWrq7uyOEpFLpokWLfvzxx40bN27atEkqlba3/OOPPz777DMej/fqq6/SV69xwH+nwaVZplQpibjj9y8m5JDkQO7QTauqCtlP+5IPfZfy7Ozh0+YM5/M5XB6b7qLAwFZQULBv3z7tY5VKVVZWlpycTFHUa6+9huNtX9RLlixpbm4+fvz4smXLQkNDnZ2dtWML5ebmisXiTz75xNXVteM6FQrFrl27dDbk6ek5ffr0ftij3oFMGiwUcnVjg+KXQ6k3EwvorsVMkCQVdzw97nh6VPTQ2QuCraz5XC4kE+il4uLi2NhY7WMWi2VtbT127Nj58+d3vD7EYrHWrl07bty4+Pj4zMzMtLQ0Ho/n4ODw8ssvT58+3draWmedKpXq+PHjOgsjIyOZnEkYNaDvfgQGUCk19XXy2B9u/3GziO5azFnkOM/5S8KsbfhcHvzUG9gIglCpVAKBoOtmBbLano4LLsS5fa5uoJLJZJ0vg3UGmWTOVCqiqUER+8Mft64V0l3LYBH+lMfCl0ZYivl8uM40YBmYST3VpFZYcfQMCzRIQCYNamo1oZCrj/337qWzOXTXMhg9NcHrLy+PFAg5HA6czRt4TJRJgxxk0iBFECRJUHHH04//fJfuWga7eYtDp88ZjkMsDTSQSaYAmTQYadRk0tWCH/feGsyjMDCKQMhZ8frYsAhXGD1vAIFMMgXIpMFFIVeXFjce3JNUkDewR2A0S57etivXPeXgaMmBjnkDAWSSKUAmDSJKheanfcm/n39AdyGgK9HThy14aQTcY8t8kEmmAJk0KGg0ZMbd8m+2JQ6e0bsHNL6As3Ld2KBQZ0gmJoNMMgXIJPPX0qz6fnfSrWsFdBcCeiZ4hMvy10ZzOGwLSx7dtQA9IJNMATLJnBEEmZ5a/uWWi3QXAnpv2ZrRY54eArcxMRBkkilAJpkthVz9077kxAt5dBcC+ip0lOvKdWOFIi5MG8gokEmmAJlkhggN+TCv9osPL8DVI7PBF3Be+0eUj78UDpiYAzLJFCCTzNCJ2LRf4E5YczRlpv/iv42iuwrQBjLJFCCTzEp9Xeu/P70E9x6ZMU9v2zfWTxDbCHAc7q6lmYGZRClaML7I8NVSsnrM0qZvpQ1gkElmgiSp3Myqzzaeo7sQ0B/+vvEZvwAHgRBmsKWTgZlEFmXLtxk6hx7bbyTv5fcxgUUXbVJTU0+fPp2RkVFfXy8SiaRS6bhx4/ROQoEQOn78+K5du3g83uHDh4VCYceXiouLly9frtMex3GJRDJy5MjFixd3nA9wwYIF9fX17U85HI6trW1gYOBf/vKXJ02y3jsGZhKcwmY0kqQunc09uCeJ7kJAP/n3p5emzRk+f3EoDN46qJAkuX379vj4eBzHg4ODIyMjW1paMjIyDhw4cOLEiS1btvj6+uq8JSEhAcMwpVJ58eLFGTNmdF6nm5vb2LFj25+2tLRkZ2fHx8dfvXp1586dzs7O7S/xeLw5c+ZoH8vl8gcPHly4cEHbbMiQISbY3a5AJjEXoSF3fZmYcgMmPRpczvyaUVrU8No7URwuG0bJGyS+//77+Pj4YcOGvf/++w4ODtqFJEmeOnVq165dmzdv/v777/n8R/NcZGVlPXz4cNq0aRcvXjxz5ozeTPL09FyxYoXOwkOHDh04cODgwYPr169vX8jj8XRa/ve///3+++9Pnz79+uuvG2sfDQSfeIaSNSk2vH4SAmlwune7bPP/xVWVN6tUBN21AJOrqak5cuSItbX1Z5991h5ICCEWizV79uyFCxe6u7uXl5d3fEt8fDxCaOrUqeHh4dnZ2QUFBQZua968eSwWKysrq+tm2gOshoaGHu2IUUAmMVFpUcMby45WlsvoLgTQprJc9t4bJ3Mzq5RKDd21ANO6cuWKRqOZPXu2lZVV51eXL1++devWjufQ5HL55cuXHRwcAgICJk6ciBBKSEgwcFskSVIUpXP9qbOioiKEkLe3t6H7YDyQSYzzx82i9944RZLQ92SwI0lq6wfnkxILIJbMW3Z2NkIoLCzMwPaXL1+Wy+XR0dEYho0ZM8bCwuLChQsajUEfksOHD1MUFRIS0nEhSZJlf8rNzT19+vTOnTu9vb3bLzL1J7iexCAkQZ04nPZrbBrdhQAG2R9zo7amdcbzATDPhbnSniKzs7MzsL32xN3kyZMRQhwOZ8KECadPn75+/XpUVFTHZgUFBQcOHGh/2trampmZmZ2d7ebmtmjRoo4tm5ubly5d2nFJUFDQW2+91e3hlClAJjEFQZA//Cfpym8w3wTQ9ev/7tbXtix9JZINty6ZIxzHEUIG3pZTUFCQlZUVEBDg4uKiXTJ58uTTp0+fOXNGJ5OKi4sPHTrUcYmNjc2yZcvmzJkjEj12W5VAIHj77be1jzUaTVVV1aVLl1auXPn6668/++yzvd6v3oFMYgSKov7z1dVb1wrpLgQw1JXfHshb1WvfHo9hMDKeuZFIJAihiooKR0fHbhtrD5LCwsLKysq0S6ytre3s7FJSUqqrq+3t7dtbjh8/fvPmzdrHGo1m1apVNTU1U6ZM0QkkhBCHw9HJsxdeeOGtt97asWNHSEhIx17j/QB+dtGPJKmvtlyCQAJdu3Wt8Kstl+Amd/MzfPhwhNDNmzf1vkqSZHFxsfaxWq0+f/48Quinn35a2kFNTQ1FUefOPfHOehzHV69eLZfLd+/ebUhJbDb76aef1mg0d+7c6fH+9A0cJ9GM0JDbPr6QkVZBdyFgAEi7Xbr1g/NvfzAJ7lsyJ+PGjYuJiYmPj589e7aTk5POq0ePHt23b9+mTZuioqKuXr0qk8nCw8OnTZvWsY1Kpfriiy/Onj27aNGiJx1JR0REREREJCYmJicnh4eHd1uVUqnUrrm3u9VL8Mmmk0ZD/uuD8xBIwHAZaRX/2nxeoyHpLgQYjaWl5csvvyyXy9evX5+fn9++nCTJ48eP79+/39XVdcyYMejPE3dLliyJelx0dPSYMWPKy8vv3u1qjOY1a9bgOB4TE9Nt0shkMm3/8sDAQCPsYU/AcRJtCA259YPz2emVdBcCBpjs9MqtH5x/9+NoOFoyG88//3xdXd2RI0dWr14dGBjo7u6uUCjS09MrKiqGDBny6aefcjgcbeT4+Phoz/XpmDVr1rVr186cORMaGvqkrbi6us6dO/fIkSM///xzx452SqVy37592scEQdTW1t66daulpWXGjBk+Pj5G39muQSbRgySpbR9fgEACvZOdXrntowv/+CgaujyYBxaLtWrVqrFjx54+fTozMzMnJ4fP57u4uCxcuHDy5Mk8Hg8hlJCQQFHU7Nmz9a4hLCzMzc3t6tWrLS0tXWxoyZIl58+fj42NjY6Obu+5p1QqY2NjtY8xDBMKhd7e3tOnT580aZJR99IgMC44DSiK+mrLpbTbpXQXAga24BEu//f+REglo6NrXHDzBnNVMJRaRXy7/Rr0sgNGEfGUx5q3xsPU6cZlojn9YP4kQzIJzkf3K3mr+se9tyCQgLHculb4/e6bBHR5GAgGcyAZDjKp/8iaFKeO3oORGoBxXfntQdzxdI0aYgmYA8ikfpJd3pSXXRP3SzrdhQAzdOy/qck3CjVqmNgCDHiQSf1BptSIBJxhoU6zXgiiuxZgnv7z1dW8nBo4iQcGOsik/mDJw5d8n7zpVMa8xaErXh/b/RsA6Ll/vv9bdVUzBbOcgIEMMsnkKAq9c/yeTKm5nFu95Ifk4LHu73w8me6iBgDo4txTJEl9teUiTLYEBjToC25aTQp1Qkbl1t9y2pfYCrl7/hrGalV/8MYpGgujEYYhBycrqaOlnVRkayeytRPa2YssxXyBgMPj4ziHjbNZGAvDMERRiKIogiA1alKpULe2qptlysZ6RV1NS2WFrLqiuapCVlneBB/hjoJGOK/bMIHDgcmWes9EfcEHObg/iX5NCnVuVfOqn/UMrBuzINRLzP9iw7nqSvOf4NzCkjdkqMTD29bHz97Nw8bWTihvVWvUJMZCXB7O4/VyMBGVUkNRiMtj19W0Fj2se5BTU5hX9/BBbbNMadz6B5xpc4bPWRAsEHLoLmSggkwyBcgkmpEUapCrZuy+rnzCZecNk4dFD7P/Ycf120nF/VxbP7CRCP0CHQJDnPwCHaxthfJWNZfH7nX8GEKlItQqgs/H6+vl6allmfcrs+5X1te2mm6LTPb3jc8EhTnjMAdgr0AmmQJkEv3WHb17Na+2iwZ/Hen62tPep2PTTh29329VmZSPv3REpGv4GA8bW4FSSYgsuLSUQVGUTKbk8zk1lc1/JBXf/aM0N7OKlkpo9NXe5yX2urO3AUNAJpkCZBKdCJL65vf8H5K6H69hgo/9tueDEs8/2B9zox8KM5FhAQ7hY9wjx3uyWBiOs/kCBo3t29KspCiEKHTreuHNxILBM+6tp7ftR18+R3cVAxJkkilAJtGmVaU5l1m15UyWge39HS2/WRBaklOz9YPzJi3M6BycLMc8PSRq0lAOl41hyNKKT3dFXZG3qjUaQqUkfr/w4MaVh5Xl5n8lb8pM/3mLQ/l8Bv1EGBAMzCR5q7pHF+2aGhRW1oz+P2JSkEn0UGnIB9XNS3/8g+zJX6y2Mx67Vb15gHTGGxHp9sxUX78AB7lcJbYeYD8n62pbLSy42RlVF8/kmOXFvI7e/mBSQIgTDNLaIwZmUn5u7UfvxBu4zsBQp1ffiRKKujqbfffu3bi4uIyMjPr6eg6HY2trGxISMmPGDG9v7/Y2eXl5q1evftIa1q9fr51gYubMmWKx+KefftIu//TTTy9fvrx3715PT08DCzY6AzMJfkAZGYXQJ2eyehRICKG6VtUL+5O+WRC67bt5n//jTG1NVzOg0AjDsEnP+k6d6c/hsfl8DpfH5vIGWCAhhGwlQoTQsOFSDy/bxX8LT/g1/UJCjrn+OIvZ+vuX3861sOTRXQjoCkEQ27dvT0hI4HA4QUFB4eHhKpXq4cNU3yKyAAAgAElEQVSHp0+fTkhIeO2112bMmKFtKRaL586d23kNZ86cUSgUjo6O/Vu48UEmGZNCQ+y5+jC7qrl3b3/1cOp7U4d9uGPGd/++dudWiXFr6yMulz1llv/0OQFKhdrWzhyunHN5OJeHI4RmvRA0b3Fo3PH0cyczVSpzGzJOIVfv3X59zdvj4Qwek3333XcJCQlBQUEbNmywt7dvX56env7xxx/v2LHDx8dn2LBhCCE7O7u1a9fqvP3kyZNyuXzBggUBAQH9WrcJQFdRo9GQVG5Vy8Gkor6s5LOz2ftuFq555+nnng80VmF9hGHYc88HxBxcMHWmv8iCax6B1JHYRiAUcac857fzhxeeez7A/MaPSE0puXHlIdy2xVjV1dXHjh2zt7f/5JNPOgYSQiggIGDjxo3PPvtsF8fx+fn5e/bs8ff3X758uemLNTn46WQ0OAvbcdkI81D8N7m4tEGx7cUwB2fL7+jujPfMVN95i0MoEvH4OM+sf2iLbQQIoWfnBEyfG3D0p9RLZ3O6fcsA8v3um6HhLnRXAfS7cuUKQRCzZ88WCoWdXw0ODg4ODn7Se+Vy+ZYtW7hc7saNG9lscxi8A46TjKNVRey/UXC7uMEoa7ucW/3iweTQpzze+SjaKCvshaARzp/tmDn3r8GWVvzB01nI0opnYclbuHTEv3bNDgpzprscY/ou5qZSAUPhMVFOTg5CKCwsrBfv3b59e0lJyVtvveXg4GDsuugBmWQc1c3KfdcKjLjCzArZ/H1JIherT3bMNOJqDWFtK3h9/dOvvh3l4m494PrUGYVAyHF0tnr1nahX3x5vbWMmfwNpt0vvpZbRXQXQo6GhASEkkUh6+sYzZ85cuHBh1qxZ48aNM0Fd9IBMMgIKoa8vPlARRp66pq5VNX9/UilBfnlgvo1Ez0G9KTwz1XfbnrkhI1xgtDSBkBMY5vzFnrnPTPWluxbj2Lv9OhwqMRCO4wghknzsC2TDhg2TO5g+fbrOu4qKimJiYry9vbvoGj4QQSb1lUJDnkwrT8yrMdH6Xz2c+nth3ZaYWSEjTXs9wN7BYsMnU154MYzDYXO45nBiuu+EIi6Xy35+Uci7H0+2k1rQXU5fKeTqwwdvq82ub+FAZ2dnhxCqrHxshJHIyMgZf9Lp+IAQUiqVW7ZsYbFYmzZt4nDM6ucjZFJfNSs1O68YoWtDFz49m73vZsFrGyY8O3e4iTYxfqL35zGzvH3t6BqhjsmsxHxvX7t/fjNr3ETv7lsz2/n47MoK8x/AYmAZPnw4QujWrVsdF86ZM2fdnzw8PHTe8s033xQUFKxbt87V1bX/Cu0XkEl9otKQX1/MrW9Vm3pDP90q3nAyfcFLI19eO9q4a8YwbPWb4/66fBQcHnWBx8c5HPai5aNWvDF2oHcW37v9GmHs88ygL8aNG8fj8U6dOlVTY9DplkuXLiUkJEydOlU7ZIOZgUzqPZJCSYV1ZzL6aUzPy7nVLx1MDhvv+c6HRvsgenjZfvGfOaHhLnB4ZAiRBTd0pMvnO2d7eNnSXUvvFeTVMe2O7EHOwsLilVdeaW5uXr9+fVHRYzc4KpXK2NjY1NRUKysr7ZKysrKvv/7a3d399ddfp6NYkzPnO05MDcPQfxIf9ucWtZ3xvv1r2Gc7Zr7X55Hxxjw9ZNW6p2AktB6xFPMFQu6H26Z/u/3ajSv9+q9vRPt2Xg8d5YLDXLSMMXPmzMbGxoMHD65cuTIwMFA7Kl1FRcX9+/dbW1v9/Pw2btyobblt2za5XO7g4LB///7O65FKpfPnz3/SVv73v/+1Z5sWh8NZuXKlMfekzyCTekmuJs5nVWX1+yyx2s543ywI/frA/I/fju/1nHVz/hL87OzhEEi9gHNYCKGlr0Q6OVv98vNdusvpDXmrOv7XjGfnDIcp0pljyZIlo0ePjouLu3v3bm5uLkmSEonkqaeeioqKGj360Rn7qqoqhFBycnJycnLnlfj4+HSRSRcuXNBZwufzmZZJMC54LxEktej75AfVvRzaru82Th02dZh099bf793p8U0nf3ttzMjR7nC+ro9amlVZ9yt2/PMK3YX00s4fXrASD5a7oXuErnHBzRvMVWFCcjURn17x2dlsest4McL91SivowfvnDmRYeBb+Hz8jQ0TvH3tGTXt3sDV2qIqLmz46uMLigF4389TE7xeWh0JY7N2ZqI5/WD+JEMyCfo49AbOwn5Oof8q8Y+3itafuL9w2YilqyMNaW9tK9j4+bThwY4QSMYiFHHdPKw3/XOate3AG+7h2uV8WaOC7ioGkcEcSIaDTOqxVhXxS2rZw1pGTHF0ObfmpYMpo54e8tbmbjrjSR0tN30+zX2IDTbQ+zIzjFDEdXSx2vDJFKlj978BmSb24G2VcuAd4QEzBpnUY2wW9vMfDJqcNLNCNm9fkqWH+JPtM57UxtHZ6t0tk+0dBvxIBMzE4bAdna3e/Xiyo7NV962ZJPlaYUM9HCoBBoFM6pkWlebI7ZLiejndhTymrlU1f19SGUX9W9/IeFJHy3c+jLazN7d5j5jGTip658PoAXe0dPSnO+Y3kyEYuCCTeoaFYbG36b+SpNfa2NTLhfWffTMrIOTR/Mc2EuHbH0yyk0Ig9Qc7qeidDycNrGtLSVcLmhrgUAkwBfvDDz+ku4YBo0VJxN4uuZBdTXchT/R7Xg1BoXUvjVK0qvJyavh8fP2WyY4uVnANqd+ILHgBwU43ruRrNANm/B6FXB0Y4szG4RdqG4qiCIIws7FNaadSqXg8XrfNoC94DzQrNS/sT6pi/BzSTw+12/Z80KUzOa4eNp5etuY9PywDURRKu1361ZaLdBfSA3CvUkcm6gs+yEFfcCNrlKuP3y1jfiAhhK48qHnxh5TwCV5DvCGQaIBhyMfP/m+vjaG7kB4482sGTK0EmAAyyVAiHn4us5+GW+27p7wkGIZxeRBI9BCKuKHhrnP+Ekx3IYZKOJGBwUBTgAEgkwyi1JAphfUZA2TimXAPm5VPeVrCERKtrMT8qTP9xzw9hO5CDEKS1JVzuQq5yWddAaBrkEkG0Q4mRHcVBpGIuP+cHchhw78s/YQi7qo3nhooE1ucO53Fho8NoBt8BA2iJsjfsqrorsIg/5wdKIKp+RhDoyFW/984uqswSFWFLDu9Evo8GU7d1LPBXOSV9SaqxJzA6Z3uNSrUp+6VqwbC1JyvP+09zMECDpKYg8vDRSLuy6+OPvDNTbpr6d5vcdlDfOxgwHgDNWaXnIpca2Bj58kjn4ndrPel4uLi5cuX6yzEcVwikYwcOXLx4sVSqbSLlh3FxcVxuVydZmw229LS0tPTMzIycvr06UKh7m31CKHS0tJjx46lpqZWV1djGGZvbx8aGjpz5kztTE79CTKpe5Y8fEAcJE0aZr8o3I0LgcQwYhvBiAi33Mzqqxfz6K6lG6kpJeRA+O1lltzc3MaOHdv+tKWlJTs7Oz4+/urVqzt37nR2dm5/ydnZOTJS/7DLbPajcyTtKyQIor6+/t69e3v27Dl8+PD7778fFBTU8V0JCQk7duzQaDS+vr7PPPMMSZL5+fknT56Mj49ft27dtGnTjLyrXYJM6gZJUbcK63OqaJsnyUBDJKL3n/WHQGImKzF/6SsRWfcraxj/Qbr++8MpM/zgJuv+5+npuWLFCp2Fhw4dOnDgwMGDB9evX9++0Nvbe+3a7o/PdFZIkuRvv/22c+fOjRs37tixo/0AKCUl5euvv7aysnr//fdDQkLa29+9e3fLli1fffWVt7e3j49PX3atR+ArrButKuJkWjndVXRv07RhHOjLy2BKhcbAKUXodSE+myDgmhJTzJs3j8ViZWVl9X1VLBZr6tSpb731llwu//bbb7ULKYr6z3/+Q1HUBx980DGQEEIhISH/+Mc/hgwZUl7er1+AkEndaFURzD9xtyTC3cNWxId5rBnMUsz38LJ5Zqov3YV0o7JcVjVA7nkYDEiSpChK7xWg3nnmmWeGDBmSkpLS2NiIEMrLyyssLAwNDdU5m6cVERGxZ8+eqKgoY23dEJBJXWlVESfvlZHM7orkaMVfMcbTRghjczGd2Fqw6G+jrG2YPmLN7xfySJLRn/nB4/DhwxRF6RzB9NHIkSMpitIee2n/DAsLM+L6+wiuJ3VFyGWfy2T6QdKKsZ4ITtoNEBRJvfRK5I5/Xqa7kK5cPpvzl6Uj6K5i0CkoKDhw4ED709bW1szMzOzsbDc3t0WLFnVsmZiYOHny5M5rWLVq1QsvvNDthiQSCUJIe5yk/dPOzq6PxRsRZFJXMiqa8moYMZ/sk4S6Ws8KcmLDlaQBgsfHA0OdgsKc790po7uWJ5K3qgvy6jy9B8atvmajuLj40KFDHZfY2NgsW7Zszpw5ItFjc83o9NBr5+fnZ8iGlEolQojL5SKEcBxHCDFqJG7IpCeqkimv5NbQXUU33nxmKATSwMLj44tXhK9/9QTdhXQl8cIDN89RMKxDfxo/fvzmzW03MGk0mlWrVtXU1EyZMkUnkNATeugZrrKyEv15tKT9s6KCQYPUwGfuifgcVnIRo++7fna4o5cdTNY38FhY8hje2eHqpXwIJBrhOL569Wq5XL57927jrpkkyaSkJIFA4OvrixAaPnw4QujmzSfe0F1QUGDcAroFH7snUmrIuyWNdFfRldcneAthGKEByNKKN29xCJPvAVLI1UUPGf2DzOxFREREREQkJiYmJycbcbW//PJLXV1dVFSUdno9Z2dnPz+/Bw8eXLlypXPjrKysVatWxcTEGLGAbkEm6des1DD8xN3Loz04bOZ+qYGuaTTk9LnD6a6iK9cvD6Spcs3SmjVrcByPiYlRqVR9XxtJkidPnty3b59YLO546u/VV19lsVhffPHF77//3rF9amrqxo0bcRyfPXt237duOLiepJ9SQzL5xJ1ExF09zguHTBqwbGyFM+cH/XY6S6Ui6K5Fv1vXC+e/yKAuwoOQq6vr3Llzjxw58vPPPy9durR9eV5e3q5du/S+JSoqKjAwUPu4oKBg3759CCGKourr69PS0iorK+3t7T/66CNra+v2t/j5+b333ntffPHFli1bPDw8/Pz8WCxWfn5+dna2hYXFZ5995ubmZsq91AWZpJ+NkJNSyNxMmhnkVNuqcrDsfnJ7wFhyuXrKLP/TR+/TXYh+tdUtsiaFja3R7tYEvbBkyZLz58/HxsZGR0e7uLhoF5aVlR0/flxvexcXl/ZMKi4ujo2N1T62sLBwcnKaOXPm9OnTO09A/vTTT/v4+Jw+fTo5OTkxMREh5OjouHjx4lmzZtna9nf3S4xRvQCZI6208eWf/qC7iic6tXqss5hPdxWgr1qaVa++GMvY/4Kr/2/cmKiBMSehcREEoVKpBIJu7m6uSc7u6bjgXGuLPlc3UMlkss5x2BkcJ+nRKNdcyKmmu4onmuwntRbAqA3mQK0mJj077Hx8Nt2F6HftUn7kU54sOEX8BHbhw14mLxjeHuZPMgT0cdCDxUJJD+voruKJFo1yg+525sHaRjBtNnN7Oty7U8bgvoEDj8DBhu4SBgDIJD0IksqtZuicAj72FgFOVnRXAYyGy2WPiOzXa8g9UlEO47GCfgWZpIui0OVc5p64+8soV7pLAMbEF3ImTmPu/bOZ9xh0hz8YDCCTdDXI1dfyaumuQj82C5vsJ4XBhMwJj4cPC3BwcOr+2i8tbiYWwBjhoD9BJunisLH08ia6q9BvZqAT3SUA41PK1WOeZmj3ttzMKhb8BgL9CDJJj0qZku4S9FsU7ibiQldJc2Mp5k+Y0n9zS/cISVI1lQy9tgrMEmSSrmym/g8McRHDPUnmis/nDAtwoLsK/XKymHt5FZgfyKTHNMjVWZUM7WgUNdSOA0M1mymBkDPp2WF0V6Ff2h+lBAx8B/oLfMc9Rqkhc6oYmknjve1wOLNvvgJDGXqxsCCvliAgk0A/gUx6DI/Nyqli4rk7IZftKYGRx8wZhiEffyndVehRXtrEggN00F/go/YYayGHmZkU6WkLHXLNGxtnhYx0obsK/WqrW+guAQwWkEmPKaxrpbsE/Z4LdIQTd+aNx8NHjWbogA6lxQ10l8BIZA876BIM/XphFOhY/AiF0L0yhk4sG+IiprsEYHISqYW1raChTk53Ibryc2pGRDA0L+mkqafKfzK0Md8Ds5/VxetJSUlxcXHZ2dlNTU0YhkkkkqCgoIULF3p4eGgbFBcXL1++vIs1xMXFcblcvc1wHJdIJCNHjly8eLFUqnuK+O7du3FxcRkZGfX19RwOx9bWNiQkZMaMGd7e3jotCwoKjh49eu/evZqaGoIgxGKxt7f3nDlzIiIiDPpLMABk0iNNcjUzT9w5WvFhIPDBQN6i8g9yvHHlId2F6MrLqSFJCm6eNZ1Dhw4dOHBALBaPHz9eKpWq1eq8vLyLFy9ev35969atvr6PRp9ydnaOjIzUuxI2+9HQzG5ubmPHjm1/2tLSkp2dHR8ff/Xq1Z07dzo7O2uXEwSxffv2hIQEDocTFBQUHh6uUqkePnx4+vTphISE1157bcaMGe0rSU1Nfe+99zAMGzt2bHR0NJvNLisru3r1akpKyhtvvNGxZV9AJj1CIcTMTJo4zJ4F4zMPApZW/GHDpQzMpPLSJoqkEGSSachksh9//NHZ2TkmJqbjDENJSUmbNm369ttvt23b1r7Q29t77druJ23y9PTsOMG5ljb5Dh48uH79eu2S7777LiEhISgoaMOGDfb29u0t09PTP/744x07dvj4+Awb1naXwt69e0mSjImJGTp0aHvLF1988dVXX927d+/EiROFQiP0w4JMesSShzMzk6b4MbE7FjA6FhsLDHWmuwo96mtbEeSRyZSXl2s0mlGjRulMeRcZGfnuu+/a2dkZa0Pz5s374YcfsrKytE+rq6uPHTtmb2//ySef6MRJQEDAxo0bL1y40HHS16KiIjc3t46BhBBycHDYsGGDSqXCjPS7GTLpEZlS0yhX012FHj5Shg7QCYzORiK0sOQ1M290K1mT0tqmm3lXQe84OjoihNLT05VKJY/H6/hSdHS0ETdEkiRFUe3xc+XKFYIgZs+erff4Jjg4ODg4uOMSJyensrKy8vJyJ6fH7qUbOXKkEYuEfnePFNQysVeMr9QC/pEGj9YW1ZChErqr0AO6g5uOlZXVtGnT8vLyVq9effTo0fz8fJI0yU3Khw8fpigqJCRE+zQnJwchFBYWZuDbFyxYoFQq165du2/fvrS0NJVKZYoi4TipDUlRVTIF3VXo4WUngjuTBg8WC/Pwtr13p4zuQnRVljV5+xrtJBLQsW7dOjs7u19//XXPnj0IIQsLi5CQkMjIyIkTJ+ocOSUmJk6ePLnzGlatWvXCCy+0Py0oKDhw4ED709bW1szMzOzsbDc3t0WLFmkXNjQ0IIQkEkN/A0VHR2MYdvDgwdjY2NjYWA6H4+/vHx4eHh0dbcQTjJBJbZQaslGhobsKPTwlQh4OR0qDhYUlz82DiTNkFxXUj+2+FeglHMeXLl26ePHi+/fvp6ampqWlJSUlXbt27bvvvtu0aVP7kQ3q1KGunZ+fX8enxcXFhw4d6rjExsZm2bJlc+bMEYlE7RtFCOkck23YsCElJaX9KYfDiY+Pb386adKkSZMm5eXl3blz5+7du/fv309LS/vhhx9WrVo1d+7c3u9/B5BJbTQkxcyLSb72cDFpcGHsuTulQsPjwzeGCeE4HhoaGhoaihBqaWlJSEjYv3//li1bDh482H7JR2+Hus7Gjx+/efNm7WONRrNq1aqampopU6a0BxJCSHtwU1lZ2bHHXWRkpPb6FkIoKSlJeyylw9vb29vbe/78+RqN5tatW//+97937drl6+sbEBDQyz3vAH6AtyFIqoGRmeRuCxeWBxepowUDe/7X18lhJNb+JBKJ5s+fP3v27MbGxvaecr2D4/jq1avlcvnu3bs7Lh8+fDhC6NatWx0XzpkzZ92f2m/X7WLNY8eOffPNNzuvp9cgk9pQFEOPk+wteN03AmaktUXt4GRFdxW6GuvlbBiJ1TSOHDny9ttvNzbqGUSGw+EghBSKvl7qjoiIiIiISExMTE5Obl84btw4Ho936tSpmpqabtdw8+bN9957r+NpPaMXqQUfskcYmElsFmbBg7Mlg4tGQ0gdGXfCtqlRgXPg68Ik5HL53bt3t2/frlY/9hVUXl7+22+/4TiuPaDpozVr1uA4HhMT095fzsLC4pVXXmlubl6/fn1RUVHHxkqlMjY2NjU11cqq7eeRUChMTk7etWtXdXV155YIoY4XvfoCvu/asDCMgefuXK0FKoLkwu/TwYSDs+2kou7b9S+FXG2smyKBjoULF6ampiYmJqalpUVGRkokEoIgSktLk5KSCIJYt26dtbV1e+O8vLxdu3bpXU9UVFRgYOCTtuLq6jp37twjR478/PPPS5cu1S6cOXNmY2PjwYMHV65cGRgY6OnpiRCqqKi4f/9+a2urn5/fxo0btS2Dg4MXLFhw+PDhZcuWhYeHu7i4sNnsmpqamzdvymSySZMm6e150QuQSW1wFsbA4yQXawGCnuCDjNCCa2vHuExCCKmUGj6Mu2gCPB7viy++OHv27KVLl5KSkmQyGY7jdnZ2EydOnDNnjo+PT8fGZWVlx48f17seFxeXLjIJIbRkyZLz58/HxsZGR0e7uLi0Lxw9enRcXNzdu3dzc3NJkpRIJE899VRUVNTo0aM7vn3lypUjRoyIi4vLyspKSkpCCInF4oCAgClTpowfP75PfwUdYB2HjhjMVAQ5ZedVmZJZ3cFfCHP5x2RfGOxusLl+5eGer6/SXYWund+/YGXNp7uK/kAQhEqlEgi6616kqujxuOCswXt5WCaT6QyepBccJ7XhsFlMCySEkJedCAJpELJhZGdLJfP+g9CM64h5vN2D9jB/kgHgQkUbuYqguwQ9PGyZeA4HmJqFFRN/TSsZeVP5QMI2wrDZZg8yqU2rion/36yFcPp+MBKJuHSXoIdCwbgLrsD8QCa1YeCJO4QQB2asGZR4fCb+FoHjJNAPIJPaECQT+3pw2JBJgxGHy+6+Ub+DTAL9ADKpDZuRRyRsFvwDDUY4I0fdVTHymiswM0z86NMCZ+S3Pwk99QclZt6dqmLkNVdgZqAveBuckcdJEEmDE4ahH359ke4qAKABZFIbFiMzCY6TBidCoToofJbuKnSN/PRvwRsW0V0FMHNMPGFFCzhOAsyhamLiROO4aFAM4gDoBZnUhs3IM/hwnDQ4qRsgk8AgBZnUhpFdHCCTBilFrZ6pdGiHCyGTgMkx8puYDszsCw6RNDjJK+rpLkEPXMDEEY/opJb3rL2yyTR1mBXo49CGmUOdKjRwR8hg1FrW/byf/Y8thEx6XHMFeXmLgW0xaQAWsaaLBklJSXFxcdnZ2U1NTRiGSSSSoKCghQsXtk9AXlxcvHz58vHjx2/evFnnvY2NjfPnzw8ODv7yyy/bW+q0wXFcIpGMHDly8eLFUqm0ffmCBQsIgjh27FjHxsXFxW+++SaGYV9//bWrq6uB+2gUkEltmHk9qbCuNchZTHcVoL+1lFR336jfwXGS6Rw6dOjAgQNisXj8+PFSqVStVufl5V28ePH69etbt2719fXtxTrd3Nw6zrPX0tKSnZ0dHx9/9erVnTt3Ojs7P+mN1dXV69evJwjiyy+/7OdAQpBJ7ZjZF/xBdQtJUcw8hgMmQqo1yhomXk9iC5g4MqwZkMlkP/74o7Ozc0xMTMcZhpKSkjZt2vTtt99u27atF6v19PRcsWKFzkJt+B08eHD9+vV639XU1LR+/fqmpqZ//etfXl5evdhuH8H1pDaMjCRU1ihXaEi6qwD9ilRrFDVMvPDAs7WiuwTzVF5ertFoRo0apTPlXWRk5LvvvrtkyRIjbmvevHksFisrK0vvq3K5fOPGjeXl5R999NHw4cONuF3DwXFSG2Yei5Q2KGDu88GGIkhrf3dcxG8prmoprm4prqIIRvwuEUit6S7BPDk6OiKE0tPTlUolj/fYCdLo6GjjboskSYqihEI9MzlpNJoPP/wwNzf3/fffHzFihHG3azjIpDatKsJZzC9rVNBdyGPKGuVcRg7HCUyHhSi/ZdEskZAtFOAWAk2zorW8prmwqim3RPawXJtSLcXV8oq6/qwKY2EsLnxdmISVldW0adPOnDmzevXq5557bsSIEZ6enizT3J5y+PBhiqJCQkJ0lpMk+fnnn9+5c+fdd9996qmnTLFpA8GHrI2GJJ3FAqZlUpNCQ5AUM8eYACZCadQCVwdVWYU8I1Oe9YBobuY5O1q5u1hP8Gc9F84SidgiPi7iK6oaWktrZA/LG7NLWkqq2rNK1dBsiqpE7g4auYrLZeLETmZg3bp1dnZ2v/766549exBCFhYWISEhkZGREydO1DlySkxMnDx5siHrLCgoOHDgQPvT1tbWzMzM7OxsNze3RYt0x4jasWPH77//zuVy27v50QUyqQ2GYc5iJt4SWNeicmJkYcBEWIQcU6k5rBaOHRKMcMbsXFh2zixLK4ogVGWVynv3FA8eqqtqEaIEfkPt3F2lgaMxkYjF5+MWQoSo1or6luIqWV6Z7GF5+9m/luJqQqHqS1UW7lKGnEI0SziOL126dPHixffv309NTU1LS0tKSrp27dp33323adOmjoc1Tk5OI0eO1Hm7SqU6d+6czsLi4uJDhw51XGJjY7Ns2bI5c+aIRKKOy5uams6dO/fSSy8dPnx48+bNu3btsram7TwtZFIbPs5ysRbQXYUe5U0KyKRBBZPYkZSSZTkUo4aylSqK1CCcgyESKWQcqpFjQ4hCHCnbEZidE9tSTFGkqrRClZ+vzC9UlVYQTTLc1kbg620Z4sp6JhDjCVgCHsdSqJa1tpbXNhdUNOWUtpRUtZRUt2eVgVWJ3OxZOBNnGjQnOI6HhoaGhqZwA7YAACAASURBVIYihFpaWhISEvbv379ly5aDBw+2XwEaOnTounXrdN7Y2NjYOZM63smk0WhWrVpVU1MzZcoUnUBCCHE4nK+++srPz8/Nze3TTz/96KOPvvjiCxynJx0gk9pw2Cx3WyZmUlalbIQbXFseRFRkVZ3ydNsTDBPwfHgsNw5LwrKyZFuJEUFSSgWiCExgSakUqLWJQzbgwlahvy01LhizkbIsrRCFNNU1qtIK5cMiVWm5qryKUih53p4i3yGSicMxm7EYX8AW8NgCrqKqoaWkuvlhhSy//NEJwJIaRXWDTlVWPq5wz2x/EolE8+fPr6mpOXbsWFZWVh87HeA4vnr16o0bN+7evbvzLbcCgcDPzw8hNGHChJycnCNHjuzcufPNN9/syxZ7DTLpEXcbPX1RaFdY19qkUFvx4Tz+YKEkijo8o+SaHDnK6diAx3XhsT25LIrNF2I8O5bEEalUlEKGOHxMaEU11VKyenZzI5/dwPcSotETMSs7TGSJsdmaunp1WYUi+baqrFJVXqGuqMI4HGGgv43PEMe54ZilGBPwcRGfIkh5ZX1LUWWj9qCquLq1pFrs5w7HSSZy5MiRpKSk999/XyzWvUGew+EghBQKI1znjoiIiIiISExMTE5ODg8Pf1KzFStWPHjwID4+3tvbe9asWX3fbk9BJj3iaMXEU2RljQoVAf3BBwsKkWqysus2SqJUSZR2XMLGxAKRD4/lyKZYLJGQZWGFXLmouZ4iCcQTYQhRTTVkYw3WIuOqW7nObGxUFLKwxgQijMPR1NarK6sUOfmqiip1ZZW6rFJdW891kgoC/ByHenKfCcBEIpZQwLFk4i828yCXy+/evbt9+/YNGzZoQ0irvLz8t99+w3HcWLcKrVmz5vbt2zExMXv37uVy9d8BzWKxNm7c+Oqrr+7atcvd3V17IrE/QSY9YsXHcRamIZkVAKklDXYiuH9+sNCQMjF3IoU0BNWkIkpVZKWa7P6SD0E1NqtTHu9vh4u4w7hsVxzjsAkcs5Gw7ZwQqaGa6xAuxPhCStFK1ZaSdZWYooVLEFwpCwsdjYlskEDE4nE1dQ3qikplUans8jV1ZbW6ospl81u4xMZUuz24LVy4MDU1NTExMS0tLTIyUiKREARRWlqalJREEMS6deuM1ePA1dV17ty5R44c+fnnn5cuXfqkZmKx+IMPPvj73/++ZcuWb775Rnv7VL+BTHqkWalxFguK6lvpLuQxrSriQXXzUHsLugsB/aFRpbxc9hsLY3laejsLXax5fhwWj6RUarJaRZSoyWoNZeCwQ5oWTXqLJr3jIj57CF/kwWFxWKSCxcMxZw/k5I5aGykKQxwBxuFRsjqq/IGmugypFDhFcuxErODRlFCMCYSknFm3SZgTHo/3xRdfnD179tKlS0lJSTKZDMdxOzu7iRMnzpkzx8fHx4jbWrJkyfnz52NjY6Ojo11cXJ7UzMfH5+9///vWrVs3b968fft2gaD/rrVjFEyH8KfqZuWH8Zk3H/brrYiGWBvltXiUG58DZ/PNX2ptyoPGbJ2FYo7YzXKIk9BGiAtZGJugWlVEuYosV5M1JNWnn1AcloMA9+KwHHBKiJEsjMVBLDZSNFEaNWLzMS4fkSTZWEvVlLGGBGD8wXL6jiAIlUrV/Rdx/cMejwvOGSx/h53JZDKdwZP0guOkxzDzFqWkgvq/jnSjuwpgcmpSXS3XczGpUd3YWJd6/88fS85CNxeRq73A1YrLxxClIeuVRImarFGTNRRS93CLlWrVY1tksywE+FAuzwVHAhahwlgclr0zshBSHBhPpBObIay53/WgPcyfZADIpEe4bJazmIndwf8oqmfmlIPAuEiKaFTpdsLurKy1uKy1WPuYy+J6WHo5Cz2suMP/PMtXqT2EUpO9mYSJIJubyVSkTm1fwlLhVtzxAvbQXqwNPIYHg9h2DzLpEREPZ+ZxEkIoo7wpDO5SMne1yh6niIpU5TZm5Ta2DfMs4dm5Wng4CAKtuTwWhmuoJjVRoSar1GSNwReidJFIQyES5hAA/QMy6RGchQ2Tdn+6kxaXcqu97S2s+PDvZbbUpKqitbT7dl2qVdZ0DDZ3iyHOIhcJ38OSxcUQpiarVWSF9hCqRxeiOCy7PhYGgIHgO+4xrjYCHs5SMm/KouTC+teivOmuApgQhrFqFEae8ryo+WFR80PtYyFu4WHp6SjwtOIOx1lckpKryWoVUWnIhSgcg8mOQT+BTHqMTKEOdhEnF9bTXYiunKrmmhYVY08tgr5TE6omAy4m9Vqrpjmz/n5m/X3tUweBk4uFu5QfYM3jsTGemqxT/3kIpXMhio3pDo8GgOlAJj2Gy2aFMDKTEELX82uj/aTWAhhkyAypSXVJS1H37YynUl5eKS/XPtbeDuUkdLHlDbHkcDCE1FSNiqjUkDVqsobNsqCQBkPwwQP9ATLpMSIeHulpu+96Ad2F6PFHccMzvvZ0VwFMAkOoqLmArq2TFJnflJvflKt9KubauFt4OAjdLTj+OItLUHIMg3vjQD+BTNI13JGh3Rwu51S/+Qz0xzVPLZqWemUt3VW0aVTV36urv1fX1h18oss0W56E3pLA4AH9O3VpSMqHkQP5qAjy+N2yZqWG7kKAkalIVW5jJt1V6MfCWDZcW7qrAIMIZJIukkJBLgy9te1MRqUARhgyO2yMXdLcrxeTDOcodCYogu4qwCACmaTLio+HuzP0h2FRfeuF7CoV87qqg14jKKK0uUhDMfTw10HghLPgDD/oP5BJeoS5MvdujON3y0gYNte85Mlyum9EEyfhE4eOBj09kV7XojJRJeYEfgHpIRZwHCx5lTIl3YXocauwPq+mJcCJoWcXQU8pCEWtsW+VNRYBLuSwYO6uJyqsa33pYIqBjSM9bf81O1DvSzExMSdOnFi7du3cuXM7LlepVKtXr66qqtqzZ0/7vBJJSUlxcXHZ2dlNTU0YhkkkkqCgoIULF3p4eOis9u7du3FxcRkZGfX19RwOx9bWNiQkZMaMGd7ej919v2DBgvr6trtfMAwTiUROTk5hYWGzZs1ycHAwcO+MCDJJD4WGCHS2qszufi41Why9U+puI7SEcYYGvmZNKwuhSOm4rIb7hoy+2s88LLwQgoNyk1u5cuWdO3f2798fERHRcU6jH374obi4+PXXX29feOjQoQMHDojF4vHjx0ulUrVanZeXd/HixevXr2/dutXX11fbjCCI7du3JyQkcDicoKCg8PBwlUr18OHD06dPJyQkvPbaazNmzOhYAI/HmzNnDkKIoiiZTJaTk3P48OFffvllzZo1/T/9OXyv6SHg4KPcbS4wNZPOZFS+GuVlCf92A59Mpf7wj7jZnsHjHKJUpDyz/n77faxM4Ch0huOkfsDj8TZs2PD6669v3br166+/ZrFYCKGsrKyjR4+OHDly5syZ2mYymezHH390dnaOiYnpOBFRUlLSpk2bvv32223btmmXfPfddwkJCUFBQRs2bLC3f3RTY3p6+scff7xjxw4fH59hw4Z1LGDFihUdS0pPT//888937twpEAgmT55sun3vDK4n6cFhY+EezJ3mWUWQx1LLmhQMvSoODCTXqI/k30YInShIeyfp1MnCB8NtR0xzm+VuMYTu0tpI+DD0aj8ZOnTo0qVLMzIyjh49ihBSq9Xbtm0TCoVvvfUWhrXNU1NeXq7RaEaNGqUzM15kZOS77767ZMkS7dPq6upjx47Z29t/8sknHQMJIRQQELBx48Znn32226lcAwICtm7dyufz9+zZo1D06xTDkEn6eUpEQyTMHebrTEalkAudwge2staG9PpHR0VJVQXv3Yr/T2aSq2jYLM8XhlkP57DoHM7Hmmcj18hpLGCwWbBgQVBQ0Pfff19YWHjw4MHCwsLXXnutY6g4OjoihNLT05VK3Uvd0dHRoaGh2sdXrlwhCGL27NlCoZ45bYODg998800/P79u63F2dp42bVpjY+OtW7d6v1c9B5mkH/H/7d15XFT13gfw31lmY4Z9YNh3EBFZZEdBUVGsCJXq+qhFj95Mvd1cMruldu1Gy+3e7CoEdks0S5+0xBYQEZ+MNDc0lkCRNWQTBGWbfTnPH/SYF1AGmJlzhvm+X/3B6/Cbw7ca+Mw5v9/5/jRUUgAN83taunlX8lVpa9cAE1dhAG3I1MqvGkqHH6/t7Xzj58KdVws4hMMit8WhwggBi57GInZcEQtWgRsQjuOvvPIKi8XauXPn0aNH4+Pj582bd/8ACwuLpKSk+vr6tWvXfvXVVw0NDRrNCI+F1NTUIIRCQ0MnXtKMGTMQQtXV1RM/lfbgPTcyEscW+Ntnn22gu5AH+vRSU6K/Pd1VgPFQaFQ1vZ0N/Q9cbtctE79fcYaNk2lTIuc4Lrir6L7RU9UlM+gEZ4D1dJhMMjCRSLR69eqMjAySJF988cXhAzZs2CAUCr/++uuPPvoIISQQCIKDg6OioubOncvhcAbH9PT0IIRsbXXQDkooFCKEenvHuRvk+EAmPZCTFW+ao0VVex/dhYyss1/+0bnGdXFe1mbQsNnIUBQ61jjCRdIQCo3q4+vnEUJLPUNmimYqNfLqnspWcbP+C0QERqopNbyxDIyiqHPnzmEYplKpTp8+nZqaOmQASZJpaWkrVqyorKwsKyurqKi4dOnSTz/9lJOTs3379uDg4MExCKEhl1CvvvrqlSu/L1tnsVgnTpwYtZ7Bm4RstkE/mkAmPRCG0KIAEWMzCSF0rKx10TSRFc/y3iwoYD6xUl5+p/WWZAzvq9zGstzGsjlOvkkuocG2YTd6qpr6G/Xa+sGOZ6+hoF2IoR07dqy0tHTjxo1FRUU5OTmRkZGurq7Dh5EkGRISMjiBJBaLCwoK9u3b9+abbx48eNDMzGzw4qajo+P+uaioqKjB6SiE0KVLlwavpUbV0dGBdHTJpT2YT3ogAsfmMn5viMziBhm0GjIqHII8/mvZOF74Q1vtXy5/t6+6xJHv+5h7aqBNCJ/UV7Ngbws/M5K5a3wmpcbGxpycnPDw8EcfffSll15CCL333nsjzhjdj8/nP/HEEykpKb29vYMTPwEBAQihIQsTFi9evOH/DX+69kHOnz+PELq3esIwIJMexsqMHcngReEIobKWnhNVtyCWjEWPQvp9W02fYvyLayvvtv31SsEbPxewCbsFro9F2sfacHS8YptP8kU8R92eEzycUql855132Gz25s2bEUKurq7PPPNMdXX1kSNH7o358ssvt2zZMuLsDovFQggNLtqeNWsWh8P57rvvurom1B/kxo0b586dc3R0nDZt2kTOM1aQSQ/DIvCkAAe6qxhFxg/1YtjAwkhYsrnfNlVM/Dyd0v6/l53ecP6rbjkxyzEh3nG+E99l4qcd5CJw1yD4lGNQ+/bta2xsXLdu3b0bbk8++aS/v//BgwcbGxsHj0il0vLy8t27dyuVyvtf297eXlRURJLk4BWSQCB4/vnnBwYG/vKXv9y8+R/95uVy+ZEjR8rKyiwsRmlOVl5evn37doqiNm3aZOCpAZhPehgcQ7N9hfhJjMltT/vlqn+dqduY4GPLh1VSjCZTKw/XlSg1Otv6QalR7712DiH0lNeMGFFUoHVIbW9100DDBKeCvMx9SQz+MhhOaWlpbm5uZGTkwoUL7x3Ecfyll15at27de++9N7gS7w9/+ENZWdnZs2crKiqioqJsbW3VanVra+ulS5fUavWGDRusrKwGX5ucnNzb23vw4MHnnnsuMDDQw8MDIXTr1q3KykqJROLv779t27b7C5DL5Z988sng1wMDA7W1tTU1NWw2e8uWLTpZUz4m2KgP9Jo4iUK9I+/aD7UM7TN0z4dPhYS4WHFZcOHLUP0K2aXbvw42btCTROepiS6+HIKs76tp6m+QqMTjOImDmVOMKI4w7UxSq9UKhYLH4z18WFV731h7sA5vU9nf379mzRqZTPbJJ58MX01w6NChAwcOrFy5Mi0tbbCwwsLCM2fONDY29vf3kyQpFAoDAwMXL17s6+s75LV1dXX5+fnl5eVdXV0ajcbW1nbatGnx8fHR0dH3D7u/BytCiMvl2tvbh4WFPf744y4uOrv4Hvw3HdKBYkSQSaM7Xd35yjeVdFcxCl87wScrZgg4Jv2nhLEUGlWruPfdskID/Kwwoetij+lCrvnNgV/r+2rHuqV6rGi2Dm8DGilDZpLpgEzSGalSvejDn/oZP2eTFCB6baE/H3oOMY9crXqnrLBdYrhnD1351it8w90Ftp3SW/V9Ne2SVm1excLZj7unYpipX21rmUljdUessDHhG+xaZpKpv/m0gWPYfGPomHDyWsfJqlsqDXzIYJZehexg7SVDBhJCqFl8992yog0XvrwlVUfaz5zv8oiHufeok9We5t5qeCxJb0w5kLQH10lauXlHsuTji3RXoZXP0yKmOtDTIQ0Md0cuKe26eVSf00jaWOETEWHnipBmcKpJqh65ueoitxT9PfNkRPR0nWTi4DpJl+wtuPOmMP352UErPy25K1GOPg7on1yt7FfKaA8khNChupKNF3JPtdS5CXwXuiaHCiOsOEMfvLPl2nFwLi3lAXAPZJJWuCT+dKS2Dz/TLk3reVegVxjCPqn+ie4qfneiufLlS998XnvFgiWa57woRhR//7OxPhZ+BA6TkYBmkEnamiISMHmjv/u19kr/dLQMbsrSq1smPlh7qVPaT3chQ13obNx+Jf+fFadVFC/OcW6C0wI3gQdCyJnvhiFonAhoBvNJ2qIQOlvXtemYDh7CN4z18V7PRLqzCPgrQ4O2gf7a/luH60roLmQUFixuml/0VGuRRCXmElzYnGIQzCfpA8wn6RiGUJyP0F9kNMsHsn5sYHJT80lMrFAjDT7b0XeqNdMbU/UpZRlVP6w/dwQhDgQSYALIpDGQKdVLQ5zormIMVh+6WtkGsWRQSrWmrVeanH3pu8r2jYFzo+096a5odLMdfTkEzCQBRoBMGgMei3gs0NHZ0piu6NM+u3Kjc4DuKkxIfZd4Wc5lhNDO/OtZP9Y/7Ru10CWA7qIehsDwJNdpbNjmHDADZNLYyFXqx6Yz/YbMEMv3X4ZYMoyq9r4VB36fQ9p3oen1vOsLXQKe9JpBY1UPF+/owyfhrh1gCsiksbHgsp4MdbEwtqZVg7EEq1n0qqyld3j3s8LrHWsOlYfZuv/RfyYtVT0cCycWuU7jEEb2fgaTGGTSmBE4eizQ+HY8W77/ck3ngAJ2/9OPspbe1Yeujvit6o7+lL0lrmbCLUHzDVzVqOY6TeESLLqrMFYasWRM41V3tdpx3MTBWvDxuNUnezT7PN1VjMfhZyOcrXjQPly3Sprurv2idNRhx56P4HOxt0tPSlQKA1Q1Ki7BeivicQGLQ3chjKPlWnBpdW3j8y9reU5+eIjLGy8TghF2lM/Nzc3Ozn7QCw8fPmxnZ9fc3Lxq1aq4uLjXX399xGF5eXm7d+9+0Ek+//xzkUikZal6ouVacPjbNB5WPNaz0e4HLjbRXciYLT9Q8llahMicAxsA6oRUqb7YeGfL8V+0GZz6UcmnaaHvRi5+q7SggwHP0i5wmcqGu3YM4OPjs2TJkiEHJRJJYWGhpaUlnz9CjD1IcHCwl5fX8ONmZmYTKtGA4B05HlwW8d/R7ieqbnX2y+muZcye/rRkR5J/gp+dJQ9u2kyITKk+crUlo7he+5ekfVr6Qer0v4Un/7PidG1vp/5qGxWfxUlw8mNDMyEGCAoKCgoKGnIwPT0dw7CtW7eOKU7i4uJSUlJ0Wp2hwXzSOLFJfO2sET6PGIU3T1bvPHGd7iqMm0ypTj95Y0yBNGjTsV++uNqyJWh+mNBNH4Vp6RFY2sBgeXl5xcXFqampkZGRdNdiaJBJ48Qm8MeDHKc5WtBdyDj9WNe19OOLfTKlQg2rHsbs5h1J2mdXC67dGt/L/3G65oMzdc9NnZng5KfbwrRkwebOcvAhTH7vPmZqaGjIzs729/dfvXo13bXQAN6U44ch9OfZ3nRXMX5NdyTzM85dvdnTL2P6FrrModJQ5+q7lnx8se72hB75+vzyzZePVy72CFnsEayr2rSX7DYdLpKYSSaTpaens1isbdu2kaQp/j+CTJqQ6c4WCX7Gsa/SiNQa6oWjZd9UtEkUarprMQIKtSazuH7DV7rpw3um5vbK/Vdj7X1WTYnVyQm1NM3aMcLeA1rzMtOePXuam5s3b97s4GBkz+briinmsA5xSeKFeO8zNbfpLmRCPjhTd6NzYEeSv0pDmbFh0nsEUqW6a0CxI6/qF532D2zsFs/ffT7vT1EvBc1/v+K0Ds/8EKumxPLgmSRGOnXqVFFRUXJycnx8/PjOkJmZmZmZOeSgtbX10aNHJ1ydgUAmTZSdOXtZmMsXV1voLmRCTlTdaumRvrZwii2fbWMGy8T/g1ih+qWtb0vuL1Kl7q8mNRT1SObFL5+L+Ft48tulJ2Vq/e4RvMw7nMDgGomJmpubMzIyvLy81q5dO+6TjLgWfEyryWkHmTRRfDa5ZqbnqeuddySMeBBy3Cpae5flXH5qhsu6OE8Sx+GCaVCPVPnGies/1nXp9ac8+XHJxytC34lMeaesUH/bAHpbCGNFXjCTxEAKhSI9PR0htH37djZ7/B8KYS04QAghNok/H2cEWxJo4+jPLY9mn/+ush1mmCgKfftL+7w9Z/UdSIOeO1R6trbnzfBkHwt9zVCm+UVDIDFTVlZWQ0PDiy++6OrqSnctNINM0gEei1ga7DTFeLb7eziJQv1eUU3aZ1dKmu6qNKbYekqh0pS29Cz9+OIbhn2K67VvKz+/fPPl4MRQoe7/MC10CTAjoY0QExUXF+fn5ycmJiYmJtJdC/3gQ5Nu4Bj20bLQObt/pLsQnWnoEq/9ojTWy/aFeG83Gx6PZRK38qRK9R2xIqO4vqianiYLH5ypa+2VvZIYd7iupLi9Vlen9TC3TfEIggeSGGhgYGDXrl0IIZIks7Kyhg8IDQ2NiYkZ/Lq+vn74mNjY2JCQEH3XaTCQSToj4JKZT4W8cLSM7kJ06XxD9/mG7scCHd54NKBHqrSavO2IlGqNTKn57PLNfRd+pbeSoz+3tPRId6XOsOHwj/+qm7fTE56haooiYHED84jFYolEghAqKCgYcQBBEPcyqa2t7fjx40MG2NnZTaZMgr7guiRWqDJ+qP+ytJXuQvTiyVDnNbM8eSxikl0zKdWaW33yY2Wtx8pamTOL5mTJPbI6orKnbV/1TxM81Xxn/4UuARZsrk4KMwUG7gtuIrTsCw6ZpGMailq+v6R2Yg/5M9lML9v18V5etnyCwCbBquKSprs5F3693HSX7kJGVvTn2C5l30QeXXIVWL8ashDu2o2Jlpk0Vqq7PaS1lW7PaUQgk2jT2iN9/KMLdFehX+42Zqti3BdOFcmUGnNj23VXraFkKnXhtc4DF5tae6V0lzOK42ui2Bz1O2WF43t06YVpczzNbWGTpDHRUyaZOMgk2shVmlPXO0yh8TaJY0+EOi8LcxVZcBCF2CSjP4yrNZRSQ3X0yY7+3GJczzjnrAzztuf+vfzUWB9detJrRpjQzZpjNHvnMARkkj5AJtFJolC/e+pGftU4+0YbHX+ReZyPbYKvnZ+9uVSpZtTztoPL2Ws7B87Vd11ovFPe2kt3RePxbkrg3CnC9ytO1/dp+7BUvKNvinsQXCGNA2SSPkAm0Uyp1jz96ZVJPLE0IiseK8rDJtHfPtzNmsQxHn3hpKGoHonyanNPQdWty0139dEWyMBenOOdFuW+99rZ0u7mUQf7W4k2TZ9ngKomJcgkfYBMol91R/+KAyV0V0GbIGfLmV62C6baO1nyeiRKNolZcPW4lFyloRQqDYahqva+72/c/r7m9u0B49sF+OGWhjhvWzjlWGPpqZaH3RkmMDw9IplPcqBrw/hAJukDZBL9xArVyWsdbxfeoLsQmgkF7OlOls5WPDdrnq+dwNmKZ2PGVlOUWkPhGMYa+1MzSrUGIcQicKlS3SdVtvfJbnQMVLT11t8WT/oL0zA3q73LQovba7+ov/KgMS8GznHhW1uy4U/qOEEm6QNkEiNIleq9Zxs/L7lJdyGM42DBdbbiuVhx3azNPGzNROZcFoGxCJzEMYQQRSENojQUoihKQyENRVEU6pUqm+5I6m4PtPbKWnukLT1StUm2PhLyOd+ui6662/bR9bPDv7vMOzxU6GoFgTQBkEn6AJnEFEq1Jv3kjbzKdroLAZPKmY1xnfLef5Sfuv9guJ3bcp8IPvS1mxjIJH3QMpMYvXh3cmAR+M5HpsZ5C+kuBEwqCf86K0CCv4Ul35s0smTznvOfBYEEjBpkkiFgGHorOcDZEj52AV16NPv8nT70VniKkCtACG0LTdLAbQ9g5ODeneG098oe23ue7irAZPOvJ4JjPK1Lu5unWjkKWLBHsA7AvTt9gHt3jONoyT34TDjdVYDJZuNX5bllbU48KwgkA1NqxtbtSaaW6amSyQQeXzAobyH/g9SgTccq6C4ETB5LQ5wemeYg4MDvsqENKPv+t/WkloNFPMdo0awRv5Wbm5udnf2gFx4+fNjOzq65uXnVqlVxcXGvv/76iMPy8vJ27959/xGCIIRCYVhY2IoVK+zt7bWsk3bwPjYoLouI9rD582zvjOJ6umsBk8HSEKeNc3z4EEjGzMfHZ8mSJUMOSiSSwsJCS0tLPn8M21uEhYX5+PgMfi0Wi+vq6k6cOHHu3Lk9e/Y4OzvrrGJ9greyobFJ/Nlo97rb4oJrptIND+gJBNLkEBQUFBQUNORgeno6hmFbt241MxtDC92YmJiUlJT7jxw7dmzv3r05OTk7duzQQa36B/NJ9EhPDohwt6a7CmDEUoIcNyZAIE1OeXl5xcXFqampkZGREzzV0qVLORxOeXm5TgozAMgk2uxdFjrTy5buKoBRSgoQvbpgCp8NJi1+3wAACy5JREFUgTQJNTQ0ZGdn+/v7r169euJnwzBMIBDI5UbT+xEyiU57ngye42tHdxXAyMz1s3sreRqLgF/eSUgmk6Wnp7NYrG3btpGkDj5zdHR0dHd3u7q6TvxUhgFva5q9v3T6ogAHuqsARmOWt+0/lkynuwqgL3v27Glubt68ebODw0T/LEil0oqKip07dyKEFi9erIPiDAKu/en3xqNT+Rziq9JWugsBTBfpbr37iWC6qwD6curUqaKiouTk5Pj4+PGdITMzMzMz8/4jOI6vXLlywYIFuijQECCT6Efg2Oa5vgIOeeBiE921AOZK9Ld/NyWQ7iqAvjQ3N2dkZHh5ea1du3bcJwkPD/fz8xv8miAIGxubiIgIkUikoxoNATKJETgkvirGXcAhM+G5JTCSVTEef4r3orsKoC8KhSI9PR0htH37djZ7/P04oqOjh6wFNzqQSUzBZ5NLg534bOLvRTV01wKY5a+PTH1kGkw6TmZZWVkNDQ1bt241osUIegKZxCCWPNa8KfYCDrkj7xrdtQBG4HPID58K9heZD251CCal4uLi/Pz8xMTExMREumuhH2QSs9jy2eFu1nuXhb53uqahS0x3OYBOU+wFWctCrXgsugsBejQwMLBr1y6EEEmSWVlZwweEhobGxMQMfl1fXz98TGxsbEhIiL7rNBjIJMaxN+eQBPbv/wp9t6jmdHUn3eUAeiT42f0T1nybALFYLJFIEEIFBQUjDiAI4l4mtbW1HT9+fMgAOzu7yZRJsH8SQ2koSqWm9l9s+vdPjXTXAgxtZYTbprk+dFdhurTcP+muvHusfcFZuOnuJ6Ll/kmQSYx2R6wob+199dsqpVpDdy3AQF5J9EsNcSZgAok+etrTT6aWcQmubs9pRCCTJok7EoVUoX7lm8rrt/rprgXo11QH85fm+fqLzHksgu5aTBrsM6sPkEmTh0KtITAs/WT1t7+0010L0JfUEOdNc33UGgp256MdZJI+aJlJ8O43AmwCRwhtTPDxtRe8/7+1dJcDdMySx9qU4LNomgMs+AYArpOMyR2Joq1X9uejZX0yFd21AN2I9rR5dcEUazM2nw3365gCrpP0Ae7dTU5Spbpfptr1fW0RLBM3fs/N9Fw7y5PuKsBQkEn6AJk0mclVmnP1XR98X9feJ6O7FjAebtZmf31kqr9IwIXlDMwDmaQPkEmTnEKtkSk1u3+o+7q8je5awNgsCnD4ywI/WMvAWJBJ+gCZZBJkSnVle98/TtfW3R6guxYwOldr3sYE31netrCcgckgk/QBMsmEyFWaf59rPHAJtl9iLg6J/3eMx9MRrnCzjvkgk/QBMsm0SJXqpjuS907XlLf00l0LGOqxQMf18V6WXBICyShAJukDZJIpoih0qOTmwcs3u8UKumsBCCEU5WHzwmwvL1s+pJERgUzSB8gkEyVTqhVq6lDJzS9LW3ulSrrLMV2etvz18V6zfYTQuc7oaJlJFKXAsDH0VNVQUhwz3ZyDTDJpYoVKpaY+L2k++nPLgBwesDUoPof8Y4zHsjAXksAhj4yRlpmk1NzukuVqeU4O4WLFTsRHyrDc3Nzs7OwHvfDw4cMsFmvVqlUEQezfv18gEAwfsH///pUrV6alpTU3N69atepBp3r55ZcXLFigZcE6B72FTBqfTSKEVkW7Lw93PVRy83+utsiUarqLmvzYJP74dMfnZnqac0g2idNdDjAOPj4+S5YsGXJQIpEUFhZaWlry+XwzM7M1a9a8//77+/bt27Bhw/3DOjo6Dh8+7OLisnz58nsHnZycoqKihv8gNzc3fdSvW5BJkxmPTfDYxB9nei4Pd/2spPl/rjTDnhd6IhSwHwt0XBbmwmeTZtAlCIxFUFBQUFDQkIPp6ekYhm3dutXMzAwhlJSUdPr06fz8/IULF/r7+98blpmZKZfLN27cyGL9vh+xt7f3+vXrDVO8zsFHucmPS+I2fPa6WZ5562KfiXKDm0m65WnL3zDH59gfo5+OdLMTcCCQwMTl5eUVFxenpqZGRkbeO7hx40aSJHfv3q3R/PbJ8sKFCxcvXkxKSgoODqapUt2DTDIVbBIX8tnr47wK/jTz+VmeInMO3RUZvWBny/TkgCOrI5eGOAk4pBWPNfprABhNQ0NDdna2v7//6tWr7z8+eIOurq7um2++QQjJ5fIPP/zQyspqzZo1NFWqF3DvzrSwCNxOwEmLcn822v18Q/fhKy1Xb96luyjjM8vbdmWE2wxXKw1FERgGXYKArshksvT0dBaLtW3bNpIc+r5atmzZmTNnDhw4MHv27K+//rqjo+O1117TZuGAEYHfJVPEIXGE0Bxfu1hP27Y+2fGytuMVbWJYnqeFRQEOaVFubjZmg/8NCQS3QoEu7dmzp7m5eceOHQ4ODsO/S5Lkpk2bNm/e/Pbbb1dVVUVERCQkJBi+SL2CTDJpbBL3sDF7YbbX87M8zzd277/QVN0BO6yPINDJIsHXLilAZGXG4pIwYwT04tSpU0VFRcnJyfHx8Q8aExgYuGjRohMnTnA4nCFr8O45e/ZsYmLi8OM5OTmurq46K1c/IJMAYhE4i0Dzp9jP9bNr7JbklrV+cbWF7qIYIdDJYqaX7cKpIgcLLkVR0IsB6E9zc3NGRoaXl9fatWsfPnLJkiUnTpyIjY0ViUQjDnjQWnCjuMsHmQR+h2OYt5C/ZZ7f+njvAbnq6M8tRdc7W3uldNdlaIFOFnHewkR/ewcLrlpDwVI6oG8KhSI9PR0htH37djZ7lN4QBEEghHD8gSvUjHotOGQSGArDEJ9N8NnEs9HuKyPcuCz81PWOk9c6LjdN8tUQgU4Ws32E8/1FDuYcNUXx4KoIGEpWVlZDQ8PWrVuZf29N3yCTwAOZ//9yspQgpwQ/OwGHLGvpza+6daHxTsdk2d/Whs8OcrKY7mQ5b4q9yIJDUb8tAAHAYIqLi/Pz8xMTE0ecBDI1kElAKxZcFkJohqvVdCcLikJ3JIpz9d2nqjtrOvr7jW3BnpeQH+hoEeFuHeJiZW/O6ZepzNgERBGgxcDAwK5duxBCJElmZWUNHxAaGhoTE2PwumgDmQTGhkXgCCEHC+4Toc7J0x3ZBN4rU9bdHiht7rl+q/9G58At5l1CkTgW6GQZ4mIZ62k7RSQgcUyloe49VGRtBs+6AtqIxWKJRIIQKigoGHEAQRAmlUnQFxzojEypJnBcQ1EtPdJr7X0lTXerO/vrb4sNXIa1GUtkzhWZc+zNOYFOFsHOVq7WPJlSw2FBk26gFQP3BTcRsFcFoBlFIZVGQ+L47QF5Z7+8W6zoEstvDyi6BuR9MmWPVNUrVQ7+oxh7Z9j7g8fFiudmY+ZowRUKOBZcUkNRKg2FIcQmcRyDGAJjpqc9/WD/JNirAtAJw3670WdvzrG/r72eWkOpNJRGQyEM4RjGIjC1hpIq1QNytVihIjCMwDESxwj8ty9w7LevcQzDMYTjGIFhcpVGqdZgCLFInE38x1QQgTBYMQcYyJQDSXuQScDQBgPm/iM4gbEIfHAZhZY4JA6rEgCYfOC3GgAAAFNAJgEAAGAKyCQAAABMAZkEAACAKSCTAAAAMAVkEgAAAKaATAIAAMAUkEkAAACYAjIJAAAAU0AmAQAAYArIJAAAAEwBmQQAAIApoAcrAAAM1d/fr1IZ2QbKDEcQWrXrh/2TAAAAMAXcuwMAAMAUkEkAAACYAjIJAAAAU0AmAQAAYArIJAAAAEwBmQQAAIApIJMAAAAwBWQSAAAApoBMAgAAwBSQSQAAAJgCMgkAAABTQCYBAABgCsgkAAAATAGZBAAAgCkgkwAAADDF/wGRXOwW6GMk/gAAAABJRU5ErkJggg==;" parent="eF5o-A4pd1vjj2XsfFBk-1" vertex="1">
          <mxGeometry x="399" y="760" width="146.48" height="100" as="geometry" />
        </mxCell>
      </root>
    </mxGraphModel>
  </diagram>
</mxfile>
